FaunaOne-Regular.otf.ufo
<glyph name="exclam" format="1">
  <advance width="281"/>
  <unicode hex="0021"/>
  <outline>
    <contour>
      <point x="162" y="176" type="line" name="hr00"/>
      <point x="186" y="730" type="line"/>
      <point x="95" y="730" type="line"/>
      <point x="119" y="176" type="line"/>
    </contour>
    <contour>
      <point x="87" y="45" type="curve" smooth="yes"/>
      <point x="87" y="16" smooth="yes"/>
      <point x="111" y="-8" smooth="yes"/>
      <point x="140" y="-8" type="curve" smooth="yes"/>
      <point x="169" y="-8" smooth="yes"/>
      <point x="193" y="16" smooth="yes"/>
      <point x="193" y="45" type="curve" smooth="yes"/>
      <point x="193" y="73" smooth="yes"/>
      <point x="168" y="98" smooth="yes"/>
      <point x="140" y="98" type="curve" smooth="yes"/>
      <point x="112" y="98" smooth="yes"/>
      <point x="87" y="73" smooth="yes"/>
    </contour>
  </outline>
</glyph>
<glyph name="quotedbl" format="1">
  <advance width="396"/>
  <unicode hex="0022"/>
  <outline>
    <contour>
      <point x="140" y="490" type="line" name="hr00"/>
      <point x="158" y="730" type="line"/>
      <point x="76" y="730" type="line"/>
      <point x="95" y="490" type="line"/>
    </contour>
    <contour>
      <point x="301" y="490" type="line"/>
      <point x="320" y="730" type="line"/>
      <point x="238" y="730" type="line"/>
      <point x="256" y="490" type="line"/>
    </contour>
  </outline>
</glyph>
<glyph name="numbersign" format="1">
  <advance width="797"/>
  <unicode hex="0023"/>
  <outline>
    <contour>
      <point x="624" y="567" type="line" name="hr00"/>
      <point x="672" y="822" type="line"/>
      <point x="592" y="822" type="line"/>
      <point x="546" y="567" type="line"/>
      <point x="319" y="567" type="line"/>
      <point x="366" y="822" type="line"/>
      <point x="287" y="822" type="line"/>
      <point x="240" y="567" type="line"/>
      <point x="124" y="567" type="line"/>
      <point x="114" y="506" type="line"/>
      <point x="229" y="506" type="line"/>
      <point x="184" y="257" type="line"/>
      <point x="70" y="257" type="line"/>
      <point x="59" y="196" type="line"/>
      <point x="173" y="196" type="line"/>
      <point x="127" y="-59" type="line"/>
      <point x="206" y="-59" type="line"/>
      <point x="252" y="196" type="line"/>
      <point x="479" y="196" type="line"/>
      <point x="432" y="-59" type="line"/>
      <point x="512" y="-59" type="line"/>
      <point x="557" y="196" type="line"/>
      <point x="672" y="196" type="line"/>
      <point x="683" y="257" type="line"/>
      <point x="569" y="257" type="line"/>
      <point x="613" y="506" type="line"/>
      <point x="727" y="506" type="line"/>
      <point x="737" y="567" type="line"/>
    </contour>
    <contour>
      <point x="308" y="506" type="line"/>
      <point x="534" y="506" type="line"/>
      <point x="490" y="257" type="line"/>
      <point x="263" y="257" type="line"/>
    </contour>
  </outline>
</glyph>
<glyph name="ampersand" format="1">
  <advance width="665"/>
  <unicode hex="0026"/>
  <outline>
    <contour>
      <point x="327" y="683" type="curve" smooth="yes"/>
      <point x="385" y="683"/>
      <point x="448" y="664"/>
      <point x="514" y="627" type="curve"/>
      <point x="540" y="687" type="line"/>
      <point x="466" y="725" smooth="yes"/>
      <point x="396" y="744" smooth="yes"/>
      <point x="327" y="744" type="curve" smooth="yes"/>
      <point x="178" y="744" smooth="yes"/>
      <point x="93" y="671" smooth="yes"/>
      <point x="93" y="542" type="curve" smooth="yes"/>
      <point x="93" y="464"/>
      <point x="140" y="400"/>
      <point x="217" y="374" type="curve"/>
      <point x="131" y="353" smooth="yes"/>
      <point x="76" y="284" smooth="yes"/>
      <point x="76" y="197" type="curve" smooth="yes" name="hr01"/>
      <point x="76" y="63" smooth="yes"/>
      <point x="161" y="-14" smooth="yes"/>
      <point x="311" y="-14" type="curve" smooth="yes"/>
      <point x="451" y="-14" smooth="yes"/>
      <point x="537" y="75" smooth="yes"/>
      <point x="537" y="219" type="curve" smooth="yes"/>
      <point x="537" y="343" type="line"/>
      <point x="643" y="343" type="line"/>
      <point x="643" y="396" type="line"/>
      <point x="349" y="396" type="line" smooth="yes"/>
      <point x="242" y="396" smooth="yes"/>
      <point x="172" y="455" smooth="yes"/>
      <point x="172" y="544" type="curve" smooth="yes" name="hr02"/>
      <point x="172" y="632" smooth="yes"/>
      <point x="229" y="683" smooth="yes"/>
    </contour>
    <contour>
      <point x="465" y="219" type="line" smooth="yes"/>
      <point x="465" y="113" smooth="yes"/>
      <point x="405" y="46" smooth="yes"/>
      <point x="310" y="46" type="curve" smooth="yes"/>
      <point x="212" y="46" smooth="yes"/>
      <point x="155" y="101" smooth="yes"/>
      <point x="155" y="195" type="curve" smooth="yes" name="hr03"/>
      <point x="155" y="292" smooth="yes"/>
      <point x="222" y="343" smooth="yes"/>
      <point x="348" y="343" type="curve" smooth="yes"/>
      <point x="465" y="343" type="line"/>
    </contour>
  </outline>
</glyph>
<glyph name="quotesingle" format="1">
  <advance width="234"/>
  <unicode hex="0027"/>
  <outline>
    <contour>
      <point x="140" y="490" type="line" name="hr00"/>
      <point x="158" y="730" type="line"/>
      <point x="76" y="730" type="line"/>
      <point x="95" y="490" type="line"/>
    </contour>
  </outline>
</glyph>
<glyph name="parenleft" format="1">
  <advance width="293"/>
  <unicode hex="0028"/>
  <outline>
    <contour>
      <point x="274" y="802" type="line" name="hr00"/>
      <point x="132" y="734" smooth="yes"/>
      <point x="47" y="571" smooth="yes"/>
      <point x="47" y="365" type="curve" smooth="yes"/>
      <point x="47" y="159"/>
      <point x="132" y="-6"/>
      <point x="274" y="-74" type="curve"/>
      <point x="274" y="-19" type="line"/>
      <point x="179" y="58" smooth="yes"/>
      <point x="126" y="196" smooth="yes"/>
      <point x="126" y="365" type="curve" smooth="yes"/>
      <point x="126" y="533"/>
      <point x="179" y="670"/>
      <point x="274" y="748" type="curve"/>
    </contour>
  </outline>
</glyph>
<glyph name="asterisk" format="1">
  <advance width="538"/>
  <unicode hex="002A"/>
  <outline>
    <contour>
      <point x="308" y="769" type="line" name="hr00"/>
      <point x="230" y="769" type="line"/>
      <point x="244" y="584" type="line"/>
      <point x="72" y="654" type="line"/>
      <point x="48" y="581" type="line"/>
      <point x="229" y="536" type="line"/>
      <point x="111" y="396" type="line"/>
      <point x="174" y="351" type="line"/>
      <point x="268" y="504" type="line"/>
      <point x="364" y="351" type="line"/>
      <point x="427" y="399" type="line"/>
      <point x="308" y="536" type="line"/>
      <point x="490" y="581" type="line"/>
      <point x="466" y="654" type="line"/>
      <point x="294" y="584" type="line"/>
    </contour>
  </outline>
</glyph>
<glyph name="plus" format="1">
  <advance width="584"/>
  <unicode hex="002B"/>
  <outline>
    <contour>
      <point x="324" y="397" type="line" name="hr00"/>
      <point x="324" y="562" type="line"/>
      <point x="259" y="562" type="line"/>
      <point x="259" y="397" type="line"/>
      <point x="95" y="397" type="line"/>
      <point x="95" y="333" type="line"/>
      <point x="259" y="333" type="line"/>
      <point x="259" y="167" type="line"/>
      <point x="324" y="167" type="line"/>
      <point x="324" y="333" type="line"/>
      <point x="488" y="333" type="line"/>
      <point x="488" y="397" type="line"/>
    </contour>
  </outline>
</glyph>
<glyph name="comma" format="1">
  <advance width="262"/>
  <unicode hex="002C"/>
  <outline>
    <contour>
      <point x="79" y="-124" type="line" name="hr00"/>
      <point x="138" y="-78" smooth="yes"/>
      <point x="177" y="-8" smooth="yes"/>
      <point x="177" y="55" type="curve" smooth="yes"/>
      <point x="177" y="83" smooth="yes"/>
      <point x="158" y="102" smooth="yes"/>
      <point x="131" y="102" type="curve" smooth="yes"/>
      <point x="103" y="102" smooth="yes"/>
      <point x="84" y="82" smooth="yes"/>
      <point x="84" y="55" type="curve" smooth="yes"/>
      <point x="84" y="27" smooth="yes"/>
      <point x="97" y="9" smooth="yes"/>
      <point x="97" y="-18" type="curve" smooth="yes"/>
      <point x="97" y="-49"/>
      <point x="85" y="-73"/>
      <point x="57" y="-98" type="curve"/>
    </contour>
  </outline>
</glyph>
<glyph name="hyphen" format="1">
  <advance width="485"/>
  <unicode hex="002D"/>
  <outline>
    <contour>
      <point x="418" y="287" type="line" name="hr00"/>
      <point x="418" y="348" type="line"/>
      <point x="66" y="348" type="line"/>
      <point x="66" y="287" type="line"/>
    </contour>
  </outline>
</glyph>
<glyph name="period" format="1">
  <advance width="262"/>
  <unicode hex="002E"/>
  <outline>
    <contour>
      <point x="76" y="47" type="curve" smooth="yes" name="hr00"/>
      <point x="76" y="17" smooth="yes"/>
      <point x="101" y="-8" smooth="yes"/>
      <point x="131" y="-8" type="curve" smooth="yes"/>
      <point x="160" y="-8" smooth="yes"/>
      <point x="186" y="17" smooth="yes"/>
      <point x="186" y="47" type="curve" smooth="yes"/>
      <point x="186" y="76" smooth="yes"/>
      <point x="160" y="102" smooth="yes"/>
      <point x="131" y="102" type="curve" smooth="yes"/>
      <point x="101" y="102" smooth="yes"/>
      <point x="76" y="76" smooth="yes"/>
    </contour>
  </outline>
</glyph>
<glyph name="slash" format="1">
  <advance width="302"/>
  <unicode hex="002F"/>
  <outline>
    <contour>
      <point x="62" y="-106" type="line" name="hr00"/>
      <point x="302" y="775" type="line"/>
      <point x="240" y="775" type="line"/>
      <point x="0" y="-106" type="line"/>
    </contour>
  </outline>
</glyph>
<glyph name="zero" format="1">
  <advance width="661"/>
  <unicode hex="0030"/>
  <outline>
    <contour>
      <point x="330" y="744" type="curve" smooth="yes" name="hr00"/>
      <point x="162" y="744" smooth="yes"/>
      <point x="71" y="611" smooth="yes"/>
      <point x="71" y="365" type="curve" smooth="yes"/>
      <point x="71" y="137" smooth="yes"/>
      <point x="175" y="-15" smooth="yes"/>
      <point x="330" y="-15" type="curve" smooth="yes"/>
      <point x="499" y="-15" smooth="yes"/>
      <point x="589" y="118" smooth="yes"/>
      <point x="589" y="365" type="curve" smooth="yes"/>
      <point x="589" y="593" smooth="yes"/>
      <point x="486" y="744" smooth="yes"/>
    </contour>
    <contour>
      <point x="330" y="683" type="curve" smooth="yes"/>
      <point x="438" y="683" smooth="yes"/>
      <point x="510" y="556" smooth="yes"/>
      <point x="510" y="365" type="curve" smooth="yes"/>
      <point x="510" y="157" smooth="yes"/>
      <point x="447" y="46" smooth="yes"/>
      <point x="330" y="46" type="curve" smooth="yes"/>
      <point x="222" y="46" smooth="yes"/>
      <point x="150" y="174" smooth="yes"/>
      <point x="150" y="365" type="curve" smooth="yes"/>
      <point x="150" y="570" smooth="yes"/>
      <point x="214" y="683" smooth="yes"/>
    </contour>
  </outline>
</glyph>
<glyph name="one" format="1">
  <advance width="472"/>
  <unicode hex="0031"/>
  <outline>
    <contour>
      <point x="292" y="61" type="line" name="hr00"/>
      <point x="292" y="730" type="line"/>
      <point x="233" y="730" type="line"/>
      <point x="38" y="670" type="line"/>
      <point x="44" y="614" type="line"/>
      <point x="212" y="654" type="line"/>
      <point x="212" y="61" type="line"/>
      <point x="61" y="53" type="line"/>
      <point x="61" y="0" type="line"/>
      <point x="444" y="0" type="line"/>
      <point x="444" y="53" type="line"/>
    </contour>
  </outline>
</glyph>
<glyph name="two" format="1">
  <advance width="596"/>
  <unicode hex="0032"/>
  <outline>
    <contour>
      <point x="149" y="528" type="line" name="hr00"/>
      <point x="149" y="626" smooth="yes"/>
      <point x="206" y="683" smooth="yes"/>
      <point x="305" y="683" type="curve" smooth="yes"/>
      <point x="391" y="683" smooth="yes"/>
      <point x="446" y="631" smooth="yes"/>
      <point x="446" y="551" type="curve" smooth="yes"/>
      <point x="446" y="489" smooth="yes"/>
      <point x="418" y="437" smooth="yes"/>
      <point x="340" y="356" type="curve" smooth="yes"/>
      <point x="62" y="60" type="line"/>
      <point x="62" y="0" type="line"/>
      <point x="534" y="0" type="line"/>
      <point x="534" y="61" type="line"/>
      <point x="163" y="61" type="line"/>
      <point x="394" y="310" type="line" smooth="yes"/>
      <point x="491" y="413" smooth="yes"/>
      <point x="526" y="477" smooth="yes"/>
      <point x="526" y="551" type="curve" smooth="yes"/>
      <point x="526" y="671" smooth="yes"/>
      <point x="443" y="744" smooth="yes"/>
      <point x="305" y="744" type="curve" smooth="yes"/>
      <point x="157" y="744"/>
      <point x="74" y="667"/>
      <point x="74" y="528" type="curve"/>
    </contour>
  </outline>
</glyph>
<glyph name="three" format="1">
  <advance width="624"/>
  <unicode hex="0033"/>
  <outline>
    <contour>
      <point x="201" y="343" type="line"/>
      <point x="276" y="343" type="line" smooth="yes"/>
      <point x="402" y="343" smooth="yes"/>
      <point x="469" y="292" smooth="yes"/>
      <point x="469" y="195" type="curve" smooth="yes"/>
      <point x="469" y="101" smooth="yes"/>
      <point x="405" y="46" smooth="yes"/>
      <point x="294" y="46" type="curve" smooth="yes"/>
      <point x="199" y="46"/>
      <point x="139" y="105"/>
      <point x="139" y="199" type="curve"/>
      <point x="67" y="199" type="line"/>
      <point x="67" y="68" smooth="yes"/>
      <point x="154" y="-14" smooth="yes"/>
      <point x="292" y="-14" type="curve" smooth="yes"/>
      <point x="455" y="-14" smooth="yes"/>
      <point x="548" y="62" smooth="yes"/>
      <point x="548" y="197" type="curve" smooth="yes"/>
      <point x="548" y="284"/>
      <point x="493" y="353"/>
      <point x="407" y="374" type="curve"/>
      <point x="484" y="400" smooth="yes"/>
      <point x="531" y="464" smooth="yes"/>
      <point x="531" y="542" type="curve" smooth="yes" name="hr01"/>
      <point x="531" y="671" smooth="yes"/>
      <point x="446" y="745" smooth="yes"/>
      <point x="297" y="745" type="curve" smooth="yes"/>
      <point x="162" y="745"/>
      <point x="76" y="663"/>
      <point x="76" y="532" type="curve"/>
      <point x="147" y="532" type="line"/>
      <point x="147" y="625" smooth="yes"/>
      <point x="205" y="684" smooth="yes"/>
      <point x="297" y="684" type="curve" smooth="yes"/>
      <point x="395" y="684" smooth="yes"/>
      <point x="452" y="632" smooth="yes"/>
      <point x="452" y="544" type="curve" smooth="yes"/>
      <point x="452" y="455" smooth="yes"/>
      <point x="382" y="396" smooth="yes"/>
      <point x="275" y="396" type="curve" smooth="yes"/>
      <point x="198" y="396" type="line"/>
    </contour>
  </outline>
</glyph>
<glyph name="four" format="1">
  <advance width="610"/>
  <unicode hex="0034"/>
  <outline>
    <contour>
      <point x="465" y="227" type="line" name="hr00"/>
      <point x="465" y="730" type="line"/>
      <point x="343" y="730" type="line"/>
      <point x="19" y="219" type="line"/>
      <point x="19" y="172" type="line"/>
      <point x="385" y="172" type="line"/>
      <point x="385" y="0" type="line"/>
      <point x="465" y="0" type="line"/>
      <point x="465" y="172" type="line"/>
      <point x="553" y="172" type="line"/>
      <point x="553" y="227" type="line"/>
    </contour>
    <contour>
      <point x="107" y="227" type="line"/>
      <point x="385" y="659" type="line"/>
      <point x="385" y="227" type="line"/>
    </contour>
  </outline>
</glyph>
<glyph name="five" format="1">
  <advance width="608"/>
  <unicode hex="0035"/>
  <outline>
    <contour>
      <point x="119" y="350" type="line" name="hr00"/>
      <point x="172" y="367" smooth="yes"/>
      <point x="227" y="377" smooth="yes"/>
      <point x="273" y="377" type="curve" smooth="yes"/>
      <point x="402" y="377" smooth="yes"/>
      <point x="472" y="319" smooth="yes"/>
      <point x="472" y="211" type="curve" smooth="yes"/>
      <point x="472" y="104" smooth="yes"/>
      <point x="411" y="46" smooth="yes"/>
      <point x="300" y="46" type="curve" smooth="yes"/>
      <point x="206" y="46"/>
      <point x="149" y="108"/>
      <point x="148" y="211" type="curve"/>
      <point x="77" y="211" type="line"/>
      <point x="77" y="73" smooth="yes"/>
      <point x="164" y="-15" smooth="yes"/>
      <point x="298" y="-15" type="curve" smooth="yes"/>
      <point x="461" y="-15" smooth="yes"/>
      <point x="551" y="67" smooth="yes"/>
      <point x="551" y="213" type="curve" smooth="yes"/>
      <point x="551" y="347" smooth="yes"/>
      <point x="456" y="431" smooth="yes"/>
      <point x="304" y="431" type="curve" smooth="yes"/>
      <point x="266" y="431"/>
      <point x="223" y="424"/>
      <point x="174" y="409" type="curve"/>
      <point x="198" y="669" type="line"/>
      <point x="506" y="669" type="line"/>
      <point x="513" y="730" type="line"/>
      <point x="134" y="730" type="line"/>
      <point x="100" y="364" type="line"/>
    </contour>
  </outline>
</glyph>
<glyph name="six" format="1">
  <advance width="629"/>
  <unicode hex="0036"/>
  <outline>
    <contour>
      <point x="558" y="562" type="line" name="hr00"/>
      <point x="544" y="680" smooth="yes"/>
      <point x="465" y="745" smooth="yes"/>
      <point x="333" y="745" type="curve" smooth="yes"/>
      <point x="168" y="745" smooth="yes"/>
      <point x="72" y="596" smooth="yes"/>
      <point x="72" y="341" type="curve" smooth="yes"/>
      <point x="72" y="116" smooth="yes"/>
      <point x="162" y="-14" smooth="yes"/>
      <point x="318" y="-14" type="curve" smooth="yes"/>
      <point x="478" y="-14" smooth="yes"/>
      <point x="568" y="69" smooth="yes"/>
      <point x="568" y="216" type="curve" smooth="yes"/>
      <point x="568" y="342" smooth="yes"/>
      <point x="478" y="427" smooth="yes"/>
      <point x="346" y="427" type="curve" smooth="yes"/>
      <point x="277" y="427"/>
      <point x="206" y="402"/>
      <point x="150" y="358" type="curve"/>
      <point x="151" y="566" smooth="yes"/>
      <point x="217" y="683" smooth="yes"/>
      <point x="334" y="683" type="curve" smooth="yes"/>
      <point x="421" y="683"/>
      <point x="472" y="636"/>
      <point x="481" y="546" type="curve"/>
    </contour>
    <contour>
      <point x="316" y="46" type="curve" smooth="yes"/>
      <point x="218" y="46"/>
      <point x="155" y="141"/>
      <point x="149" y="296" type="curve"/>
      <point x="204" y="341" smooth="yes"/>
      <point x="271" y="366" smooth="yes"/>
      <point x="333" y="366" type="curve" smooth="yes"/>
      <point x="427" y="366" smooth="yes"/>
      <point x="488" y="308" smooth="yes"/>
      <point x="488" y="218" type="curve" smooth="yes"/>
      <point x="488" y="105" smooth="yes"/>
      <point x="428" y="46" smooth="yes"/>
    </contour>
  </outline>
</glyph>
<glyph name="seven" format="1">
  <advance width="528"/>
  <unicode hex="0037"/>
  <outline>
    <contour>
      <point x="481" y="671" type="line" name="hr00"/>
      <point x="481" y="730" type="line"/>
      <point x="36" y="730" type="line"/>
      <point x="41" y="669" type="line"/>
      <point x="402" y="669" type="line"/>
      <point x="106" y="0" type="line"/>
      <point x="185" y="0" type="line"/>
    </contour>
  </outline>
</glyph>
<glyph name="eight" format="1">
  <advance width="637"/>
  <unicode hex="0038"/>
  <outline>
    <contour>
      <point x="320" y="-15" type="curve"/>
      <point x="470" y="-15" smooth="yes"/>
      <point x="561" y="58" smooth="yes"/>
      <point x="561" y="180" type="curve" smooth="yes"/>
      <point x="561" y="260"/>
      <point x="519" y="307"/>
      <point x="397" y="364" type="curve"/>
      <point x="493" y="399" smooth="yes"/>
      <point x="549" y="468" smooth="yes"/>
      <point x="549" y="554" type="curve" smooth="yes" name="hr01"/>
      <point x="549" y="669" smooth="yes"/>
      <point x="459" y="744" smooth="yes"/>
      <point x="320" y="744" type="curve" smooth="yes"/>
      <point x="181" y="744" smooth="yes"/>
      <point x="90" y="669" smooth="yes"/>
      <point x="90" y="554" type="curve" smooth="yes"/>
      <point x="90" y="474"/>
      <point x="131" y="418"/>
      <point x="223" y="373" type="curve"/>
      <point x="127" y="338" smooth="yes"/>
      <point x="76" y="271" smooth="yes"/>
      <point x="76" y="180" type="curve" smooth="yes" name="hr02"/>
      <point x="76" y="59" smooth="yes"/>
      <point x="169" y="-15" smooth="yes"/>
    </contour>
    <contour>
      <point x="319" y="42" type="curve"/>
      <point x="213" y="42" smooth="yes"/>
      <point x="155" y="93" smooth="yes"/>
      <point x="155" y="186" type="curve" smooth="yes"/>
      <point x="155" y="265"/>
      <point x="202" y="324"/>
      <point x="283" y="347" type="curve"/>
      <point x="438" y="283" smooth="yes"/>
      <point x="482" y="248" smooth="yes"/>
      <point x="482" y="186" type="curve" smooth="yes"/>
      <point x="482" y="93" smooth="yes"/>
      <point x="424" y="42" smooth="yes"/>
    </contour>
    <contour>
      <point x="326" y="390" type="curve"/>
      <point x="212" y="433" smooth="yes"/>
      <point x="169" y="476" smooth="yes"/>
      <point x="169" y="548" type="curve" smooth="yes" name="hr03"/>
      <point x="169" y="634" smooth="yes"/>
      <point x="226" y="687" smooth="yes"/>
      <point x="320" y="687" type="curve" smooth="yes"/>
      <point x="410" y="687" smooth="yes"/>
      <point x="470" y="631" smooth="yes"/>
      <point x="470" y="548" type="curve" smooth="yes"/>
      <point x="470" y="476"/>
      <point x="413" y="414"/>
    </contour>
  </outline>
</glyph>
<glyph name="nine" format="1">
  <advance width="626"/>
  <unicode hex="0039"/>
  <outline>
    <contour>
      <point x="286" y="-14" type="curve" smooth="yes" name="hr00"/>
      <point x="458" y="-14" smooth="yes"/>
      <point x="555" y="135" smooth="yes"/>
      <point x="555" y="401" type="curve" smooth="yes"/>
      <point x="555" y="620" smooth="yes"/>
      <point x="464" y="745" smooth="yes"/>
      <point x="305" y="745" type="curve" smooth="yes"/>
      <point x="150" y="745" smooth="yes"/>
      <point x="61" y="659" smooth="yes"/>
      <point x="61" y="510" type="curve" smooth="yes"/>
      <point x="61" y="307"/>
      <point x="296" y="230"/>
      <point x="479" y="373" type="curve"/>
      <point x="474" y="160" smooth="yes"/>
      <point x="408" y="46" smooth="yes"/>
      <point x="288" y="46" type="curve" smooth="yes"/>
      <point x="193" y="46"/>
      <point x="134" y="106"/>
      <point x="135" y="199" type="curve"/>
      <point x="64" y="199" type="line"/>
      <point x="62" y="68" smooth="yes"/>
      <point x="147" y="-14" smooth="yes"/>
    </contour>
    <contour>
      <point x="478" y="434" type="curve"/>
      <point x="323" y="310" smooth="yes"/>
      <point x="140" y="352" smooth="yes"/>
      <point x="140" y="510" type="curve" smooth="yes"/>
      <point x="140" y="622" smooth="yes"/>
      <point x="199" y="683" smooth="yes"/>
      <point x="305" y="683" type="curve" smooth="yes"/>
      <point x="412" y="683"/>
      <point x="477" y="590"/>
    </contour>
  </outline>
</glyph>
<glyph name="less" format="1">
  <advance width="584"/>
  <unicode hex="003C"/>
  <outline>
    <contour>
      <point x="489" y="502" type="line" name="hr00"/>
      <point x="489" y="574" type="line"/>
      <point x="95" y="405" type="line"/>
      <point x="95" y="323" type="line"/>
      <point x="489" y="154" type="line"/>
      <point x="489" y="226" type="line"/>
      <point x="156" y="364" type="line"/>
    </contour>
  </outline>
</glyph>
<glyph name="equal" format="1">
  <advance width="584"/>
  <unicode hex="003D"/>
  <outline>
    <contour>
      <point x="489" y="434" type="line" name="hr00"/>
      <point x="489" y="499" type="line"/>
      <point x="95" y="499" type="line"/>
      <point x="95" y="434" type="line"/>
    </contour>
    <contour>
      <point x="489" y="231" type="line"/>
      <point x="489" y="296" type="line"/>
      <point x="95" y="296" type="line"/>
      <point x="95" y="231" type="line"/>
    </contour>
  </outline>
</glyph>
<glyph name="greater" format="1">
  <advance width="584"/>
  <unicode hex="003E"/>
  <outline>
    <contour>
      <point x="428" y="364" type="line" name="hr00"/>
      <point x="95" y="226" type="line"/>
      <point x="95" y="154" type="line"/>
      <point x="489" y="323" type="line"/>
      <point x="489" y="405" type="line"/>
      <point x="95" y="574" type="line"/>
      <point x="95" y="502" type="line"/>
    </contour>
  </outline>
</glyph>
<glyph name="question" format="1">
  <advance width="457"/>
  <unicode hex="003F"/>
  <outline>
    <contour>
      <point x="88" y="552" type="line" name="hr00"/>
      <point x="88" y="631" smooth="yes"/>
      <point x="139" y="684" smooth="yes"/>
      <point x="214" y="684" type="curve" smooth="yes"/>
      <point x="285" y="684" smooth="yes"/>
      <point x="336" y="630" smooth="yes"/>
      <point x="336" y="554" type="curve" smooth="yes"/>
      <point x="336" y="401"/>
      <point x="171" y="378"/>
      <point x="171" y="176" type="curve"/>
      <point x="229" y="176" type="line"/>
      <point x="229" y="348" smooth="yes"/>
      <point x="410" y="384" smooth="yes"/>
      <point x="410" y="554" type="curve" smooth="yes"/>
      <point x="410" y="671" smooth="yes"/>
      <point x="335" y="744" smooth="yes"/>
      <point x="215" y="744" type="curve" smooth="yes"/>
      <point x="95" y="744"/>
      <point x="19" y="669"/>
      <point x="19" y="552" type="curve"/>
    </contour>
    <contour>
      <point x="148" y="45" type="curve" smooth="yes"/>
      <point x="148" y="16" smooth="yes"/>
      <point x="172" y="-8" smooth="yes"/>
      <point x="201" y="-8" type="curve" smooth="yes"/>
      <point x="230" y="-8" smooth="yes"/>
      <point x="254" y="16" smooth="yes"/>
      <point x="254" y="45" type="curve" smooth="yes"/>
      <point x="254" y="73" smooth="yes"/>
      <point x="229" y="98" smooth="yes"/>
      <point x="201" y="98" type="curve" smooth="yes"/>
      <point x="173" y="98" smooth="yes"/>
      <point x="148" y="73" smooth="yes"/>
    </contour>
  </outline>
</glyph>
<glyph name="at" format="1">
  <advance width="1070"/>
  <unicode hex="0040"/>
  <outline>
    <contour>
      <point x="984" y="379" type="curve" smooth="yes"/>
      <point x="984" y="637" smooth="yes"/>
      <point x="820" y="799" smooth="yes"/>
      <point x="558" y="799" type="curve" smooth="yes"/>
      <point x="271" y="799" smooth="yes"/>
      <point x="85" y="613" smooth="yes"/>
      <point x="85" y="328" type="curve" smooth="yes"/>
      <point x="85" y="70" smooth="yes"/>
      <point x="249" y="-92" smooth="yes"/>
      <point x="511" y="-92" type="curve" smooth="yes"/>
      <point x="634" y="-92"/>
      <point x="739" y="-58"/>
      <point x="819" y="6" type="curve"/>
      <point x="781" y="56" type="line"/>
      <point x="711" y="-1" smooth="yes"/>
      <point x="619" y="-31" smooth="yes"/>
      <point x="514" y="-31" type="curve" smooth="yes"/>
      <point x="295" y="-31" smooth="yes"/>
      <point x="158" y="108" smooth="yes"/>
      <point x="158" y="331" type="curve" smooth="yes"/>
      <point x="158" y="578" smooth="yes"/>
      <point x="314" y="738" smooth="yes"/>
      <point x="555" y="738" type="curve" smooth="yes"/>
      <point x="774" y="738" smooth="yes"/>
      <point x="912" y="599" smooth="yes"/>
      <point x="912" y="377" type="curve" smooth="yes"/>
      <point x="912" y="244" smooth="yes"/>
      <point x="861" y="164" smooth="yes"/>
      <point x="777" y="164" type="curve" smooth="yes"/>
      <point x="717" y="164" smooth="yes"/>
      <point x="684" y="211" smooth="yes"/>
      <point x="684" y="294" type="curve" smooth="yes"/>
      <point x="684" y="300" smooth="yes"/>
      <point x="699" y="544" smooth="yes"/>
      <point x="699" y="559" type="curve" smooth="yes"/>
      <point x="699" y="577"/>
      <point x="691" y="586"/>
      <point x="674" y="586" type="curve"/>
      <point x="638" y="550" type="line"/>
      <point x="600" y="573" smooth="yes"/>
      <point x="556" y="586" smooth="yes"/>
      <point x="515" y="586" type="curve" smooth="yes"/>
      <point x="400" y="586" smooth="yes"/>
      <point x="327" y="490" smooth="yes"/>
      <point x="327" y="338" type="curve" smooth="yes"/>
      <point x="327" y="208" smooth="yes"/>
      <point x="388" y="124" smooth="yes"/>
      <point x="481" y="124" type="curve" smooth="yes" name="hr01"/>
      <point x="542" y="124"/>
      <point x="593" y="153"/>
      <point x="629" y="206" type="curve"/>
      <point x="649" y="143" smooth="yes"/>
      <point x="696" y="110" smooth="yes"/>
      <point x="764" y="110" type="curve" smooth="yes" name="hr02"/>
      <point x="893" y="110" smooth="yes"/>
      <point x="984" y="221" smooth="yes"/>
    </contour>
    <contour>
      <point x="613" y="241" type="line"/>
      <point x="581" y="199" smooth="yes"/>
      <point x="545" y="178" smooth="yes"/>
      <point x="503" y="178" type="curve" smooth="yes" name="hr03"/>
      <point x="436" y="178" smooth="yes"/>
      <point x="399" y="235" smooth="yes"/>
      <point x="399" y="336" type="curve" smooth="yes"/>
      <point x="399" y="468" smooth="yes"/>
      <point x="442" y="532" smooth="yes"/>
      <point x="529" y="532" type="curve" smooth="yes"/>
      <point x="563" y="532"/>
      <point x="596" y="523"/>
      <point x="626" y="506" type="curve"/>
    </contour>
  </outline>
</glyph>
<glyph name="A" format="1">
  <advance width="643"/>
  <unicode hex="0041"/>
  <outline>
    <contour>
      <point x="530" y="26" type="line" smooth="yes" name="hr00"/>
      <point x="536" y="8" smooth="yes"/>
      <point x="547" y="0" smooth="yes"/>
      <point x="566" y="0" type="curve" smooth="yes"/>
      <point x="644" y="0" type="line"/>
      <point x="644" y="52" type="line"/>
      <point x="596" y="59" type="line"/>
      <point x="374" y="730" type="line"/>
      <point x="268" y="730" type="line"/>
      <point x="47" y="59" type="line"/>
      <point x="-1" y="52" type="line"/>
      <point x="-1" y="0" type="line"/>
      <point x="77" y="0" type="line" smooth="yes"/>
      <point x="96" y="0" smooth="yes"/>
      <point x="107" y="8" smooth="yes"/>
      <point x="113" y="26" type="curve" smooth="yes"/>
      <point x="178" y="224" type="line"/>
      <point x="465" y="224" type="line"/>
    </contour>
    <contour>
      <point x="324" y="655" type="line"/>
      <point x="445" y="286" type="line"/>
      <point x="198" y="286" type="line"/>
      <point x="319" y="655" type="line"/>
    </contour>
  </outline>
</glyph>
<glyph name="B" format="1">
  <advance width="644"/>
  <unicode hex="0042"/>
  <outline>
    <contour>
      <point x="73" y="730" type="line"/>
      <point x="73" y="678" type="line"/>
      <point x="136" y="670" type="line"/>
      <point x="136" y="59" type="line"/>
      <point x="73" y="52" type="line"/>
      <point x="73" y="0" type="line"/>
      <point x="370" y="0" type="line" smooth="yes"/>
      <point x="519" y="0" smooth="yes"/>
      <point x="596" y="68" smooth="yes"/>
      <point x="596" y="200" type="curve" smooth="yes"/>
      <point x="596" y="294"/>
      <point x="536" y="361"/>
      <point x="438" y="375" type="curve"/>
      <point x="516" y="390" smooth="yes"/>
      <point x="564" y="452" smooth="yes"/>
      <point x="564" y="539" type="curve" smooth="yes" name="hr01"/>
      <point x="564" y="658" smooth="yes"/>
      <point x="478" y="730" smooth="yes"/>
      <point x="335" y="730" type="curve" smooth="yes"/>
    </contour>
    <contour>
      <point x="216" y="675" type="line"/>
      <point x="330" y="675" type="line" smooth="yes"/>
      <point x="428" y="675" smooth="yes"/>
      <point x="485" y="625" smooth="yes"/>
      <point x="485" y="539" type="curve" smooth="yes"/>
      <point x="485" y="447" smooth="yes"/>
      <point x="438" y="400" smooth="yes"/>
      <point x="348" y="400" type="curve" smooth="yes"/>
      <point x="279" y="400" type="line"/>
      <point x="279" y="345" type="line"/>
      <point x="348" y="345" type="line" smooth="yes"/>
      <point x="456" y="345" smooth="yes"/>
      <point x="517" y="293" smooth="yes"/>
      <point x="517" y="200" type="curve" smooth="yes" name="hr02"/>
      <point x="517" y="102" smooth="yes"/>
      <point x="469" y="55" smooth="yes"/>
      <point x="368" y="55" type="curve" smooth="yes"/>
      <point x="216" y="55" type="line"/>
    </contour>
  </outline>
</glyph>
<glyph name="C" format="1">
  <advance width="621"/>
  <unicode hex="0043"/>
  <outline>
    <contour>
      <point x="340" y="683" type="curve" smooth="yes" name="hr00"/>
      <point x="401" y="683"/>
      <point x="471" y="663"/>
      <point x="537" y="627" type="curve"/>
      <point x="563" y="687" type="line"/>
      <point x="487" y="725" smooth="yes"/>
      <point x="413" y="744" smooth="yes"/>
      <point x="340" y="744" type="curve" smooth="yes"/>
      <point x="169" y="744" smooth="yes"/>
      <point x="61" y="601" smooth="yes"/>
      <point x="61" y="374" type="curve" smooth="yes"/>
      <point x="61" y="135" smooth="yes"/>
      <point x="168" y="-15" smooth="yes"/>
      <point x="339" y="-15" type="curve" smooth="yes"/>
      <point x="470" y="-15"/>
      <point x="553" y="66"/>
      <point x="588" y="229" type="curve"/>
      <point x="519" y="245" type="line"/>
      <point x="494" y="111" smooth="yes"/>
      <point x="436" y="46" smooth="yes"/>
      <point x="340" y="46" type="curve" smooth="yes"/>
      <point x="218" y="46" smooth="yes"/>
      <point x="141" y="174" smooth="yes"/>
      <point x="141" y="377" type="curve" smooth="yes"/>
      <point x="141" y="568" smooth="yes"/>
      <point x="216" y="683" smooth="yes"/>
    </contour>
  </outline>
</glyph>
<glyph name="D" format="1">
  <advance width="711"/>
  <unicode hex="0044"/>
  <outline>
    <contour>
      <point x="73" y="730" type="line" name="hr00"/>
      <point x="73" y="678" type="line"/>
      <point x="135" y="670" type="line"/>
      <point x="135" y="59" type="line"/>
      <point x="73" y="52" type="line"/>
      <point x="73" y="0" type="line"/>
      <point x="347" y="0" type="line" smooth="yes"/>
      <point x="546" y="0" smooth="yes"/>
      <point x="654" y="128" smooth="yes"/>
      <point x="654" y="365" type="curve" smooth="yes"/>
      <point x="654" y="602" smooth="yes"/>
      <point x="546" y="730" smooth="yes"/>
      <point x="347" y="730" type="curve" smooth="yes"/>
    </contour>
    <contour>
      <point x="215" y="675" type="line"/>
      <point x="351" y="675" type="line" smooth="yes"/>
      <point x="496" y="675" smooth="yes"/>
      <point x="575" y="565" smooth="yes"/>
      <point x="575" y="365" type="curve" smooth="yes"/>
      <point x="575" y="165" smooth="yes"/>
      <point x="496" y="55" smooth="yes"/>
      <point x="351" y="55" type="curve" smooth="yes"/>
      <point x="215" y="55" type="line"/>
    </contour>
  </outline>
</glyph>
<glyph name="E" format="1">
  <advance width="627"/>
  <unicode hex="0045"/>
  <outline>
    <contour>
      <point x="135" y="670" type="line" name="hr00"/>
      <point x="135" y="59" type="line"/>
      <point x="73" y="52" type="line"/>
      <point x="73" y="0" type="line"/>
      <point x="523" y="0" type="line" smooth="yes"/>
      <point x="543" y="0" smooth="yes"/>
      <point x="554" y="10" smooth="yes"/>
      <point x="554" y="31" type="curve" smooth="yes"/>
      <point x="554" y="160" type="line"/>
      <point x="502" y="160" type="line"/>
      <point x="494" y="54" type="line"/>
      <point x="215" y="54" type="line"/>
      <point x="215" y="343" type="line"/>
      <point x="499" y="343" type="line"/>
      <point x="499" y="398" type="line"/>
      <point x="215" y="398" type="line"/>
      <point x="215" y="675" type="line"/>
      <point x="485" y="675" type="line"/>
      <point x="492" y="566" type="line"/>
      <point x="544" y="566" type="line"/>
      <point x="544" y="699" type="line" smooth="yes"/>
      <point x="544" y="720" smooth="yes"/>
      <point x="534" y="730" smooth="yes"/>
      <point x="514" y="730" type="curve" smooth="yes"/>
      <point x="73" y="730" type="line"/>
      <point x="73" y="678" type="line"/>
    </contour>
  </outline>
</glyph>
<glyph name="F" format="1">
  <advance width="585"/>
  <unicode hex="0046"/>
  <outline>
    <contour>
      <point x="297" y="51" type="line" name="hr00"/>
      <point x="215" y="59" type="line"/>
      <point x="215" y="333" type="line"/>
      <point x="482" y="333" type="line"/>
      <point x="482" y="388" type="line"/>
      <point x="215" y="388" type="line"/>
      <point x="215" y="675" type="line"/>
      <point x="468" y="675" type="line"/>
      <point x="475" y="563" type="line"/>
      <point x="528" y="563" type="line"/>
      <point x="528" y="699" type="line" smooth="yes"/>
      <point x="528" y="719" smooth="yes"/>
      <point x="517" y="730" smooth="yes"/>
      <point x="497" y="730" type="curve" smooth="yes"/>
      <point x="73" y="730" type="line"/>
      <point x="73" y="678" type="line"/>
      <point x="135" y="670" type="line"/>
      <point x="135" y="59" type="line"/>
      <point x="73" y="52" type="line"/>
      <point x="73" y="0" type="line"/>
      <point x="297" y="0" type="line"/>
    </contour>
  </outline>
</glyph>
<glyph name="G" format="1">
  <advance width="637"/>
  <unicode hex="0047"/>
  <outline>
    <contour>
      <point x="344" y="-14" type="curve" smooth="yes" name="hr00"/>
      <point x="502" y="-14" smooth="yes"/>
      <point x="590" y="71" smooth="yes"/>
      <point x="590" y="224" type="curve" smooth="yes"/>
      <point x="590" y="346" type="line" smooth="yes"/>
      <point x="590" y="367" smooth="yes"/>
      <point x="579" y="376" smooth="yes"/>
      <point x="554" y="376" type="curve" smooth="yes"/>
      <point x="382" y="376" type="line"/>
      <point x="382" y="318" type="line"/>
      <point x="514" y="311" type="line"/>
      <point x="514" y="227" type="line" smooth="yes"/>
      <point x="514" y="114" smooth="yes"/>
      <point x="451" y="47" smooth="yes"/>
      <point x="344" y="47" type="curve" smooth="yes"/>
      <point x="217" y="47" smooth="yes"/>
      <point x="141" y="170" smooth="yes"/>
      <point x="141" y="377" type="curve" smooth="yes"/>
      <point x="141" y="569" smooth="yes"/>
      <point x="218" y="683" smooth="yes"/>
      <point x="349" y="683" type="curve" smooth="yes"/>
      <point x="413" y="683"/>
      <point x="486" y="663"/>
      <point x="553" y="627" type="curve"/>
      <point x="580" y="687" type="line"/>
      <point x="498" y="726" smooth="yes"/>
      <point x="424" y="744" smooth="yes"/>
      <point x="349" y="744" type="curve" smooth="yes"/>
      <point x="172" y="744" smooth="yes"/>
      <point x="61" y="602" smooth="yes"/>
      <point x="61" y="374" type="curve" smooth="yes"/>
      <point x="61" y="131" smooth="yes"/>
      <point x="167" y="-14" smooth="yes"/>
    </contour>
  </outline>
</glyph>
<glyph name="H" format="1">
  <advance width="775"/>
  <unicode hex="0048"/>
  <outline>
    <contour>
      <point x="701" y="678" type="line" name="hr00"/>
      <point x="701" y="730" type="line"/>
      <point x="590" y="730" type="line" smooth="yes"/>
      <point x="570" y="730" smooth="yes"/>
      <point x="559" y="719" smooth="yes"/>
      <point x="559" y="699" type="curve" smooth="yes"/>
      <point x="559" y="396" type="line"/>
      <point x="215" y="396" type="line"/>
      <point x="215" y="699" type="line" smooth="yes"/>
      <point x="215" y="719" smooth="yes"/>
      <point x="204" y="730" smooth="yes"/>
      <point x="184" y="730" type="curve" smooth="yes"/>
      <point x="73" y="730" type="line"/>
      <point x="73" y="678" type="line"/>
      <point x="135" y="670" type="line"/>
      <point x="135" y="60" type="line"/>
      <point x="73" y="52" type="line"/>
      <point x="73" y="0" type="line"/>
      <point x="184" y="0" type="line" smooth="yes"/>
      <point x="205" y="0" smooth="yes"/>
      <point x="215" y="10" smooth="yes"/>
      <point x="215" y="31" type="curve" smooth="yes"/>
      <point x="215" y="334" type="line"/>
      <point x="559" y="334" type="line"/>
      <point x="559" y="31" type="line" smooth="yes"/>
      <point x="559" y="11" smooth="yes"/>
      <point x="570" y="0" smooth="yes"/>
      <point x="590" y="0" type="curve" smooth="yes"/>
      <point x="701" y="0" type="line"/>
      <point x="701" y="52" type="line"/>
      <point x="639" y="60" type="line"/>
      <point x="639" y="672" type="line"/>
    </contour>
  </outline>
</glyph>
<glyph name="I" format="1">
  <advance width="350"/>
  <unicode hex="0049"/>
  <outline>
    <contour>
      <point x="277" y="678" type="line" name="hr00"/>
      <point x="277" y="730" type="line"/>
      <point x="73" y="730" type="line"/>
      <point x="73" y="678" type="line"/>
      <point x="135" y="670" type="line"/>
      <point x="135" y="59" type="line"/>
      <point x="73" y="52" type="line"/>
      <point x="73" y="0" type="line"/>
      <point x="277" y="0" type="line"/>
      <point x="277" y="52" type="line"/>
      <point x="215" y="59" type="line"/>
      <point x="215" y="670" type="line"/>
    </contour>
  </outline>
</glyph>
<glyph name="J" format="1">
  <advance width="506"/>
  <unicode hex="004A"/>
  <outline>
    <contour>
      <point x="411" y="699" type="line" name="hr00"/>
      <point x="411" y="720" smooth="yes"/>
      <point x="400" y="730" smooth="yes"/>
      <point x="378" y="730" type="curve" smooth="yes"/>
      <point x="237" y="730" type="line"/>
      <point x="237" y="680" type="line"/>
      <point x="332" y="672" type="line"/>
      <point x="332" y="207" type="line" smooth="yes"/>
      <point x="332" y="101" smooth="yes"/>
      <point x="292" y="47" smooth="yes"/>
      <point x="213" y="47" type="curve" smooth="yes"/>
      <point x="133" y="47" smooth="yes"/>
      <point x="91" y="102" smooth="yes"/>
      <point x="91" y="207" type="curve" smooth="yes"/>
      <point x="91" y="234" type="line"/>
      <point x="19" y="234" type="line"/>
      <point x="19" y="204" type="line" smooth="yes"/>
      <point x="19" y="61" smooth="yes"/>
      <point x="86" y="-14" smooth="yes"/>
      <point x="214" y="-14" type="curve" smooth="yes"/>
      <point x="345" y="-14" smooth="yes"/>
      <point x="411" y="60" smooth="yes"/>
      <point x="411" y="204" type="curve" smooth="yes"/>
    </contour>
  </outline>
</glyph>
<glyph name="K" format="1">
  <advance width="647"/>
  <unicode hex="004B"/>
  <outline>
    <contour>
      <point x="617" y="678" type="line" name="hr00"/>
      <point x="617" y="730" type="line"/>
      <point x="534" y="730" type="line" smooth="yes"/>
      <point x="517" y="730" smooth="yes"/>
      <point x="506" y="724" smooth="yes"/>
      <point x="496" y="709" type="curve" smooth="yes"/>
      <point x="298" y="396" type="line"/>
      <point x="215" y="396" type="line"/>
      <point x="215" y="699" type="line" smooth="yes"/>
      <point x="215" y="719" smooth="yes"/>
      <point x="204" y="730" smooth="yes"/>
      <point x="184" y="730" type="curve" smooth="yes"/>
      <point x="73" y="730" type="line"/>
      <point x="73" y="678" type="line"/>
      <point x="135" y="671" type="line"/>
      <point x="135" y="57" type="line"/>
      <point x="73" y="51" type="line"/>
      <point x="73" y="0" type="line"/>
      <point x="184" y="0" type="line" smooth="yes"/>
      <point x="204" y="0" smooth="yes"/>
      <point x="215" y="10" smooth="yes"/>
      <point x="215" y="31" type="curve" smooth="yes"/>
      <point x="215" y="343" type="line"/>
      <point x="294" y="343" type="line"/>
      <point x="505" y="20" type="line" smooth="yes"/>
      <point x="513" y="6" smooth="yes"/>
      <point x="525" y="0" smooth="yes"/>
      <point x="542" y="0" type="curve" smooth="yes"/>
      <point x="626" y="0" type="line"/>
      <point x="626" y="51" type="line"/>
      <point x="571" y="59" type="line"/>
      <point x="365" y="368" type="line"/>
      <point x="562" y="671" type="line"/>
    </contour>
  </outline>
</glyph>
<glyph name="L" format="1">
  <advance width="514"/>
  <unicode hex="004C"/>
  <outline>
    <contour>
      <point x="215" y="670" type="line" name="hr00"/>
      <point x="297" y="678" type="line"/>
      <point x="297" y="730" type="line"/>
      <point x="73" y="730" type="line"/>
      <point x="73" y="678" type="line"/>
      <point x="135" y="670" type="line"/>
      <point x="135" y="59" type="line"/>
      <point x="73" y="52" type="line"/>
      <point x="73" y="0" type="line"/>
      <point x="473" y="0" type="line" smooth="yes"/>
      <point x="493" y="0" smooth="yes"/>
      <point x="504" y="10" smooth="yes"/>
      <point x="504" y="31" type="curve" smooth="yes"/>
      <point x="504" y="170" type="line"/>
      <point x="452" y="170" type="line"/>
      <point x="444" y="54" type="line"/>
      <point x="215" y="54" type="line"/>
    </contour>
  </outline>
</glyph>
<glyph name="M" format="1">
  <advance width="987"/>
  <unicode hex="004D"/>
  <outline>
    <contour>
      <point x="862" y="678" type="line" name="hr00"/>
      <point x="862" y="730" type="line"/>
      <point x="715" y="730" type="line" smooth="yes"/>
      <point x="698" y="730" smooth="yes"/>
      <point x="686" y="722" smooth="yes"/>
      <point x="680" y="705" type="curve" smooth="yes"/>
      <point x="487" y="199" type="line"/>
      <point x="306" y="705" type="line" smooth="yes"/>
      <point x="299" y="722" smooth="yes"/>
      <point x="288" y="730" smooth="yes"/>
      <point x="271" y="730" type="curve" smooth="yes"/>
      <point x="124" y="730" type="line"/>
      <point x="124" y="678" type="line"/>
      <point x="180" y="670" type="line"/>
      <point x="144" y="59" type="line"/>
      <point x="76" y="52" type="line"/>
      <point x="76" y="0" type="line"/>
      <point x="190" y="0" type="line" smooth="yes"/>
      <point x="209" y="0" smooth="yes"/>
      <point x="221" y="10" smooth="yes"/>
      <point x="222" y="29" type="curve" smooth="yes"/>
      <point x="259" y="621" type="line"/>
      <point x="451" y="103" type="line"/>
      <point x="524" y="103" type="line"/>
      <point x="727" y="621" type="line"/>
      <point x="765" y="29" type="line" smooth="yes"/>
      <point x="766" y="10" smooth="yes"/>
      <point x="777" y="0" smooth="yes"/>
      <point x="797" y="0" type="curve" smooth="yes"/>
      <point x="911" y="0" type="line"/>
      <point x="911" y="52" type="line"/>
      <point x="843" y="59" type="line"/>
      <point x="806" y="670" type="line"/>
    </contour>
  </outline>
</glyph>
<glyph name="N" format="1">
  <advance width="793"/>
  <unicode hex="004E"/>
  <outline>
    <contour>
      <point x="730" y="678" type="line" name="hr00"/>
      <point x="730" y="730" type="line"/>
      <point x="618" y="730" type="line" smooth="yes"/>
      <point x="599" y="730" smooth="yes"/>
      <point x="588" y="719" smooth="yes"/>
      <point x="588" y="699" type="curve" smooth="yes"/>
      <point x="588" y="126" type="line"/>
      <point x="238" y="710" type="line" smooth="yes"/>
      <point x="229" y="724" smooth="yes"/>
      <point x="218" y="730" smooth="yes"/>
      <point x="201" y="730" type="curve" smooth="yes"/>
      <point x="73" y="730" type="line"/>
      <point x="73" y="678" type="line"/>
      <point x="135" y="670" type="line"/>
      <point x="135" y="59" type="line"/>
      <point x="73" y="52" type="line"/>
      <point x="73" y="0" type="line"/>
      <point x="184" y="0" type="line" smooth="yes"/>
      <point x="204" y="0" smooth="yes"/>
      <point x="215" y="10" smooth="yes"/>
      <point x="215" y="31" type="curve" smooth="yes"/>
      <point x="215" y="603" type="line"/>
      <point x="565" y="20" type="line" smooth="yes"/>
      <point x="573" y="6" smooth="yes"/>
      <point x="584" y="0" smooth="yes"/>
      <point x="602" y="0" type="curve" smooth="yes"/>
      <point x="668" y="0" type="line"/>
      <point x="668" y="670" type="line"/>
    </contour>
  </outline>
</glyph>
<glyph name="O" format="1">
  <advance width="707"/>
  <unicode hex="004F"/>
  <outline>
    <contour>
      <point x="353" y="744" type="curve" smooth="yes" name="hr00"/>
      <point x="169" y="744" smooth="yes"/>
      <point x="62" y="605" smooth="yes"/>
      <point x="62" y="365" type="curve" smooth="yes"/>
      <point x="62" y="125" smooth="yes"/>
      <point x="169" y="-14" smooth="yes"/>
      <point x="353" y="-14" type="curve" smooth="yes"/>
      <point x="539" y="-14" smooth="yes"/>
      <point x="646" y="125" smooth="yes"/>
      <point x="646" y="365" type="curve" smooth="yes"/>
      <point x="646" y="605" smooth="yes"/>
      <point x="539" y="744" smooth="yes"/>
    </contour>
    <contour>
      <point x="353" y="683" type="curve" smooth="yes"/>
      <point x="487" y="683" smooth="yes"/>
      <point x="566" y="566" smooth="yes"/>
      <point x="566" y="365" type="curve" smooth="yes"/>
      <point x="566" y="164" smooth="yes"/>
      <point x="487" y="47" smooth="yes"/>
      <point x="353" y="47" type="curve" smooth="yes"/>
      <point x="219" y="47" smooth="yes"/>
      <point x="141" y="164" smooth="yes"/>
      <point x="141" y="365" type="curve" smooth="yes"/>
      <point x="141" y="565" smooth="yes"/>
      <point x="219" y="683" smooth="yes"/>
    </contour>
  </outline>
</glyph>
<glyph name="P" format="1">
  <advance width="619"/>
  <unicode hex="0050"/>
  <outline>
    <contour>
      <point x="278" y="337" type="line" name="hr00"/>
      <point x="278" y="274" type="line"/>
      <point x="337" y="274" type="line" smooth="yes"/>
      <point x="490" y="274" smooth="yes"/>
      <point x="571" y="354" smooth="yes"/>
      <point x="571" y="504" type="curve" smooth="yes"/>
      <point x="571" y="652" smooth="yes"/>
      <point x="491" y="730" smooth="yes"/>
      <point x="337" y="730" type="curve" smooth="yes"/>
      <point x="73" y="730" type="line"/>
      <point x="73" y="678" type="line"/>
      <point x="135" y="670" type="line"/>
      <point x="135" y="59" type="line"/>
      <point x="73" y="52" type="line"/>
      <point x="73" y="0" type="line"/>
      <point x="302" y="0" type="line"/>
      <point x="302" y="51" type="line"/>
      <point x="215" y="59" type="line"/>
      <point x="215" y="675" type="line"/>
      <point x="337" y="675" type="line" smooth="yes"/>
      <point x="441" y="675" smooth="yes"/>
      <point x="493" y="618" smooth="yes"/>
      <point x="493" y="504" type="curve" smooth="yes"/>
      <point x="493" y="393" smooth="yes"/>
      <point x="441" y="337" smooth="yes"/>
      <point x="337" y="337" type="curve" smooth="yes"/>
    </contour>
  </outline>
</glyph>
<glyph name="Q" format="1">
  <advance width="710"/>
  <unicode hex="0051"/>
  <outline>
    <contour>
      <point x="325" y="7" type="line" name="hr00"/>
      <point x="424" y="-194" type="line"/>
      <point x="502" y="-194" type="line"/>
      <point x="400" y="10" type="line"/>
    </contour>
    <component  base="O"/>
  </outline>
</glyph>
<glyph name="R" format="1">
  <advance width="667"/>
  <unicode hex="0052"/>
  <outline>
    <contour>
      <point x="273" y="357" type="line" name="hr00"/>
      <point x="273" y="302" type="line"/>
      <point x="370" y="302" smooth="yes"/>
      <point x="396" y="289" smooth="yes"/>
      <point x="422" y="228" type="curve" smooth="yes"/>
      <point x="509" y="23" type="line" smooth="yes"/>
      <point x="516" y="7" smooth="yes"/>
      <point x="527" y="0" smooth="yes"/>
      <point x="545" y="0" type="curve" smooth="yes"/>
      <point x="642" y="0" type="line"/>
      <point x="642" y="52" type="line"/>
      <point x="579" y="59" type="line"/>
      <point x="501" y="239" type="line" smooth="yes"/>
      <point x="485" y="274"/>
      <point x="461" y="299"/>
      <point x="429" y="314" type="curve"/>
      <point x="519" y="340" smooth="yes"/>
      <point x="566" y="409" smooth="yes"/>
      <point x="566" y="514" type="curve" smooth="yes"/>
      <point x="566" y="653" smooth="yes"/>
      <point x="483" y="730" smooth="yes"/>
      <point x="332" y="730" type="curve" smooth="yes"/>
      <point x="73" y="730" type="line"/>
      <point x="73" y="678" type="line"/>
      <point x="135" y="670" type="line"/>
      <point x="135" y="59" type="line"/>
      <point x="73" y="52" type="line"/>
      <point x="73" y="0" type="line"/>
      <point x="302" y="0" type="line"/>
      <point x="302" y="52" type="line"/>
      <point x="215" y="59" type="line"/>
      <point x="215" y="675" type="line"/>
      <point x="332" y="675" type="line" smooth="yes"/>
      <point x="434" y="675" smooth="yes"/>
      <point x="488" y="619" smooth="yes"/>
      <point x="488" y="514" type="curve" smooth="yes"/>
      <point x="488" y="411" smooth="yes"/>
      <point x="434" y="357" smooth="yes"/>
      <point x="332" y="357" type="curve" smooth="yes"/>
    </contour>
  </outline>
</glyph>
<glyph name="S" format="1">
  <advance width="545"/>
  <unicode hex="0053"/>
  <outline>
    <contour>
      <point x="486" y="695" type="line" name="hr00"/>
      <point x="411" y="729" smooth="yes"/>
      <point x="347" y="744" smooth="yes"/>
      <point x="281" y="744" type="curve" smooth="yes"/>
      <point x="146" y="744" smooth="yes"/>
      <point x="60" y="672" smooth="yes"/>
      <point x="60" y="559" type="curve" smooth="yes"/>
      <point x="60" y="309" smooth="yes"/>
      <point x="427" y="362" smooth="yes"/>
      <point x="427" y="180" type="curve" smooth="yes"/>
      <point x="427" y="95" smooth="yes"/>
      <point x="372" y="47" smooth="yes"/>
      <point x="276" y="47" type="curve" smooth="yes"/>
      <point x="191" y="47"/>
      <point x="134" y="101"/>
      <point x="108" y="206" type="curve"/>
      <point x="38" y="189" type="line"/>
      <point x="66" y="60" smooth="yes"/>
      <point x="153" y="-14" smooth="yes"/>
      <point x="276" y="-14" type="curve" smooth="yes"/>
      <point x="418" y="-14" smooth="yes"/>
      <point x="507" y="61" smooth="yes"/>
      <point x="507" y="180" type="curve" smooth="yes"/>
      <point x="507" y="424" smooth="yes"/>
      <point x="140" y="369" smooth="yes"/>
      <point x="140" y="559" type="curve" smooth="yes"/>
      <point x="140" y="635" smooth="yes"/>
      <point x="194" y="683" smooth="yes"/>
      <point x="281" y="683" type="curve" smooth="yes"/>
      <point x="337" y="683"/>
      <point x="397" y="667"/>
      <point x="461" y="635" type="curve"/>
    </contour>
  </outline>
</glyph>
<glyph name="T" format="1">
  <advance width="558"/>
  <unicode hex="0054"/>
  <outline>
    <contour>
      <point x="50" y="730" type="line" name="hr00"/>
      <point x="29" y="730" smooth="yes"/>
      <point x="19" y="719" smooth="yes"/>
      <point x="19" y="699" type="curve" smooth="yes"/>
      <point x="19" y="563" type="line"/>
      <point x="71" y="563" type="line"/>
      <point x="79" y="675" type="line"/>
      <point x="239" y="675" type="line"/>
      <point x="239" y="59" type="line"/>
      <point x="149" y="52" type="line"/>
      <point x="149" y="0" type="line"/>
      <point x="409" y="0" type="line"/>
      <point x="409" y="52" type="line"/>
      <point x="319" y="59" type="line"/>
      <point x="319" y="675" type="line"/>
      <point x="479" y="675" type="line"/>
      <point x="487" y="563" type="line"/>
      <point x="539" y="563" type="line"/>
      <point x="539" y="699" type="line" smooth="yes"/>
      <point x="539" y="719" smooth="yes"/>
      <point x="528" y="730" smooth="yes"/>
      <point x="508" y="730" type="curve" smooth="yes"/>
    </contour>
  </outline>
</glyph>
<glyph name="U" format="1">
  <advance width="750"/>
  <unicode hex="0055"/>
  <outline>
    <contour>
      <point x="697" y="678" type="line" name="hr00"/>
      <point x="697" y="730" type="line"/>
      <point x="588" y="730" type="line" smooth="yes"/>
      <point x="567" y="730" smooth="yes"/>
      <point x="555" y="719" smooth="yes"/>
      <point x="555" y="699" type="curve" smooth="yes"/>
      <point x="555" y="269" type="line" smooth="yes"/>
      <point x="555" y="123" smooth="yes"/>
      <point x="494" y="49" smooth="yes"/>
      <point x="374" y="49" type="curve" smooth="yes"/>
      <point x="256" y="49" smooth="yes"/>
      <point x="195" y="123" smooth="yes"/>
      <point x="195" y="269" type="curve" smooth="yes"/>
      <point x="195" y="699" type="line" smooth="yes"/>
      <point x="195" y="719" smooth="yes"/>
      <point x="184" y="730" smooth="yes"/>
      <point x="162" y="730" type="curve" smooth="yes"/>
      <point x="53" y="730" type="line"/>
      <point x="53" y="678" type="line"/>
      <point x="115" y="670" type="line"/>
      <point x="115" y="266" type="line" smooth="yes"/>
      <point x="115" y="80" smooth="yes"/>
      <point x="202" y="-14" smooth="yes"/>
      <point x="374" y="-14" type="curve" smooth="yes"/>
      <point x="548" y="-14" smooth="yes"/>
      <point x="635" y="79" smooth="yes"/>
      <point x="635" y="266" type="curve" smooth="yes"/>
      <point x="635" y="670" type="line"/>
    </contour>
  </outline>
</glyph>
<glyph name="V" format="1">
  <advance width="617"/>
  <unicode hex="0056"/>
  <outline>
    <contour>
      <point x="256" y="0" type="line" name="hr00"/>
      <point x="360" y="0" type="line"/>
      <point x="573" y="670" type="line"/>
      <point x="620" y="678" type="line"/>
      <point x="620" y="730" type="line"/>
      <point x="536" y="730" type="line" smooth="yes"/>
      <point x="518" y="730" smooth="yes"/>
      <point x="507" y="722" smooth="yes"/>
      <point x="502" y="704" type="curve" smooth="yes"/>
      <point x="310" y="81" type="line"/>
      <point x="306" y="81" type="line"/>
      <point x="115" y="704" type="line" smooth="yes"/>
      <point x="109" y="722" smooth="yes"/>
      <point x="99" y="730" smooth="yes"/>
      <point x="81" y="730" type="curve" smooth="yes"/>
      <point x="-3" y="730" type="line"/>
      <point x="-3" y="678" type="line"/>
      <point x="43" y="670" type="line" smooth="yes"/>
    </contour>
  </outline>
</glyph>
<glyph name="W" format="1">
  <advance width="894"/>
  <unicode hex="0057"/>
  <outline>
    <contour>
      <point x="652" y="87" type="line" name="hr00"/>
      <point x="501" y="704" type="line" smooth="yes"/>
      <point x="497" y="722" smooth="yes"/>
      <point x="486" y="730" smooth="yes"/>
      <point x="467" y="730" type="curve" smooth="yes"/>
      <point x="427" y="730" type="line" smooth="yes"/>
      <point x="407" y="730" smooth="yes"/>
      <point x="396" y="722" smooth="yes"/>
      <point x="393" y="704" type="curve" smooth="yes"/>
      <point x="243" y="87" type="line"/>
      <point x="238" y="87" type="line"/>
      <point x="115" y="704" type="line" smooth="yes"/>
      <point x="111" y="722" smooth="yes"/>
      <point x="100" y="730" smooth="yes"/>
      <point x="81" y="730" type="curve" smooth="yes"/>
      <point x="-3" y="730" type="line"/>
      <point x="-3" y="678" type="line"/>
      <point x="43" y="670" type="line"/>
      <point x="189" y="0" type="line"/>
      <point x="289" y="0" type="line"/>
      <point x="447" y="663" type="line"/>
      <point x="605" y="0" type="line"/>
      <point x="705" y="0" type="line"/>
      <point x="851" y="670" type="line"/>
      <point x="897" y="678" type="line"/>
      <point x="897" y="730" type="line"/>
      <point x="814" y="730" type="line" smooth="yes"/>
      <point x="794" y="730" smooth="yes"/>
      <point x="782" y="721" smooth="yes"/>
      <point x="779" y="704" type="curve" smooth="yes"/>
      <point x="656" y="87" type="line"/>
    </contour>
  </outline>
</glyph>
<glyph name="X" format="1">
  <advance width="673"/>
  <unicode hex="0058"/>
  <outline>
    <contour>
      <point x="179" y="709" type="line" smooth="yes" name="hr00"/>
      <point x="170" y="724" smooth="yes"/>
      <point x="159" y="730" smooth="yes"/>
      <point x="142" y="730" type="curve" smooth="yes"/>
      <point x="50" y="730" type="line"/>
      <point x="50" y="679" type="line"/>
      <point x="109" y="671" type="line"/>
      <point x="289" y="379" type="line"/>
      <point x="93" y="59" type="line"/>
      <point x="33" y="52" type="line"/>
      <point x="33" y="0" type="line"/>
      <point x="120" y="0" type="line" smooth="yes"/>
      <point x="137" y="0" smooth="yes"/>
      <point x="148" y="6" smooth="yes"/>
      <point x="157" y="21" type="curve" smooth="yes"/>
      <point x="332" y="309" type="line"/>
      <point x="511" y="20" type="line" smooth="yes"/>
      <point x="519" y="6" smooth="yes"/>
      <point x="531" y="0" smooth="yes"/>
      <point x="548" y="0" type="curve" smooth="yes"/>
      <point x="640" y="0" type="line"/>
      <point x="640" y="52" type="line"/>
      <point x="581" y="59" type="line"/>
      <point x="384" y="378" type="line"/>
      <point x="564" y="671" type="line"/>
      <point x="623" y="679" type="line"/>
      <point x="623" y="730" type="line"/>
      <point x="537" y="730" type="line" smooth="yes"/>
      <point x="520" y="730" smooth="yes"/>
      <point x="510" y="724" smooth="yes"/>
      <point x="501" y="709" type="curve" smooth="yes"/>
      <point x="341" y="447" type="line"/>
    </contour>
  </outline>
</glyph>
<glyph name="Y" format="1">
  <advance width="548"/>
  <unicode hex="0059"/>
  <outline>
    <contour>
      <point x="495" y="670" type="line" name="hr00"/>
      <point x="550" y="678" type="line"/>
      <point x="550" y="730" type="line"/>
      <point x="459" y="730" type="line" smooth="yes"/>
      <point x="441" y="730" smooth="yes"/>
      <point x="429" y="723" smooth="yes"/>
      <point x="422" y="707" type="curve" smooth="yes"/>
      <point x="275" y="347" type="line"/>
      <point x="126" y="707" type="line" smooth="yes"/>
      <point x="118" y="723" smooth="yes"/>
      <point x="107" y="730" smooth="yes"/>
      <point x="89" y="730" type="curve" smooth="yes"/>
      <point x="-3" y="730" type="line"/>
      <point x="-3" y="678" type="line"/>
      <point x="52" y="670" type="line"/>
      <point x="235" y="259" type="line"/>
      <point x="235" y="59" type="line"/>
      <point x="145" y="52" type="line"/>
      <point x="145" y="0" type="line"/>
      <point x="405" y="0" type="line"/>
      <point x="405" y="52" type="line"/>
      <point x="315" y="59" type="line"/>
      <point x="315" y="262" type="line"/>
    </contour>
  </outline>
</glyph>
<glyph name="Z" format="1">
  <advance width="601"/>
  <unicode hex="005A"/>
  <outline>
    <contour>
      <point x="57" y="0" type="line" name="hr00"/>
      <point x="513" y="0" type="line" smooth="yes"/>
      <point x="533" y="0" smooth="yes"/>
      <point x="544" y="10" smooth="yes"/>
      <point x="544" y="31" type="curve" smooth="yes"/>
      <point x="544" y="167" type="line"/>
      <point x="491" y="167" type="line"/>
      <point x="484" y="55" type="line"/>
      <point x="146" y="55" type="line"/>
      <point x="544" y="682" type="line"/>
      <point x="544" y="730" type="line"/>
      <point x="108" y="730" type="line" smooth="yes"/>
      <point x="87" y="730" smooth="yes"/>
      <point x="77" y="719" smooth="yes"/>
      <point x="77" y="699" type="curve" smooth="yes"/>
      <point x="77" y="563" type="line"/>
      <point x="129" y="563" type="line"/>
      <point x="137" y="675" type="line"/>
      <point x="455" y="675" type="line"/>
      <point x="57" y="48" type="line"/>
    </contour>
  </outline>
</glyph>
<glyph name="bracketleft" format="1">
  <advance width="348"/>
  <unicode hex="005B"/>
  <outline>
    <contour>
      <point x="119" y="-66" type="line" name="hr00"/>
      <point x="320" y="-66" type="line"/>
      <point x="320" y="-11" type="line"/>
      <point x="199" y="-11" type="line"/>
      <point x="199" y="740" type="line"/>
      <point x="320" y="740" type="line"/>
      <point x="320" y="795" type="line"/>
      <point x="119" y="795" type="line"/>
    </contour>
  </outline>
</glyph>
<glyph name="asciicircum" format="1">
  <advance width="584"/>
  <unicode hex="005E"/>
  <outline>
    <contour>
      <point x="482" y="316" type="line" name="hr00"/>
      <point x="333" y="618" type="line"/>
      <point x="251" y="618" type="line"/>
      <point x="103" y="316" type="line"/>
      <point x="174" y="316" type="line"/>
      <point x="292" y="561" type="line"/>
      <point x="410" y="316" type="line"/>
    </contour>
  </outline>
</glyph>
<glyph name="underscore" format="1">
  <advance width="573"/>
  <unicode hex="005F"/>
  <outline>
    <contour>
      <point x="506" y="-62" type="line" name="hr00"/>
      <point x="506" y="0" type="line"/>
      <point x="66" y="0" type="line"/>
      <point x="66" y="-62" type="line"/>
    </contour>
  </outline>
</glyph>
<glyph name="grave" format="1">
  <advance width="314"/>
  <unicode hex="0060"/>
  <outline>
    <contour>
      <point x="38" y="742" type="line" name="hr00"/>
      <point x="77" y="809" type="line"/>
      <point x="268" y="683" type="line"/>
      <point x="241" y="637" type="line"/>
    </contour>
  </outline>
</glyph>
<glyph name="a" format="1">
  <advance width="612"/>
  <unicode hex="0061"/>
  <outline>
    <contour>
      <point x="199" y="-14" type="curve" smooth="yes" name="hr00"/>
      <point x="286" y="-14"/>
      <point x="360" y="33"/>
      <point x="403" y="117" type="curve"/>
      <point x="403" y="99" type="line" smooth="yes"/>
      <point x="403" y="22" smooth="yes"/>
      <point x="434" y="-14" smooth="yes"/>
      <point x="498" y="-14" type="curve" smooth="yes"/>
      <point x="524" y="-14"/>
      <point x="547" y="-10"/>
      <point x="574" y="-1" type="curve"/>
      <point x="565" y="59" type="line"/>
      <point x="552" y="55" smooth="yes"/>
      <point x="537" y="53" smooth="yes"/>
      <point x="524" y="53" type="curve" smooth="yes"/>
      <point x="497" y="53" smooth="yes"/>
      <point x="482" y="73" smooth="yes"/>
      <point x="482" y="108" type="curve" smooth="yes"/>
      <point x="482" y="382" type="line" smooth="yes"/>
      <point x="482" y="521" smooth="yes"/>
      <point x="419" y="586" smooth="yes"/>
      <point x="286" y="586" type="curve" smooth="yes"/>
      <point x="229" y="586"/>
      <point x="152" y="567"/>
      <point x="90" y="538" type="curve"/>
      <point x="116" y="478" type="line"/>
      <point x="168" y="508" smooth="yes"/>
      <point x="230" y="526" smooth="yes"/>
      <point x="279" y="526" type="curve" smooth="yes"/>
      <point x="367" y="526" smooth="yes"/>
      <point x="403" y="481" smooth="yes"/>
      <point x="403" y="372" type="curve" smooth="yes"/>
      <point x="403" y="334" type="line"/>
      <point x="160" y="334" smooth="yes"/>
      <point x="52" y="274" smooth="yes"/>
      <point x="52" y="139" type="curve" smooth="yes"/>
      <point x="52" y="45" smooth="yes"/>
      <point x="109" y="-14" smooth="yes"/>
    </contour>
    <contour>
      <point x="224" y="47" type="curve" smooth="yes"/>
      <point x="164" y="47" smooth="yes"/>
      <point x="127" y="84" smooth="yes"/>
      <point x="127" y="144" type="curve" smooth="yes"/>
      <point x="127" y="237"/>
      <point x="216" y="282"/>
      <point x="403" y="283" type="curve"/>
      <point x="403" y="142" smooth="yes"/>
      <point x="331" y="47" smooth="yes"/>
    </contour>
  </outline>
</glyph>
<glyph name="b" format="1">
  <advance width="626"/>
  <unicode hex="0062"/>
  <outline>
    <contour>
      <point x="169" y="739" type="line" smooth="yes" name="hr00"/>
      <point x="169" y="760" smooth="yes"/>
      <point x="159" y="770" smooth="yes"/>
      <point x="139" y="770" type="curve" smooth="yes"/>
      <point x="28" y="770" type="line"/>
      <point x="28" y="718" type="line"/>
      <point x="90" y="710" type="line"/>
      <point x="90" y="235" type="line" smooth="yes"/>
      <point x="90" y="74" smooth="yes"/>
      <point x="169" y="-14" smooth="yes"/>
      <point x="314" y="-14" type="curve" smooth="yes"/>
      <point x="461" y="-14" smooth="yes"/>
      <point x="565" y="110" smooth="yes"/>
      <point x="565" y="286" type="curve" smooth="yes"/>
      <point x="565" y="465" smooth="yes"/>
      <point x="480" y="586" smooth="yes"/>
      <point x="356" y="586" type="curve" smooth="yes"/>
      <point x="282" y="586"/>
      <point x="220" y="555"/>
      <point x="169" y="493" type="curve"/>
    </contour>
    <contour>
      <point x="169" y="433" type="line"/>
      <point x="216" y="496" smooth="yes"/>
      <point x="266" y="526" smooth="yes"/>
      <point x="326" y="526" type="curve" smooth="yes"/>
      <point x="428" y="526" smooth="yes"/>
      <point x="486" y="439" smooth="yes"/>
      <point x="486" y="286" type="curve" smooth="yes"/>
      <point x="486" y="137" smooth="yes"/>
      <point x="422" y="47" smooth="yes"/>
      <point x="316" y="47" type="curve" smooth="yes"/>
      <point x="221" y="47" smooth="yes"/>
      <point x="169" y="114" smooth="yes"/>
      <point x="169" y="237" type="curve" smooth="yes"/>
    </contour>
  </outline>
</glyph>
<glyph name="c" format="1">
  <advance width="541"/>
  <unicode hex="0063"/>
  <outline>
    <contour>
      <point x="439" y="151" type="line" name="hr00"/>
      <point x="413" y="83" smooth="yes"/>
      <point x="364" y="47" smooth="yes"/>
      <point x="298" y="47" type="curve" smooth="yes"/>
      <point x="200" y="47" smooth="yes"/>
      <point x="140" y="140" smooth="yes"/>
      <point x="140" y="290" type="curve" smooth="yes"/>
      <point x="140" y="438" smooth="yes"/>
      <point x="203" y="525" smooth="yes"/>
      <point x="310" y="525" type="curve" smooth="yes"/>
      <point x="367" y="525"/>
      <point x="409" y="513"/>
      <point x="465" y="482" type="curve"/>
      <point x="491" y="540" type="line"/>
      <point x="430" y="571" smooth="yes"/>
      <point x="371" y="586" smooth="yes"/>
      <point x="310" y="586" type="curve" smooth="yes"/>
      <point x="157" y="586" smooth="yes"/>
      <point x="62" y="472" smooth="yes"/>
      <point x="62" y="290" type="curve" smooth="yes"/>
      <point x="62" y="106" smooth="yes"/>
      <point x="155" y="-14" smooth="yes"/>
      <point x="298" y="-14" type="curve" smooth="yes"/>
      <point x="397" y="-14"/>
      <point x="467" y="35"/>
      <point x="503" y="130" type="curve"/>
    </contour>
  </outline>
</glyph>
<glyph name="e" format="1">
  <advance width="591"/>
  <unicode hex="0065"/>
  <outline>
    <contour>
      <point x="534" y="269" type="line" name="hr00"/>
      <point x="534" y="318" type="line" smooth="yes"/>
      <point x="534" y="483" smooth="yes"/>
      <point x="446" y="586" smooth="yes"/>
      <point x="306" y="586" type="curve" smooth="yes"/>
      <point x="153" y="586" smooth="yes"/>
      <point x="62" y="471" smooth="yes"/>
      <point x="62" y="277" type="curve" smooth="yes"/>
      <point x="62" y="102" smooth="yes"/>
      <point x="162" y="-14" smooth="yes"/>
      <point x="315" y="-14" type="curve" smooth="yes"/>
      <point x="374" y="-14"/>
      <point x="440" y="3"/>
      <point x="506" y="34" type="curve"/>
      <point x="481" y="92" type="line"/>
      <point x="420" y="61" smooth="yes"/>
      <point x="369" y="47" smooth="yes"/>
      <point x="318" y="47" type="curve" smooth="yes"/>
      <point x="209" y="47"/>
      <point x="141" y="132"/>
      <point x="140" y="269" type="curve"/>
    </contour>
    <contour>
      <point x="306" y="525" type="curve" smooth="yes"/>
      <point x="397" y="525"/>
      <point x="455" y="447"/>
      <point x="455" y="325" type="curve"/>
      <point x="142" y="325" type="line"/>
      <point x="152" y="454" smooth="yes"/>
      <point x="211" y="525" smooth="yes"/>
    </contour>
  </outline>
</glyph>
<glyph name="f" format="1">
  <advance width="358"/>
  <unicode hex="0066"/>
  <outline>
    <contour>
      <point x="342" y="517" type="line" name="hr00"/>
      <point x="342" y="572" type="line"/>
      <point x="214" y="572" type="line"/>
      <point x="220" y="675" smooth="yes"/>
      <point x="262" y="724" smooth="yes"/>
      <point x="345" y="724" type="curve" smooth="yes"/>
      <point x="355" y="724"/>
      <point x="366" y="723"/>
      <point x="377" y="721" type="curve"/>
      <point x="385" y="782" type="line"/>
      <point x="371" y="784" smooth="yes"/>
      <point x="357" y="785" smooth="yes"/>
      <point x="342" y="785" type="curve" smooth="yes"/>
      <point x="209" y="785"/>
      <point x="143" y="717"/>
      <point x="136" y="572" type="curve"/>
      <point x="61" y="572" type="line"/>
      <point x="61" y="517" type="line"/>
      <point x="136" y="517" type="line"/>
      <point x="136" y="59" type="line"/>
      <point x="61" y="52" type="line"/>
      <point x="61" y="0" type="line"/>
      <point x="322" y="0" type="line"/>
      <point x="322" y="52" type="line"/>
      <point x="214" y="59" type="line"/>
      <point x="214" y="517" type="line"/>
    </contour>
  </outline>
</glyph>
<glyph name="g" format="1">
  <advance width="577"/>
  <unicode hex="0067"/>
  <outline>
    <contour>
      <point x="298" y="586" type="curve" smooth="yes"/>
      <point x="163" y="586" smooth="yes"/>
      <point x="89" y="514" smooth="yes"/>
      <point x="89" y="381" type="curve" smooth="yes"/>
      <point x="89" y="319"/>
      <point x="109" y="268"/>
      <point x="147" y="231" type="curve"/>
      <point x="99" y="185" type="line" smooth="yes"/>
      <point x="63" y="149" smooth="yes"/>
      <point x="45" y="117" smooth="yes"/>
      <point x="45" y="87" type="curve" smooth="yes" name="hr01"/>
      <point x="45" y="52"/>
      <point x="63" y="27"/>
      <point x="96" y="15" type="curve"/>
      <point x="67" y="-9" smooth="yes"/>
      <point x="45" y="-55" smooth="yes"/>
      <point x="45" y="-93" type="curve" smooth="yes"/>
      <point x="45" y="-188" smooth="yes"/>
      <point x="134" y="-241" smooth="yes"/>
      <point x="294" y="-241" type="curve" smooth="yes"/>
      <point x="456" y="-241" smooth="yes"/>
      <point x="546" y="-182" smooth="yes"/>
      <point x="546" y="-75" type="curve" smooth="yes"/>
      <point x="546" y="9" smooth="yes"/>
      <point x="478" y="65" smooth="yes"/>
      <point x="377" y="65" type="curve" smooth="yes"/>
      <point x="159" y="65" type="line" smooth="yes"/>
      <point x="132" y="65" smooth="yes"/>
      <point x="117" y="77" smooth="yes"/>
      <point x="117" y="98" type="curve" smooth="yes"/>
      <point x="117" y="114" smooth="yes"/>
      <point x="125" y="130" smooth="yes"/>
      <point x="140" y="145" type="curve" smooth="yes"/>
      <point x="193" y="199" type="line"/>
      <point x="224" y="184" smooth="yes"/>
      <point x="259" y="176" smooth="yes"/>
      <point x="298" y="176" type="curve" smooth="yes"/>
      <point x="434" y="176" smooth="yes"/>
      <point x="507" y="248" smooth="yes"/>
      <point x="507" y="381" type="curve" smooth="yes" name="hr02"/>
      <point x="507" y="433"/>
      <point x="491" y="481"/>
      <point x="461" y="517" type="curve"/>
      <point x="539" y="517" type="line"/>
      <point x="539" y="572" type="line"/>
      <point x="381" y="572" type="line"/>
      <point x="355" y="581" smooth="yes"/>
      <point x="327" y="586" smooth="yes"/>
    </contour>
    <contour>
      <point x="298" y="529" type="curve" smooth="yes"/>
      <point x="380" y="529" smooth="yes"/>
      <point x="433" y="471" smooth="yes"/>
      <point x="433" y="381" type="curve" smooth="yes"/>
      <point x="433" y="283" smooth="yes"/>
      <point x="385" y="230" smooth="yes"/>
      <point x="298" y="230" type="curve" smooth="yes"/>
      <point x="217" y="230" smooth="yes"/>
      <point x="163" y="290" smooth="yes"/>
      <point x="163" y="381" type="curve" smooth="yes"/>
      <point x="163" y="477" smooth="yes"/>
      <point x="211" y="529" smooth="yes"/>
    </contour>
    <contour>
      <point x="372" y="5" type="line" smooth="yes"/>
      <point x="436" y="5" smooth="yes"/>
      <point x="473" y="-24" smooth="yes"/>
      <point x="473" y="-74" type="curve" smooth="yes" name="hr04"/>
      <point x="473" y="-147" smooth="yes"/>
      <point x="412" y="-184" smooth="yes"/>
      <point x="295" y="-184" type="curve" smooth="yes"/>
      <point x="187" y="-184" smooth="yes"/>
      <point x="119" y="-146" smooth="yes"/>
      <point x="119" y="-85" type="curve" smooth="yes"/>
      <point x="119" y="-53"/>
      <point x="130" y="-26"/>
      <point x="155" y="5" type="curve"/>
    </contour>
  </outline>
</glyph>
<glyph name="h" format="1">
  <advance width="703"/>
  <unicode hex="0068"/>
  <outline>
    <contour>
      <point x="587" y="-14" type="curve"/>
      <point x="612" y="-14"/>
      <point x="636" y="-10"/>
      <point x="664" y="-1" type="curve"/>
      <point x="655" y="59" type="line"/>
      <point x="645" y="56" smooth="yes"/>
      <point x="626" y="53" smooth="yes"/>
      <point x="613" y="53" type="curve" smooth="yes"/>
      <point x="586" y="53" smooth="yes"/>
      <point x="570" y="73" smooth="yes"/>
      <point x="570" y="108" type="curve" smooth="yes"/>
      <point x="570" y="407" type="line" smooth="yes"/>
      <point x="570" y="530" smooth="yes"/>
      <point x="519" y="586" smooth="yes"/>
      <point x="406" y="586" type="curve" smooth="yes"/>
      <point x="337" y="586"/>
      <point x="258" y="555"/>
      <point x="194" y="503" type="curve"/>
      <point x="194" y="740" type="line" smooth="yes"/>
      <point x="194" y="760" smooth="yes"/>
      <point x="184" y="770" smooth="yes"/>
      <point x="163" y="770" type="curve" smooth="yes"/>
      <point x="57" y="770" type="line"/>
      <point x="57" y="718" type="line"/>
      <point x="127" y="710" type="line"/>
      <point x="127" y="59" type="line"/>
      <point x="57" y="52" type="line"/>
      <point x="57" y="0" type="line" name="hr01"/>
      <point x="275" y="0" type="line"/>
      <point x="275" y="52" type="line"/>
      <point x="206" y="59" type="line"/>
      <point x="206" y="451" type="line"/>
      <point x="264" y="499" smooth="yes"/>
      <point x="328" y="525" smooth="yes"/>
      <point x="391" y="525" type="curve" smooth="yes"/>
      <point x="463" y="525" smooth="yes"/>
      <point x="491" y="492" smooth="yes"/>
      <point x="491" y="407" type="curve" smooth="yes"/>
      <point x="491" y="99" type="line" smooth="yes"/>
      <point x="491" y="21" smooth="yes"/>
      <point x="521" y="-14" smooth="yes"/>
    </contour>
  </outline>
</glyph>
<glyph name="i" format="1">
  <advance width="337"/>
  <unicode hex="0069"/>
  <outline>
    <contour>
      <point x="200" y="541" type="line" smooth="yes" name="hr00"/>
      <point x="200" y="562" smooth="yes"/>
      <point x="190" y="572" smooth="yes"/>
      <point x="170" y="572" type="curve" smooth="yes"/>
      <point x="62" y="572" type="line"/>
      <point x="62" y="520" type="line"/>
      <point x="122" y="512" type="line"/>
      <point x="122" y="99" type="line" smooth="yes"/>
      <point x="122" y="21" smooth="yes"/>
      <point x="152" y="-14" smooth="yes"/>
      <point x="218" y="-14" type="curve" smooth="yes"/>
      <point x="243" y="-14"/>
      <point x="267" y="-10"/>
      <point x="295" y="-1" type="curve"/>
      <point x="285" y="59" type="line"/>
      <point x="275" y="55" smooth="yes"/>
      <point x="259" y="53" smooth="yes"/>
      <point x="244" y="53" type="curve" smooth="yes"/>
      <point x="216" y="53" smooth="yes"/>
      <point x="200" y="73" smooth="yes"/>
      <point x="200" y="108" type="curve" smooth="yes"/>
    </contour>
    <contour>
      <point x="111" y="716" type="curve" smooth="yes"/>
      <point x="111" y="688" smooth="yes"/>
      <point x="134" y="665" smooth="yes"/>
      <point x="162" y="665" type="curve" smooth="yes"/>
      <point x="190" y="665" smooth="yes"/>
      <point x="213" y="688" smooth="yes"/>
      <point x="213" y="716" type="curve" smooth="yes"/>
      <point x="213" y="743" smooth="yes"/>
      <point x="189" y="767" smooth="yes"/>
      <point x="162" y="767" type="curve" smooth="yes"/>
      <point x="135" y="767" smooth="yes"/>
      <point x="111" y="743" smooth="yes"/>
    </contour>
  </outline>
</glyph>
<glyph name="j" format="1">
  <advance width="305"/>
  <unicode hex="006A"/>
  <outline>
    <contour>
      <point x="111" y="716" type="curve" smooth="yes" name="hr00"/>
      <point x="111" y="688" smooth="yes"/>
      <point x="134" y="665" smooth="yes"/>
      <point x="162" y="665" type="curve" smooth="yes"/>
      <point x="190" y="665" smooth="yes"/>
      <point x="213" y="688" smooth="yes"/>
      <point x="213" y="716" type="curve" smooth="yes"/>
      <point x="213" y="743" smooth="yes"/>
      <point x="189" y="767" smooth="yes"/>
      <point x="162" y="767" type="curve" smooth="yes"/>
      <point x="135" y="767" smooth="yes"/>
      <point x="111" y="743" smooth="yes"/>
    </contour>
    <contour>
      <point x="200" y="541" type="line" smooth="yes"/>
      <point x="200" y="562" smooth="yes"/>
      <point x="190" y="572" smooth="yes"/>
      <point x="170" y="572" type="curve" smooth="yes"/>
      <point x="62" y="572" type="line"/>
      <point x="62" y="520" type="line"/>
      <point x="122" y="512" type="line"/>
      <point x="122" y="-37" type="line" smooth="yes"/>
      <point x="122" y="-140" smooth="yes"/>
      <point x="93" y="-180" smooth="yes"/>
      <point x="20" y="-180" type="curve" smooth="yes"/>
      <point x="-5" y="-180"/>
      <point x="-32" y="-174"/>
      <point x="-56" y="-162" type="curve"/>
      <point x="-75" y="-220" type="line"/>
      <point x="-46" y="-233" smooth="yes"/>
      <point x="-3" y="-241" smooth="yes"/>
      <point x="31" y="-241" type="curve" smooth="yes"/>
      <point x="150" y="-241" smooth="yes"/>
      <point x="200" y="-181" smooth="yes"/>
      <point x="200" y="-39" type="curve" smooth="yes"/>
    </contour>
  </outline>
</glyph>
<glyph name="k" format="1">
  <advance width="603"/>
  <unicode hex="006B"/>
  <outline>
    <contour>
      <point x="491" y="512" type="line"/>
      <point x="343" y="303" type="line"/>
      <point x="491" y="75" type="line" smooth="yes"/>
      <point x="502" y="57" smooth="yes"/>
      <point x="518" y="49" smooth="yes"/>
      <point x="540" y="49" type="curve" smooth="yes"/>
      <point x="551" y="49"/>
      <point x="564" y="51"/>
      <point x="575" y="55" type="curve"/>
      <point x="584" y="-1" type="line"/>
      <point x="562" y="-10" smooth="yes"/>
      <point x="543" y="-14" smooth="yes"/>
      <point x="522" y="-14" type="curve" smooth="yes"/>
      <point x="483" y="-14" smooth="yes"/>
      <point x="452" y="3" smooth="yes"/>
      <point x="432" y="35" type="curve" smooth="yes"/>
      <point x="274" y="281" type="line"/>
      <point x="206" y="281" type="line"/>
      <point x="206" y="59" type="line"/>
      <point x="286" y="52" type="line"/>
      <point x="286" y="0" type="line"/>
      <point x="57" y="0" type="line"/>
      <point x="57" y="52" type="line"/>
      <point x="127" y="59" type="line"/>
      <point x="127" y="710" type="line"/>
      <point x="57" y="718" type="line"/>
      <point x="57" y="770" type="line"/>
      <point x="175" y="770" type="line" smooth="yes"/>
      <point x="195" y="770" smooth="yes"/>
      <point x="206" y="759" smooth="yes"/>
      <point x="206" y="739" type="curve" smooth="yes" name="hr01"/>
      <point x="206" y="335" type="line"/>
      <point x="285" y="335" type="line"/>
      <point x="436" y="552" type="line" smooth="yes"/>
      <point x="446" y="568" smooth="yes"/>
      <point x="453" y="572" smooth="yes"/>
      <point x="473" y="572" type="curve" smooth="yes"/>
      <point x="554" y="572" type="line"/>
      <point x="554" y="520" type="line"/>
    </contour>
  </outline>
</glyph>
<glyph name="l" format="1">
  <advance width="328"/>
  <unicode hex="006C"/>
  <outline>
    <contour>
      <point x="191" y="739" type="line" smooth="yes" name="hr00"/>
      <point x="191" y="760" smooth="yes"/>
      <point x="181" y="770" smooth="yes"/>
      <point x="161" y="770" type="curve" smooth="yes"/>
      <point x="52" y="770" type="line"/>
      <point x="52" y="718" type="line"/>
      <point x="112" y="710" type="line"/>
      <point x="112" y="99" type="line" smooth="yes"/>
      <point x="112" y="22" smooth="yes"/>
      <point x="142" y="-14" smooth="yes"/>
      <point x="208" y="-14" type="curve" smooth="yes"/>
      <point x="233" y="-14"/>
      <point x="259" y="-10"/>
      <point x="285" y="-1" type="curve"/>
      <point x="276" y="59" type="line"/>
      <point x="267" y="57" smooth="yes"/>
      <point x="252" y="53" smooth="yes"/>
      <point x="234" y="53" type="curve" smooth="yes"/>
      <point x="207" y="53" smooth="yes"/>
      <point x="191" y="73" smooth="yes"/>
      <point x="191" y="108" type="curve" smooth="yes"/>
    </contour>
  </outline>
</glyph>
<glyph name="m" format="1">
  <advance width="1031"/>
  <unicode hex="006D"/>
  <outline>
    <contour>
      <point x="481" y="29" type="line" smooth="yes"/>
      <point x="481" y="10" smooth="yes"/>
      <point x="491" y="0" smooth="yes"/>
      <point x="512" y="0" type="curve" smooth="yes"/>
      <point x="629" y="0" type="line"/>
      <point x="629" y="52" type="line"/>
      <point x="560" y="59" type="line"/>
      <point x="560" y="407" type="line" smooth="yes"/>
      <point x="560" y="421"/>
      <point x="559" y="436"/>
      <point x="556" y="459" type="curve"/>
      <point x="609" y="502" smooth="yes"/>
      <point x="664" y="525" smooth="yes"/>
      <point x="718" y="525" type="curve" smooth="yes"/>
      <point x="790" y="525" smooth="yes"/>
      <point x="818" y="492" smooth="yes"/>
      <point x="818" y="407" type="curve" smooth="yes"/>
      <point x="818" y="99" type="line" smooth="yes"/>
      <point x="818" y="22" smooth="yes"/>
      <point x="848" y="-14" smooth="yes"/>
      <point x="914" y="-14" type="curve" smooth="yes" name="hr01"/>
      <point x="940" y="-14"/>
      <point x="965" y="-10"/>
      <point x="991" y="-1" type="curve"/>
      <point x="982" y="59" type="line"/>
      <point x="972" y="55" smooth="yes"/>
      <point x="956" y="53" smooth="yes"/>
      <point x="940" y="53" type="curve" smooth="yes"/>
      <point x="913" y="53" smooth="yes"/>
      <point x="897" y="73" smooth="yes"/>
      <point x="897" y="108" type="curve" smooth="yes"/>
      <point x="897" y="407" type="line" smooth="yes"/>
      <point x="897" y="531" smooth="yes"/>
      <point x="846" y="586" smooth="yes"/>
      <point x="733" y="586" type="curve" smooth="yes"/>
      <point x="671" y="586"/>
      <point x="602" y="558"/>
      <point x="542" y="509" type="curve"/>
      <point x="518" y="561" smooth="yes"/>
      <point x="471" y="586" smooth="yes"/>
      <point x="396" y="586" type="curve" smooth="yes"/>
      <point x="334" y="586"/>
      <point x="262" y="555"/>
      <point x="203" y="503" type="curve"/>
      <point x="203" y="542" type="line" smooth="yes"/>
      <point x="203" y="562" smooth="yes"/>
      <point x="193" y="572" smooth="yes"/>
      <point x="172" y="572" type="curve" smooth="yes" name="hr02"/>
      <point x="66" y="572" type="line"/>
      <point x="66" y="520" type="line"/>
      <point x="136" y="512" type="line"/>
      <point x="136" y="59" type="line"/>
      <point x="66" y="52" type="line"/>
      <point x="66" y="0" type="line"/>
      <point x="285" y="0" type="line"/>
      <point x="285" y="52" type="line"/>
      <point x="215" y="59" type="line"/>
      <point x="215" y="451" type="line"/>
      <point x="269" y="500" smooth="yes"/>
      <point x="325" y="525" smooth="yes"/>
      <point x="381" y="525" type="curve" smooth="yes" name="hr03"/>
      <point x="453" y="525" smooth="yes"/>
      <point x="481" y="492" smooth="yes"/>
      <point x="481" y="407" type="curve" smooth="yes"/>
    </contour>
  </outline>
</glyph>
<glyph name="n" format="1">
  <advance width="713"/>
  <unicode hex="006E"/>
  <outline>
    <contour>
      <point x="500" y="99" type="line" smooth="yes"/>
      <point x="500" y="22" smooth="yes"/>
      <point x="530" y="-14" smooth="yes"/>
      <point x="596" y="-14" type="curve" smooth="yes"/>
      <point x="622" y="-14"/>
      <point x="647" y="-10"/>
      <point x="673" y="-1" type="curve"/>
      <point x="664" y="59" type="line"/>
      <point x="648" y="55" smooth="yes"/>
      <point x="634" y="53" smooth="yes"/>
      <point x="622" y="53" type="curve" smooth="yes"/>
      <point x="595" y="53" smooth="yes"/>
      <point x="579" y="73" smooth="yes"/>
      <point x="579" y="108" type="curve" smooth="yes"/>
      <point x="579" y="407" type="line" smooth="yes"/>
      <point x="579" y="531" smooth="yes"/>
      <point x="528" y="586" smooth="yes"/>
      <point x="415" y="586" type="curve" smooth="yes"/>
      <point x="347" y="586"/>
      <point x="268" y="555"/>
      <point x="203" y="503" type="curve"/>
      <point x="203" y="542" type="line" smooth="yes"/>
      <point x="203" y="562" smooth="yes"/>
      <point x="193" y="572" smooth="yes"/>
      <point x="172" y="572" type="curve" smooth="yes" name="hr01"/>
      <point x="66" y="572" type="line"/>
      <point x="66" y="520" type="line"/>
      <point x="136" y="512" type="line"/>
      <point x="136" y="59" type="line"/>
      <point x="66" y="52" type="line"/>
      <point x="66" y="0" type="line"/>
      <point x="285" y="0" type="line"/>
      <point x="285" y="52" type="line"/>
      <point x="215" y="59" type="line"/>
      <point x="215" y="451" type="line"/>
      <point x="274" y="500" smooth="yes"/>
      <point x="338" y="525" smooth="yes"/>
      <point x="400" y="525" type="curve" smooth="yes" name="hr02"/>
      <point x="472" y="525" smooth="yes"/>
      <point x="500" y="492" smooth="yes"/>
      <point x="500" y="407" type="curve" smooth="yes"/>
    </contour>
  </outline>
</glyph>
<glyph name="o" format="1">
  <advance width="621"/>
  <unicode hex="006F"/>
  <outline>
    <contour>
      <point x="310" y="586" type="curve" smooth="yes" name="hr00"/>
      <point x="149" y="586" smooth="yes"/>
      <point x="62" y="481" smooth="yes"/>
      <point x="62" y="286" type="curve" smooth="yes"/>
      <point x="62" y="106" smooth="yes"/>
      <point x="162" y="-14" smooth="yes"/>
      <point x="310" y="-14" type="curve" smooth="yes"/>
      <point x="473" y="-14" smooth="yes"/>
      <point x="560" y="91" smooth="yes"/>
      <point x="560" y="286" type="curve" smooth="yes"/>
      <point x="560" y="466" smooth="yes"/>
      <point x="460" y="586" smooth="yes"/>
    </contour>
    <contour>
      <point x="310" y="525" type="curve" smooth="yes"/>
      <point x="413" y="525" smooth="yes"/>
      <point x="481" y="429" smooth="yes"/>
      <point x="481" y="286" type="curve" smooth="yes"/>
      <point x="481" y="130" smooth="yes"/>
      <point x="421" y="47" smooth="yes"/>
      <point x="310" y="47" type="curve" smooth="yes"/>
      <point x="209" y="47" smooth="yes"/>
      <point x="140" y="144" smooth="yes"/>
      <point x="140" y="286" type="curve" smooth="yes"/>
      <point x="140" y="441" smooth="yes"/>
      <point x="200" y="525" smooth="yes"/>
    </contour>
  </outline>
</glyph>
<glyph name="q" format="1">
  <advance width="654"/>
  <unicode hex="0071"/>
  <outline>
    <contour>
      <point x="527" y="-233" type="line"/>
      <point x="527" y="512" type="line"/>
      <point x="597" y="520" type="line"/>
      <point x="597" y="572" type="line"/>
      <point x="512" y="572" type="line" smooth="yes"/>
      <point x="491" y="572" smooth="yes"/>
      <point x="481" y="562" smooth="yes"/>
      <point x="481" y="542" type="curve" smooth="yes"/>
      <point x="481" y="475" type="line"/>
      <point x="448" y="547" smooth="yes"/>
      <point x="388" y="586" smooth="yes"/>
      <point x="307" y="586" type="curve" smooth="yes" name="hr01"/>
      <point x="164" y="586" smooth="yes"/>
      <point x="62" y="462" smooth="yes"/>
      <point x="62" y="286" type="curve" smooth="yes"/>
      <point x="62" y="106" smooth="yes"/>
      <point x="145" y="-14" smooth="yes"/>
      <point x="269" y="-14" type="curve" smooth="yes"/>
      <point x="340" y="-14"/>
      <point x="397" y="15"/>
      <point x="448" y="77" type="curve"/>
      <point x="448" y="-227" type="line"/>
    </contour>
    <contour>
      <point x="448" y="137" type="line"/>
      <point x="402" y="75" smooth="yes"/>
      <point x="353" y="46" smooth="yes"/>
      <point x="296" y="46" type="curve" smooth="yes"/>
      <point x="196" y="46" smooth="yes"/>
      <point x="140" y="133" smooth="yes"/>
      <point x="140" y="286" type="curve" smooth="yes"/>
      <point x="140" y="436" smooth="yes"/>
      <point x="202" y="525" smooth="yes"/>
      <point x="306" y="525" type="curve" smooth="yes"/>
      <point x="397" y="525" smooth="yes"/>
      <point x="448" y="457" smooth="yes"/>
      <point x="448" y="335" type="curve" smooth="yes"/>
    </contour>
  </outline>
</glyph>
<glyph name="r" format="1">
  <advance width="418"/>
  <unicode hex="0072"/>
  <outline>
    <contour>
      <point x="416" y="586" type="line"/>
      <point x="323" y="582"/>
      <point x="242" y="518"/>
      <point x="203" y="417" type="curve"/>
      <point x="203" y="541" type="line" smooth="yes"/>
      <point x="203" y="561" smooth="yes"/>
      <point x="192" y="572" smooth="yes"/>
      <point x="172" y="572" type="curve" smooth="yes" name="hr01"/>
      <point x="66" y="572" type="line"/>
      <point x="66" y="520" type="line"/>
      <point x="136" y="512" type="line"/>
      <point x="136" y="59" type="line"/>
      <point x="66" y="52" type="line"/>
      <point x="66" y="0" type="line"/>
      <point x="315" y="0" type="line"/>
      <point x="315" y="52" type="line"/>
      <point x="215" y="59" type="line" name="hr02"/>
      <point x="215" y="280" type="line" smooth="yes"/>
      <point x="215" y="414"/>
      <point x="299" y="512"/>
      <point x="416" y="517" type="curve"/>
    </contour>
  </outline>
</glyph>
<glyph name="s" format="1">
  <advance width="505"/>
  <unicode hex="0073"/>
  <outline>
    <contour>
      <point x="442" y="546" type="line" name="hr00"/>
      <point x="379" y="573" smooth="yes"/>
      <point x="323" y="586" smooth="yes"/>
      <point x="263" y="586" type="curve" smooth="yes"/>
      <point x="142" y="586" smooth="yes"/>
      <point x="67" y="528" smooth="yes"/>
      <point x="67" y="436" type="curve" smooth="yes"/>
      <point x="67" y="240" smooth="yes"/>
      <point x="379" y="277" smooth="yes"/>
      <point x="379" y="141" type="curve" smooth="yes"/>
      <point x="379" y="80" smooth="yes"/>
      <point x="335" y="45" smooth="yes"/>
      <point x="256" y="45" type="curve" smooth="yes"/>
      <point x="186" y="45"/>
      <point x="139" y="85"/>
      <point x="116" y="165" type="curve"/>
      <point x="47" y="149" type="line"/>
      <point x="71" y="45" smooth="yes"/>
      <point x="146" y="-14" smooth="yes"/>
      <point x="255" y="-14" type="curve" smooth="yes"/>
      <point x="382" y="-14" smooth="yes"/>
      <point x="457" y="43" smooth="yes"/>
      <point x="457" y="141" type="curve" smooth="yes"/>
      <point x="457" y="335" smooth="yes"/>
      <point x="146" y="296" smooth="yes"/>
      <point x="146" y="437" type="curve" smooth="yes"/>
      <point x="146" y="492" smooth="yes"/>
      <point x="189" y="525" smooth="yes"/>
      <point x="262" y="525" type="curve" smooth="yes"/>
      <point x="312" y="525"/>
      <point x="366" y="512"/>
      <point x="417" y="488" type="curve"/>
    </contour>
  </outline>
</glyph>
<glyph name="t" format="1">
  <advance width="353"/>
  <unicode hex="0074"/>
  <outline>
    <contour>
      <point x="39" y="517" type="line" name="hr00"/>
      <point x="126" y="517" type="line"/>
      <point x="126" y="101" type="line" smooth="yes"/>
      <point x="126" y="21" smooth="yes"/>
      <point x="156" y="-14" smooth="yes"/>
      <point x="222" y="-14" type="curve" smooth="yes"/>
      <point x="252" y="-14"/>
      <point x="281" y="-8"/>
      <point x="314" y="4" type="curve"/>
      <point x="305" y="65" type="line"/>
      <point x="287" y="58" smooth="yes"/>
      <point x="267" y="54" smooth="yes"/>
      <point x="249" y="54" type="curve" smooth="yes"/>
      <point x="220" y="54" smooth="yes"/>
      <point x="205" y="72" smooth="yes"/>
      <point x="205" y="108" type="curve" smooth="yes"/>
      <point x="205" y="517" type="line"/>
      <point x="314" y="517" type="line"/>
      <point x="314" y="572" type="line"/>
      <point x="205" y="572" type="line"/>
      <point x="205" y="720" type="line"/>
      <point x="126" y="702" type="line"/>
      <point x="126" y="572" type="line"/>
      <point x="39" y="572" type="line"/>
    </contour>
  </outline>
</glyph>
<glyph name="u" format="1">
  <advance width="701"/>
  <unicode hex="0075"/>
  <outline>
    <contour>
      <point x="564" y="541" type="line" smooth="yes" name="hr00"/>
      <point x="564" y="562" smooth="yes"/>
      <point x="554" y="572" smooth="yes"/>
      <point x="534" y="572" type="curve" smooth="yes"/>
      <point x="426" y="572" type="line"/>
      <point x="426" y="520" type="line"/>
      <point x="486" y="512" type="line"/>
      <point x="486" y="124" type="line"/>
      <point x="423" y="73" smooth="yes"/>
      <point x="359" y="46" smooth="yes"/>
      <point x="296" y="46" type="curve" smooth="yes"/>
      <point x="224" y="46" smooth="yes"/>
      <point x="196" y="79" smooth="yes"/>
      <point x="196" y="165" type="curve" smooth="yes"/>
      <point x="196" y="541" type="line" smooth="yes"/>
      <point x="196" y="562" smooth="yes"/>
      <point x="185" y="572" smooth="yes"/>
      <point x="162" y="572" type="curve" smooth="yes"/>
      <point x="47" y="572" type="line"/>
      <point x="47" y="520" type="line"/>
      <point x="117" y="512" type="line"/>
      <point x="117" y="165" type="line" smooth="yes"/>
      <point x="117" y="41" smooth="yes"/>
      <point x="168" y="-14" smooth="yes"/>
      <point x="281" y="-14" type="curve" smooth="yes"/>
      <point x="347" y="-14"/>
      <point x="421" y="13"/>
      <point x="488" y="63" type="curve"/>
      <point x="497" y="10" smooth="yes"/>
      <point x="527" y="-14" smooth="yes"/>
      <point x="582" y="-14" type="curve" smooth="yes"/>
      <point x="607" y="-14"/>
      <point x="631" y="-10"/>
      <point x="659" y="-1" type="curve"/>
      <point x="649" y="59" type="line"/>
      <point x="639" y="55" smooth="yes"/>
      <point x="623" y="53" smooth="yes"/>
      <point x="608" y="53" type="curve" smooth="yes"/>
      <point x="580" y="53" smooth="yes"/>
      <point x="564" y="73" smooth="yes"/>
      <point x="564" y="108" type="curve" smooth="yes"/>
    </contour>
  </outline>
</glyph>
<glyph name="v" format="1">
  <advance width="567"/>
  <unicode hex="0076"/>
  <outline>
    <contour>
      <point x="549" y="520" type="line" name="hr00"/>
      <point x="549" y="572" type="line"/>
      <point x="470" y="572" type="line" smooth="yes"/>
      <point x="452" y="572" smooth="yes"/>
      <point x="439" y="563" smooth="yes"/>
      <point x="433" y="546" type="curve" smooth="yes"/>
      <point x="280" y="81" type="line"/>
      <point x="98" y="572" type="line"/>
      <point x="19" y="572" type="line"/>
      <point x="237" y="0" type="line"/>
      <point x="324" y="0" type="line"/>
      <point x="500" y="512" type="line"/>
    </contour>
  </outline>
</glyph>
<glyph name="w" format="1">
  <advance width="799"/>
  <unicode hex="0077"/>
  <outline>
    <contour>
      <point x="538" y="81" type="line" name="hr00"/>
      <point x="420" y="572" type="line"/>
      <point x="347" y="572" type="line"/>
      <point x="229" y="81" type="line"/>
      <point x="96" y="572" type="line"/>
      <point x="19" y="572" type="line"/>
      <point x="181" y="0" type="line"/>
      <point x="270" y="0" type="line"/>
      <point x="383" y="475" type="line"/>
      <point x="498" y="0" type="line"/>
      <point x="586" y="0" type="line"/>
      <point x="731" y="512" type="line"/>
      <point x="780" y="520" type="line"/>
      <point x="780" y="572" type="line"/>
      <point x="701" y="572" type="line" smooth="yes"/>
      <point x="682" y="572" smooth="yes"/>
      <point x="668" y="562" smooth="yes"/>
      <point x="664" y="546" type="curve" smooth="yes"/>
    </contour>
  </outline>
</glyph>
<glyph name="x" format="1">
  <advance width="545"/>
  <unicode hex="0078"/>
  <outline>
    <contour>
      <point x="109" y="572" type="line" name="hr00"/>
      <point x="24" y="572" type="line"/>
      <point x="229" y="293" type="line"/>
      <point x="69" y="59" type="line"/>
      <point x="17" y="52" type="line"/>
      <point x="17" y="0" type="line"/>
      <point x="93" y="0" type="line" smooth="yes"/>
      <point x="109" y="0" smooth="yes"/>
      <point x="120" y="6" smooth="yes"/>
      <point x="131" y="20" type="curve" smooth="yes"/>
      <point x="275" y="230" type="line"/>
      <point x="445" y="0" type="line"/>
      <point x="530" y="0" type="line"/>
      <point x="320" y="284" type="line"/>
      <point x="477" y="513" type="line"/>
      <point x="520" y="520" type="line"/>
      <point x="520" y="572" type="line"/>
      <point x="454" y="572" type="line" smooth="yes"/>
      <point x="437" y="572" smooth="yes"/>
      <point x="426" y="566" smooth="yes"/>
      <point x="415" y="551" type="curve" smooth="yes"/>
      <point x="276" y="345" type="line"/>
    </contour>
  </outline>
</glyph>
<glyph name="y" format="1">
  <advance width="569"/>
  <unicode hex="0079"/>
  <outline>
    <contour>
      <point x="550" y="519" type="line" name="hr00"/>
      <point x="550" y="572" type="line"/>
      <point x="470" y="572" type="line" smooth="yes"/>
      <point x="452" y="572" smooth="yes"/>
      <point x="439" y="563" smooth="yes"/>
      <point x="433" y="546" type="curve" smooth="yes"/>
      <point x="281" y="82" type="line"/>
      <point x="99" y="572" type="line"/>
      <point x="19" y="572" type="line"/>
      <point x="246" y="-24" type="line"/>
      <point x="214" y="-115" type="line" smooth="yes"/>
      <point x="198" y="-159" smooth="yes"/>
      <point x="173" y="-178" smooth="yes"/>
      <point x="132" y="-178" type="curve" smooth="yes"/>
      <point x="109" y="-178"/>
      <point x="81" y="-170"/>
      <point x="58" y="-157" type="curve"/>
      <point x="36" y="-215" type="line"/>
      <point x="63" y="-231" smooth="yes"/>
      <point x="104" y="-242" smooth="yes"/>
      <point x="139" y="-242" type="curve" smooth="yes"/>
      <point x="215" y="-242" smooth="yes"/>
      <point x="253" y="-207" smooth="yes"/>
      <point x="289" y="-106" type="curve" smooth="yes"/>
      <point x="501" y="511" type="line"/>
    </contour>
  </outline>
</glyph>
<glyph name="z" format="1">
  <advance width="570"/>
  <unicode hex="007A"/>
  <outline>
    <contour>
      <point x="494" y="520" type="line" name="hr00"/>
      <point x="494" y="572" type="line"/>
      <point x="107" y="572" type="line" smooth="yes"/>
      <point x="87" y="572" smooth="yes"/>
      <point x="76" y="560" smooth="yes"/>
      <point x="76" y="541" type="curve" smooth="yes"/>
      <point x="76" y="404" type="line"/>
      <point x="125" y="404" type="line"/>
      <point x="133" y="517" type="line"/>
      <point x="402" y="517" type="line"/>
      <point x="62" y="52" type="line"/>
      <point x="62" y="0" type="line"/>
      <point x="478" y="0" type="line" smooth="yes"/>
      <point x="498" y="0" smooth="yes"/>
      <point x="508" y="11" smooth="yes"/>
      <point x="508" y="31" type="curve" smooth="yes"/>
      <point x="508" y="168" type="line"/>
      <point x="459" y="168" type="line"/>
      <point x="451" y="55" type="line"/>
      <point x="154" y="55" type="line"/>
    </contour>
  </outline>
</glyph>
<glyph name="braceleft" format="1">
  <advance width="349"/>
  <unicode hex="007B"/>
  <outline>
    <contour>
      <point x="149" y="361" type="line" name="hr00"/>
      <point x="183" y="357" smooth="yes"/>
      <point x="203" y="332" smooth="yes"/>
      <point x="203" y="294" type="curve" smooth="yes"/>
      <point x="203" y="253" smooth="yes"/>
      <point x="195" y="193" smooth="yes"/>
      <point x="195" y="143" type="curve" smooth="yes"/>
      <point x="195" y="39"/>
      <point x="237" y="-13"/>
      <point x="320" y="-13" type="curve"/>
      <point x="320" y="-68" type="line"/>
      <point x="184" y="-68" smooth="yes"/>
      <point x="113" y="2" smooth="yes"/>
      <point x="113" y="135" type="curve" smooth="yes"/>
      <point x="113" y="181" smooth="yes"/>
      <point x="121" y="248" smooth="yes"/>
      <point x="121" y="287" type="curve" smooth="yes"/>
      <point x="121" y="318"/>
      <point x="91" y="339"/>
      <point x="47" y="339" type="curve"/>
      <point x="47" y="391" type="line"/>
      <point x="91" y="391" smooth="yes"/>
      <point x="121" y="412" smooth="yes"/>
      <point x="121" y="443" type="curve" smooth="yes"/>
      <point x="121" y="482" smooth="yes"/>
      <point x="113" y="549" smooth="yes"/>
      <point x="113" y="595" type="curve" smooth="yes"/>
      <point x="113" y="728"/>
      <point x="184" y="798"/>
      <point x="320" y="798" type="curve"/>
      <point x="320" y="743" type="line"/>
      <point x="237" y="743" smooth="yes"/>
      <point x="195" y="690" smooth="yes"/>
      <point x="195" y="587" type="curve" smooth="yes"/>
      <point x="195" y="537" smooth="yes"/>
      <point x="203" y="477" smooth="yes"/>
      <point x="203" y="436" type="curve" smooth="yes"/>
      <point x="203" y="397"/>
      <point x="183" y="372"/>
      <point x="149" y="369" type="curve"/>
    </contour>
  </outline>
</glyph>
<glyph name="asciitilde" format="1">
  <advance width="584"/>
  <unicode hex="007E"/>
  <outline>
    <contour>
      <point x="95" y="333" type="line"/>
      <point x="120" y="318" smooth="yes"/>
      <point x="147" y="311" smooth="yes"/>
      <point x="178" y="311" type="curve" smooth="yes"/>
      <point x="253" y="311" smooth="yes"/>
      <point x="330" y="354" smooth="yes"/>
      <point x="406" y="354" type="curve" smooth="yes" name="hr01"/>
      <point x="436" y="354"/>
      <point x="464" y="347"/>
      <point x="489" y="333" type="curve"/>
      <point x="489" y="397" type="line"/>
      <point x="465" y="410" smooth="yes"/>
      <point x="436" y="416" smooth="yes"/>
      <point x="406" y="416" type="curve" smooth="yes"/>
      <point x="330" y="416" smooth="yes"/>
      <point x="253" y="373" smooth="yes"/>
      <point x="178" y="373" type="curve" smooth="yes" name="hr02"/>
      <point x="145" y="373"/>
      <point x="118" y="381"/>
      <point x="95" y="397" type="curve"/>
    </contour>
  </outline>
</glyph>
<glyph name="sterling" format="1">
  <advance width="613"/>
  <unicode hex="00A3"/>
  <outline>
    <contour>
      <point x="411" y="319" type="line" name="hr00"/>
      <point x="411" y="365" type="line"/>
      <point x="211" y="365" type="line"/>
      <point x="211" y="519" type="line" smooth="yes"/>
      <point x="211" y="633" smooth="yes"/>
      <point x="251" y="683" smooth="yes"/>
      <point x="341" y="683" type="curve" smooth="yes"/>
      <point x="416" y="683"/>
      <point x="463" y="639"/>
      <point x="487" y="546" type="curve"/>
      <point x="558" y="563" type="line"/>
      <point x="530" y="682" smooth="yes"/>
      <point x="456" y="744" smooth="yes"/>
      <point x="342" y="744" type="curve" smooth="yes"/>
      <point x="198" y="744" smooth="yes"/>
      <point x="131" y="672" smooth="yes"/>
      <point x="131" y="519" type="curve" smooth="yes"/>
      <point x="131" y="365" type="line"/>
      <point x="39" y="365" type="line"/>
      <point x="39" y="319" type="line"/>
      <point x="131" y="319" type="line"/>
      <point x="131" y="154" type="line" smooth="yes"/>
      <point x="131" y="107"/>
      <point x="115" y="75"/>
      <point x="80" y="46" type="curve"/>
      <point x="80" y="0" type="line"/>
      <point x="565" y="0" type="line"/>
      <point x="565" y="55" type="line"/>
      <point x="168" y="55" type="line"/>
      <point x="201" y="88" smooth="yes"/>
      <point x="211" y="113" smooth="yes"/>
      <point x="211" y="164" type="curve" smooth="yes"/>
      <point x="211" y="319" type="line"/>
    </contour>
  </outline>
</glyph>
<glyph name="currency" format="1">
  <advance width="624"/>
  <unicode hex="00A4"/>
  <outline>
    <contour>
      <point x="596" y="603" type="line" name="hr00"/>
      <point x="550" y="649" type="line"/>
      <point x="436" y="534" type="line"/>
      <point x="399" y="561" smooth="yes"/>
      <point x="356" y="575" smooth="yes"/>
      <point x="312" y="575" type="curve" smooth="yes"/>
      <point x="267" y="575"/>
      <point x="224" y="561"/>
      <point x="188" y="534" type="curve"/>
      <point x="74" y="649" type="line"/>
      <point x="28" y="603" type="line"/>
      <point x="142" y="488" type="line"/>
      <point x="116" y="452" smooth="yes"/>
      <point x="102" y="409" smooth="yes"/>
      <point x="102" y="365" type="curve" smooth="yes"/>
      <point x="102" y="320"/>
      <point x="116" y="278"/>
      <point x="142" y="241" type="curve"/>
      <point x="28" y="127" type="line"/>
      <point x="74" y="81" type="line"/>
      <point x="189" y="195" type="line"/>
      <point x="224" y="169" smooth="yes"/>
      <point x="267" y="155" smooth="yes"/>
      <point x="312" y="155" type="curve" smooth="yes"/>
      <point x="356" y="155"/>
      <point x="399" y="169"/>
      <point x="435" y="195" type="curve"/>
      <point x="550" y="81" type="line"/>
      <point x="596" y="127" type="line"/>
      <point x="481" y="241" type="line"/>
      <point x="508" y="277" smooth="yes"/>
      <point x="522" y="320" smooth="yes"/>
      <point x="522" y="365" type="curve" smooth="yes"/>
      <point x="522" y="409"/>
      <point x="508" y="451"/>
      <point x="482" y="488" type="curve"/>
    </contour>
    <contour>
      <point x="170" y="365" type="curve" smooth="yes"/>
      <point x="170" y="443" smooth="yes"/>
      <point x="233" y="507" smooth="yes"/>
      <point x="312" y="507" type="curve" smooth="yes"/>
      <point x="390" y="507" smooth="yes"/>
      <point x="454" y="443" smooth="yes"/>
      <point x="454" y="365" type="curve" smooth="yes"/>
      <point x="454" y="285" smooth="yes"/>
      <point x="391" y="222" smooth="yes"/>
      <point x="312" y="222" type="curve" smooth="yes"/>
      <point x="233" y="222" smooth="yes"/>
      <point x="170" y="285" smooth="yes"/>
    </contour>
  </outline>
</glyph>
<glyph name="yen" format="1">
  <advance width="548"/>
  <unicode hex="00A5"/>
  <outline>
    <contour>
      <point x="315" y="0" type="line" name="hr00"/>
      <point x="315" y="249" type="line"/>
      <point x="511" y="249" type="line"/>
      <point x="511" y="295" type="line"/>
      <point x="330" y="295" type="line"/>
      <point x="375" y="396" type="line"/>
      <point x="511" y="396" type="line"/>
      <point x="511" y="442" type="line"/>
      <point x="395" y="442" type="line"/>
      <point x="523" y="730" type="line"/>
      <point x="433" y="730" type="line"/>
      <point x="275" y="347" type="line"/>
      <point x="116" y="730" type="line"/>
      <point x="27" y="730" type="line"/>
      <point x="154" y="442" type="line"/>
      <point x="40" y="442" type="line"/>
      <point x="40" y="396" type="line"/>
      <point x="175" y="396" type="line"/>
      <point x="219" y="295" type="line"/>
      <point x="39" y="295" type="line"/>
      <point x="39" y="249" type="line"/>
      <point x="235" y="249" type="line"/>
      <point x="235" y="0" type="line"/>
    </contour>
  </outline>
</glyph>
<glyph name="brokenbar" format="1">
  <advance width="321"/>
  <unicode hex="00A6"/>
  <outline>
    <contour>
      <point x="202" y="447" type="line" name="hr00"/>
      <point x="202" y="775" type="line"/>
      <point x="119" y="775" type="line"/>
      <point x="119" y="447" type="line"/>
    </contour>
    <contour>
      <point x="202" y="-106" type="line"/>
      <point x="202" y="221" type="line"/>
      <point x="119" y="221" type="line"/>
      <point x="119" y="-106" type="line"/>
    </contour>
  </outline>
</glyph>
<glyph name="section" format="1">
  <advance width="527"/>
  <unicode hex="00A7"/>
  <outline>
    <contour>
      <point x="456" y="254" type="curve" smooth="yes"/>
      <point x="456" y="473" smooth="yes"/>
      <point x="137" y="430" smooth="yes"/>
      <point x="137" y="586" type="curve" smooth="yes"/>
      <point x="137" y="657" smooth="yes"/>
      <point x="184" y="698" smooth="yes"/>
      <point x="268" y="698" type="curve" smooth="yes"/>
      <point x="341" y="698"/>
      <point x="388" y="653"/>
      <point x="410" y="562" type="curve"/>
      <point x="480" y="579" type="line"/>
      <point x="455" y="694" smooth="yes"/>
      <point x="378" y="760" smooth="yes"/>
      <point x="269" y="760" type="curve" smooth="yes"/>
      <point x="139" y="760" smooth="yes"/>
      <point x="58" y="693" smooth="yes"/>
      <point x="58" y="584" type="curve" smooth="yes"/>
      <point x="58" y="509"/>
      <point x="97" y="456"/>
      <point x="183" y="414" type="curve"/>
      <point x="110" y="389" smooth="yes"/>
      <point x="70" y="334" smooth="yes"/>
      <point x="70" y="261" type="curve" smooth="yes" name="hr01"/>
      <point x="70" y="42" smooth="yes"/>
      <point x="390" y="87" smooth="yes"/>
      <point x="390" y="-69" type="curve" smooth="yes"/>
      <point x="390" y="-141" smooth="yes"/>
      <point x="342" y="-183" smooth="yes"/>
      <point x="260" y="-183" type="curve" smooth="yes"/>
      <point x="186" y="-183"/>
      <point x="139" y="-137"/>
      <point x="116" y="-45" type="curve"/>
      <point x="47" y="-62" type="line"/>
      <point x="69" y="-177" smooth="yes"/>
      <point x="146" y="-243" smooth="yes"/>
      <point x="257" y="-243" type="curve" smooth="yes"/>
      <point x="388" y="-243" smooth="yes"/>
      <point x="469" y="-176" smooth="yes"/>
      <point x="469" y="-68" type="curve" smooth="yes"/>
      <point x="469" y="6"/>
      <point x="431" y="58"/>
      <point x="344" y="101" type="curve"/>
      <point x="416" y="125" smooth="yes"/>
      <point x="456" y="181" smooth="yes"/>
    </contour>
    <contour>
      <point x="377" y="253" type="curve" smooth="yes" name="hr03"/>
      <point x="377" y="188"/>
      <point x="325" y="148"/>
      <point x="240" y="148" type="curve"/>
      <point x="176" y="180" smooth="yes"/>
      <point x="149" y="215" smooth="yes"/>
      <point x="149" y="263" type="curve" smooth="yes"/>
      <point x="149" y="330"/>
      <point x="199" y="369"/>
      <point x="283" y="369" type="curve"/>
      <point x="349" y="336" smooth="yes"/>
      <point x="377" y="301" smooth="yes"/>
    </contour>
  </outline>
</glyph>
<glyph name="dieresis" format="1">
  <advance width="482"/>
  <unicode hex="00A8"/>
  <outline>
    <contour>
      <point x="88" y="716" type="curve" smooth="yes" name="hr00"/>
      <point x="88" y="689" smooth="yes"/>
      <point x="111" y="666" smooth="yes"/>
      <point x="138" y="666" type="curve" smooth="yes"/>
      <point x="165" y="666" smooth="yes"/>
      <point x="188" y="689" smooth="yes"/>
      <point x="188" y="716" type="curve" smooth="yes"/>
      <point x="188" y="743" smooth="yes"/>
      <point x="165" y="766" smooth="yes"/>
      <point x="138" y="766" type="curve" smooth="yes"/>
      <point x="111" y="766" smooth="yes"/>
      <point x="88" y="743" smooth="yes"/>
    </contour>
    <contour>
      <point x="293" y="716" type="curve" smooth="yes"/>
      <point x="293" y="689" smooth="yes"/>
      <point x="316" y="666" smooth="yes"/>
      <point x="343" y="666" type="curve" smooth="yes"/>
      <point x="370" y="666" smooth="yes"/>
      <point x="393" y="689" smooth="yes"/>
      <point x="393" y="716" type="curve" smooth="yes"/>
      <point x="393" y="743" smooth="yes"/>
      <point x="370" y="766" smooth="yes"/>
      <point x="343" y="766" type="curve" smooth="yes"/>
      <point x="316" y="766" smooth="yes"/>
      <point x="293" y="743" smooth="yes"/>
    </contour>
  </outline>
</glyph>
<glyph name="copyright" format="1">
  <advance width="720"/>
  <unicode hex="00A9"/>
  <outline>
    <contour>
      <point x="360" y="856" type="curve" smooth="yes" name="hr00"/>
      <point x="178" y="856" smooth="yes"/>
      <point x="65" y="743" smooth="yes"/>
      <point x="65" y="560" type="curve" smooth="yes"/>
      <point x="65" y="392" smooth="yes"/>
      <point x="192" y="265" smooth="yes"/>
      <point x="360" y="265" type="curve" smooth="yes"/>
      <point x="528" y="265" smooth="yes"/>
      <point x="655" y="392" smooth="yes"/>
      <point x="655" y="560" type="curve" smooth="yes"/>
      <point x="655" y="743" smooth="yes"/>
      <point x="542" y="856" smooth="yes"/>
    </contour>
    <contour>
      <point x="360" y="298" type="curve" smooth="yes"/>
      <point x="214" y="298" smooth="yes"/>
      <point x="103" y="411" smooth="yes"/>
      <point x="103" y="560" type="curve" smooth="yes"/>
      <point x="103" y="722" smooth="yes"/>
      <point x="202" y="823" smooth="yes"/>
      <point x="360" y="823" type="curve" smooth="yes"/>
      <point x="518" y="823" smooth="yes"/>
      <point x="617" y="722" smooth="yes"/>
      <point x="617" y="560" type="curve" smooth="yes"/>
      <point x="617" y="411" smooth="yes"/>
      <point x="506" y="298" smooth="yes"/>
    </contour>
    <component  base="C.002" xOffset="177"/>
  </outline>
</glyph>
<glyph name="ordfeminine" format="1">
  <advance width="409"/>
  <unicode hex="00AA"/>
  <outline>
    <contour>
      <point x="39" y="452" type="curve" smooth="yes" name="hr00"/>
      <point x="39" y="390" smooth="yes"/>
      <point x="76" y="351" smooth="yes"/>
      <point x="135" y="351" type="curve" smooth="yes"/>
      <point x="191" y="351"/>
      <point x="234" y="377"/>
      <point x="262" y="427" type="curve"/>
      <point x="266" y="373" smooth="yes"/>
      <point x="285" y="351" smooth="yes"/>
      <point x="330" y="351" type="curve" smooth="yes"/>
      <point x="347" y="351"/>
      <point x="364" y="354"/>
      <point x="386" y="360" type="curve"/>
      <point x="378" y="410" type="line"/>
      <point x="371" y="408" smooth="yes"/>
      <point x="362" y="407" smooth="yes"/>
      <point x="352" y="407" type="curve" smooth="yes"/>
      <point x="335" y="407" smooth="yes"/>
      <point x="326" y="418" smooth="yes"/>
      <point x="326" y="439" type="curve" smooth="yes"/>
      <point x="326" y="608" type="line" smooth="yes"/>
      <point x="326" y="699" smooth="yes"/>
      <point x="284" y="741" smooth="yes"/>
      <point x="195" y="741" type="curve" smooth="yes"/>
      <point x="157" y="741"/>
      <point x="104" y="728"/>
      <point x="63" y="708" type="curve"/>
      <point x="84" y="660" type="line"/>
      <point x="117" y="679" smooth="yes"/>
      <point x="158" y="692" smooth="yes"/>
      <point x="190" y="692" type="curve" smooth="yes"/>
      <point x="240" y="692" smooth="yes"/>
      <point x="261" y="666" smooth="yes"/>
      <point x="261" y="604" type="curve" smooth="yes"/>
      <point x="261" y="580" type="line"/>
      <point x="108" y="580" smooth="yes"/>
      <point x="39" y="540" smooth="yes"/>
    </contour>
    <contour>
      <point x="261" y="539" type="curve"/>
      <point x="261" y="458" smooth="yes"/>
      <point x="218" y="401" smooth="yes"/>
      <point x="156" y="401" type="curve" smooth="yes"/>
      <point x="120" y="401" smooth="yes"/>
      <point x="100" y="422" smooth="yes"/>
      <point x="100" y="458" type="curve" smooth="yes"/>
      <point x="100" y="511"/>
      <point x="156" y="539"/>
    </contour>
  </outline>
</glyph>
<glyph name="guillemotleft" format="1">
  <advance width="446"/>
  <unicode hex="00AB"/>
  <outline>
    <contour>
      <point x="179" y="497" type="line" name="hr00"/>
      <point x="47" y="344" type="line"/>
      <point x="47" y="298" type="line"/>
      <point x="179" y="147" type="line"/>
      <point x="211" y="168" type="line"/>
      <point x="118" y="321" type="line"/>
      <point x="211" y="474" type="line"/>
    </contour>
    <contour>
      <point x="357" y="497" type="line"/>
      <point x="225" y="344" type="line"/>
      <point x="225" y="298" type="line"/>
      <point x="357" y="147" type="line"/>
      <point x="389" y="168" type="line"/>
      <point x="295" y="321" type="line"/>
      <point x="389" y="474" type="line"/>
    </contour>
  </outline>
</glyph>
<glyph name="logicalnot" format="1">
  <advance width="584"/>
  <unicode hex="00AC"/>
  <outline>
    <contour>
      <point x="489" y="195" type="line" name="hr00"/>
      <point x="489" y="397" type="line"/>
      <point x="95" y="397" type="line"/>
      <point x="95" y="333" type="line"/>
      <point x="429" y="333" type="line"/>
      <point x="429" y="195" type="line"/>
    </contour>
  </outline>
</glyph>
<glyph name="degree" format="1">
  <advance width="437"/>
  <unicode hex="00B0"/>
  <outline>
    <contour>
      <point x="218" y="741" type="curve" smooth="yes" name="hr00"/>
      <point x="100" y="741" smooth="yes"/>
      <point x="38" y="673" smooth="yes"/>
      <point x="38" y="546" type="curve" smooth="yes"/>
      <point x="38" y="429" smooth="yes"/>
      <point x="110" y="351" smooth="yes"/>
      <point x="218" y="351" type="curve" smooth="yes"/>
      <point x="336" y="351" smooth="yes"/>
      <point x="399" y="419" smooth="yes"/>
      <point x="399" y="546" type="curve" smooth="yes"/>
      <point x="399" y="663" smooth="yes"/>
      <point x="326" y="741" smooth="yes"/>
    </contour>
    <contour>
      <point x="218" y="691" type="curve" smooth="yes"/>
      <point x="287" y="691" smooth="yes"/>
      <point x="333" y="633" smooth="yes"/>
      <point x="333" y="546" type="curve" smooth="yes"/>
      <point x="333" y="451" smooth="yes"/>
      <point x="293" y="401" smooth="yes"/>
      <point x="218" y="401" type="curve" smooth="yes"/>
      <point x="149" y="401" smooth="yes"/>
      <point x="103" y="459" smooth="yes"/>
      <point x="103" y="546" type="curve" smooth="yes"/>
      <point x="103" y="640" smooth="yes"/>
      <point x="144" y="691" smooth="yes"/>
    </contour>
  </outline>
</glyph>
<glyph name="acute" format="1">
  <advance width="314"/>
  <unicode hex="00B4"/>
  <outline>
    <contour>
      <point x="280" y="742" type="line" name="hr00"/>
      <point x="242" y="809" type="line"/>
      <point x="50" y="683" type="line"/>
      <point x="78" y="637" type="line"/>
    </contour>
  </outline>
</glyph>
<glyph name="mu" format="1">
  <advance width="703"/>
  <unicode hex="00B5"/>
  <outline>
    <contour>
      <point x="566" y="541" type="line" smooth="yes" name="hr00"/>
      <point x="566" y="561" smooth="yes"/>
      <point x="555" y="572" smooth="yes"/>
      <point x="536" y="572" type="curve" smooth="yes"/>
      <point x="487" y="572" type="line"/>
      <point x="487" y="123" type="line"/>
      <point x="423" y="71" smooth="yes"/>
      <point x="360" y="46" smooth="yes"/>
      <point x="298" y="46" type="curve" smooth="yes"/>
      <point x="226" y="46" smooth="yes"/>
      <point x="197" y="80" smooth="yes"/>
      <point x="197" y="165" type="curve" smooth="yes"/>
      <point x="197" y="541" type="line" smooth="yes"/>
      <point x="197" y="562" smooth="yes"/>
      <point x="186" y="572" smooth="yes"/>
      <point x="164" y="572" type="curve" smooth="yes"/>
      <point x="119" y="572" type="line"/>
      <point x="119" y="-233" type="line"/>
      <point x="192" y="-227" type="line"/>
      <point x="192" y="4" type="line"/>
      <point x="216" y="-8" smooth="yes"/>
      <point x="246" y="-14" smooth="yes"/>
      <point x="283" y="-14" type="curve" smooth="yes"/>
      <point x="348" y="-14"/>
      <point x="422" y="14"/>
      <point x="489" y="63" type="curve"/>
      <point x="498" y="10" smooth="yes"/>
      <point x="528" y="-14" smooth="yes"/>
      <point x="583" y="-14" type="curve" smooth="yes"/>
      <point x="608" y="-14"/>
      <point x="632" y="-10"/>
      <point x="660" y="-1" type="curve"/>
      <point x="651" y="59" type="line"/>
      <point x="642" y="57" smooth="yes"/>
      <point x="627" y="53" smooth="yes"/>
      <point x="609" y="53" type="curve" smooth="yes"/>
      <point x="582" y="53" smooth="yes"/>
      <point x="566" y="73" smooth="yes"/>
      <point x="566" y="108" type="curve" smooth="yes"/>
    </contour>
  </outline>
</glyph>
<glyph name="paragraph" format="1">
  <advance width="566"/>
  <unicode hex="00B6"/>
  <outline>
    <contour>
      <point x="350" y="274" type="line" name="hr00"/>
      <point x="350" y="59" type="line"/>
      <point x="244" y="51" type="line"/>
      <point x="244" y="0" type="line"/>
      <point x="493" y="0" type="line"/>
      <point x="493" y="52" type="line"/>
      <point x="431" y="59" type="line"/>
      <point x="431" y="699" type="line" smooth="yes"/>
      <point x="431" y="719" smooth="yes"/>
      <point x="420" y="730" smooth="yes"/>
      <point x="400" y="730" type="curve" smooth="yes"/>
      <point x="299" y="730" type="line" smooth="yes"/>
      <point x="163" y="730" smooth="yes"/>
      <point x="71" y="637" smooth="yes"/>
      <point x="71" y="502" type="curve" smooth="yes"/>
      <point x="71" y="366" smooth="yes"/>
      <point x="163" y="274" smooth="yes"/>
      <point x="299" y="274" type="curve" smooth="yes"/>
    </contour>
  </outline>
</glyph>
<glyph name="cedilla" format="1">
  <advance width="301"/>
  <unicode hex="00B8"/>
  <outline>
    <contour>
      <point x="128" y="-241" type="curve" name="hr00"/>
      <point x="192" y="-241" smooth="yes"/>
      <point x="231" y="-204" smooth="yes"/>
      <point x="231" y="-144" type="curve" smooth="yes"/>
      <point x="231" y="-96"/>
      <point x="197" y="-70"/>
      <point x="117" y="-57" type="curve"/>
      <point x="129" y="0" type="line"/>
      <point x="98" y="0" type="line"/>
      <point x="79" y="-82" type="line"/>
      <point x="128" y="-92" type="line" smooth="yes"/>
      <point x="164" y="-100" smooth="yes"/>
      <point x="181" y="-116" smooth="yes"/>
      <point x="181" y="-143" type="curve" smooth="yes"/>
      <point x="181" y="-174" smooth="yes"/>
      <point x="161" y="-194" smooth="yes"/>
      <point x="129" y="-194" type="curve" smooth="yes"/>
      <point x="103" y="-194"/>
      <point x="85" y="-175"/>
      <point x="85" y="-146" type="curve"/>
      <point x="33" y="-146" type="line"/>
      <point x="33" y="-205" smooth="yes"/>
      <point x="69" y="-241" smooth="yes"/>
    </contour>
  </outline>
</glyph>
<glyph name="ordmasculine" format="1">
  <advance width="407"/>
  <unicode hex="00BA"/>
  <outline>
    <contour>
      <point x="203" y="351" type="curve" name="hr00"/>
      <point x="311" y="351" smooth="yes"/>
      <point x="369" y="419" smooth="yes"/>
      <point x="369" y="546" type="curve" smooth="yes"/>
      <point x="369" y="663" smooth="yes"/>
      <point x="302" y="741" smooth="yes"/>
      <point x="203" y="741" type="curve" smooth="yes"/>
      <point x="95" y="741" smooth="yes"/>
      <point x="38" y="673" smooth="yes"/>
      <point x="38" y="546" type="curve" smooth="yes"/>
      <point x="38" y="429" smooth="yes"/>
      <point x="104" y="351" smooth="yes"/>
    </contour>
    <contour>
      <point x="203" y="401" type="curve"/>
      <point x="142" y="401" smooth="yes"/>
      <point x="102" y="459" smooth="yes"/>
      <point x="102" y="546" type="curve" smooth="yes"/>
      <point x="102" y="640" smooth="yes"/>
      <point x="138" y="691" smooth="yes"/>
      <point x="203" y="691" type="curve" smooth="yes"/>
      <point x="263" y="691" smooth="yes"/>
      <point x="304" y="633" smooth="yes"/>
      <point x="304" y="546" type="curve" smooth="yes"/>
      <point x="304" y="451" smooth="yes"/>
      <point x="269" y="401" smooth="yes"/>
    </contour>
  </outline>
</glyph>
<glyph name="AE" format="1">
  <advance width="932"/>
  <unicode hex="00C6"/>
  <outline>
    <contour>
      <point x="-1" y="0" type="line" name="hr00"/>
      <point x="77" y="0" type="line" smooth="yes"/>
      <point x="96" y="0" smooth="yes"/>
      <point x="107" y="8" smooth="yes"/>
      <point x="113" y="26" type="curve" smooth="yes"/>
      <point x="205" y="311" type="line"/>
      <point x="439" y="311" type="line"/>
      <point x="439" y="59" type="line"/>
      <point x="377" y="52" type="line"/>
      <point x="377" y="0" type="line"/>
      <point x="828" y="0" type="line" smooth="yes"/>
      <point x="848" y="0" smooth="yes"/>
      <point x="859" y="10" smooth="yes"/>
      <point x="859" y="31" type="curve" smooth="yes"/>
      <point x="859" y="160" type="line"/>
      <point x="807" y="160" type="line"/>
      <point x="799" y="54" type="line"/>
      <point x="519" y="54" type="line"/>
      <point x="519" y="311" type="line"/>
      <point x="803" y="311" type="line"/>
      <point x="803" y="366" type="line"/>
      <point x="519" y="366" type="line"/>
      <point x="519" y="675" type="line"/>
      <point x="789" y="675" type="line"/>
      <point x="797" y="566" type="line"/>
      <point x="849" y="566" type="line"/>
      <point x="849" y="699" type="line" smooth="yes"/>
      <point x="849" y="719" smooth="yes"/>
      <point x="838" y="730" smooth="yes"/>
      <point x="818" y="730" type="curve" smooth="yes"/>
      <point x="268" y="730" type="line"/>
      <point x="47" y="59" type="line"/>
      <point x="-1" y="52" type="line"/>
    </contour>
    <contour>
      <point x="223" y="366" type="line"/>
      <point x="324" y="675" type="line"/>
      <point x="439" y="675" type="line"/>
      <point x="439" y="366" type="line"/>
    </contour>
  </outline>
</glyph>
<glyph name="multiply" format="1">
  <advance width="584"/>
  <unicode hex="00D7"/>
  <outline>
    <contour>
      <point x="472" y="499" type="line" name="hr00"/>
      <point x="426" y="544" type="line"/>
      <point x="292" y="410" type="line"/>
      <point x="158" y="544" type="line"/>
      <point x="113" y="499" type="line"/>
      <point x="246" y="365" type="line"/>
      <point x="113" y="230" type="line"/>
      <point x="158" y="185" type="line"/>
      <point x="292" y="320" type="line"/>
      <point x="426" y="185" type="line"/>
      <point x="472" y="230" type="line"/>
      <point x="338" y="365" type="line"/>
    </contour>
  </outline>
</glyph>
<glyph name="Thorn" format="1">
  <advance width="627"/>
  <unicode hex="00DE"/>
  <outline>
    <contour>
      <point x="73" y="0" type="line" name="hr00"/>
      <point x="279" y="0" type="line"/>
      <point x="279" y="51" type="line"/>
      <point x="216" y="59" type="line"/>
      <point x="216" y="520" type="line"/>
      <point x="328" y="520" type="line" smooth="yes"/>
      <point x="432" y="520" smooth="yes"/>
      <point x="484" y="468" smooth="yes"/>
      <point x="484" y="366" type="curve" smooth="yes"/>
      <point x="484" y="265" smooth="yes"/>
      <point x="432" y="215" smooth="yes"/>
      <point x="328" y="215" type="curve" smooth="yes"/>
      <point x="279" y="215" type="line"/>
      <point x="279" y="161" type="line"/>
      <point x="328" y="161" type="line" smooth="yes"/>
      <point x="481" y="161" smooth="yes"/>
      <point x="563" y="233" smooth="yes"/>
      <point x="563" y="366" type="curve" smooth="yes"/>
      <point x="563" y="500" smooth="yes"/>
      <point x="479" y="574" smooth="yes"/>
      <point x="328" y="574" type="curve" smooth="yes"/>
      <point x="216" y="574" type="line"/>
      <point x="216" y="670" type="line"/>
      <point x="278" y="678" type="line"/>
      <point x="278" y="730" type="line"/>
      <point x="74" y="730" type="line"/>
      <point x="74" y="678" type="line"/>
      <point x="136" y="670" type="line"/>
      <point x="136" y="59" type="line"/>
      <point x="73" y="52" type="line"/>
    </contour>
  </outline>
</glyph>
<glyph name="germandbls" format="1">
  <advance width="668"/>
  <unicode hex="00DF"/>
  <outline>
    <contour>
      <point x="430" y="-14" type="curve"/>
      <point x="560" y="-14" smooth="yes"/>
      <point x="630" y="57" smooth="yes"/>
      <point x="630" y="190" type="curve" smooth="yes"/>
      <point x="630" y="296"/>
      <point x="566" y="364"/>
      <point x="449" y="380" type="curve"/>
      <point x="526" y="400" smooth="yes"/>
      <point x="571" y="462" smooth="yes"/>
      <point x="571" y="548" type="curve" smooth="yes" name="hr01"/>
      <point x="571" y="670" smooth="yes"/>
      <point x="486" y="745" smooth="yes"/>
      <point x="348" y="745" type="curve" smooth="yes"/>
      <point x="201" y="745" smooth="yes"/>
      <point x="120" y="652" smooth="yes"/>
      <point x="120" y="484" type="curve" smooth="yes"/>
      <point x="120" y="59" type="line"/>
      <point x="57" y="52" type="line"/>
      <point x="57" y="0" type="line"/>
      <point x="166" y="0" type="line" smooth="yes"/>
      <point x="189" y="0" smooth="yes"/>
      <point x="200" y="10" smooth="yes"/>
      <point x="200" y="31" type="curve" smooth="yes"/>
      <point x="200" y="485" type="line" smooth="yes"/>
      <point x="200" y="616" smooth="yes"/>
      <point x="250" y="684" smooth="yes"/>
      <point x="348" y="684" type="curve" smooth="yes"/>
      <point x="438" y="684" smooth="yes"/>
      <point x="494" y="632" smooth="yes"/>
      <point x="494" y="548" type="curve" smooth="yes"/>
      <point x="494" y="451" smooth="yes"/>
      <point x="444" y="399" smooth="yes"/>
      <point x="352" y="399" type="curve" smooth="yes"/>
      <point x="287" y="399" type="line"/>
      <point x="287" y="344" type="line"/>
      <point x="382" y="344" type="line" smooth="yes"/>
      <point x="491" y="344" smooth="yes"/>
      <point x="551" y="288" smooth="yes"/>
      <point x="551" y="188" type="curve" smooth="yes" name="hr02"/>
      <point x="551" y="98" smooth="yes"/>
      <point x="507" y="47" smooth="yes"/>
      <point x="430" y="47" type="curve" smooth="yes"/>
      <point x="363" y="47"/>
      <point x="318" y="100"/>
      <point x="318" y="179" type="curve"/>
      <point x="253" y="179" type="line"/>
      <point x="253" y="64" smooth="yes"/>
      <point x="324" y="-14" smooth="yes"/>
    </contour>
  </outline>
</glyph>
<glyph name="ae" format="1">
  <advance width="933"/>
  <unicode hex="00E6"/>
  <outline>
    <contour>
      <point x="210" y="-14" type="curve" name="hr00"/>
      <point x="316" y="-14"/>
      <point x="394" y="40"/>
      <point x="429" y="136" type="curve"/>
      <point x="468" y="39" smooth="yes"/>
      <point x="548" y="-14" smooth="yes"/>
      <point x="657" y="-14" type="curve" smooth="yes"/>
      <point x="715" y="-14"/>
      <point x="780" y="2"/>
      <point x="848" y="34" type="curve"/>
      <point x="822" y="92" type="line"/>
      <point x="763" y="61" smooth="yes"/>
      <point x="711" y="47" smooth="yes"/>
      <point x="659" y="47" type="curve" smooth="yes"/>
      <point x="551" y="47"/>
      <point x="483" y="132"/>
      <point x="482" y="269" type="curve"/>
      <point x="876" y="269" type="line"/>
      <point x="876" y="318" type="line" smooth="yes"/>
      <point x="876" y="483" smooth="yes"/>
      <point x="788" y="586" smooth="yes"/>
      <point x="648" y="586" type="curve" smooth="yes"/>
      <point x="567" y="586"/>
      <point x="503" y="556"/>
      <point x="461" y="497" type="curve"/>
      <point x="432" y="557" smooth="yes"/>
      <point x="376" y="586" smooth="yes"/>
      <point x="286" y="586" type="curve" smooth="yes"/>
      <point x="229" y="586"/>
      <point x="153" y="567"/>
      <point x="90" y="538" type="curve"/>
      <point x="116" y="478" type="line"/>
      <point x="169" y="508" smooth="yes"/>
      <point x="231" y="526" smooth="yes"/>
      <point x="281" y="526" type="curve" smooth="yes"/>
      <point x="367" y="526" smooth="yes"/>
      <point x="403" y="482" smooth="yes"/>
      <point x="403" y="376" type="curve" smooth="yes"/>
      <point x="403" y="325" type="line"/>
      <point x="381" y="325" type="line" smooth="yes"/>
      <point x="153" y="325" smooth="yes"/>
      <point x="52" y="267" smooth="yes"/>
      <point x="52" y="136" type="curve" smooth="yes"/>
      <point x="52" y="42" smooth="yes"/>
      <point x="111" y="-14" smooth="yes"/>
    </contour>
    <contour>
      <point x="230" y="48" type="curve"/>
      <point x="165" y="48" smooth="yes"/>
      <point x="127" y="82" smooth="yes"/>
      <point x="127" y="141" type="curve" smooth="yes"/>
      <point x="127" y="232"/>
      <point x="206" y="268"/>
      <point x="403" y="268" type="curve"/>
      <point x="403" y="132" smooth="yes"/>
      <point x="337" y="48" smooth="yes"/>
    </contour>
    <contour>
      <point x="484" y="325" type="line"/>
      <point x="494" y="454" smooth="yes"/>
      <point x="553" y="525" smooth="yes"/>
      <point x="648" y="525" type="curve" smooth="yes"/>
      <point x="739" y="525"/>
      <point x="797" y="447"/>
      <point x="797" y="325" type="curve"/>
    </contour>
  </outline>
</glyph>
<glyph name="eth" format="1">
  <advance width="631"/>
  <unicode hex="00F0"/>
  <outline>
    <contour>
      <point x="310" y="-14" type="curve" name="hr00"/>
      <point x="473" y="-14" smooth="yes"/>
      <point x="560" y="91" smooth="yes"/>
      <point x="560" y="286" type="curve" smooth="yes"/>
      <point x="560" y="488"/>
      <point x="475" y="684"/>
      <point x="323" y="834" type="curve"/>
      <point x="280" y="789" type="line"/>
      <point x="361" y="707"/>
      <point x="417" y="616"/>
      <point x="449" y="513" type="curve"/>
      <point x="411" y="551" smooth="yes"/>
      <point x="363" y="571" smooth="yes"/>
      <point x="310" y="571" type="curve" smooth="yes"/>
      <point x="149" y="571" smooth="yes"/>
      <point x="62" y="471" smooth="yes"/>
      <point x="62" y="286" type="curve" smooth="yes"/>
      <point x="62" y="106" smooth="yes"/>
      <point x="162" y="-14" smooth="yes"/>
    </contour>
    <contour>
      <point x="310" y="47" type="curve"/>
      <point x="209" y="47" smooth="yes"/>
      <point x="140" y="144" smooth="yes"/>
      <point x="140" y="286" type="curve" smooth="yes"/>
      <point x="140" y="431" smooth="yes"/>
      <point x="200" y="510" smooth="yes"/>
      <point x="310" y="510" type="curve" smooth="yes"/>
      <point x="413" y="510" smooth="yes"/>
      <point x="481" y="420" smooth="yes"/>
      <point x="481" y="286" type="curve" smooth="yes"/>
      <point x="481" y="130" smooth="yes"/>
      <point x="421" y="47" smooth="yes"/>
    </contour>
    <component  base="eslash" xOffset="220" yOffset="343"/>
  </outline>
</glyph>
<glyph name="thorn" format="1">
  <advance width="650"/>
  <unicode hex="00FE"/>
  <outline>
    <contour>
      <point x="122" y="-233" type="line"/>
      <point x="201" y="-227" type="line"/>
      <point x="201" y="22" type="line"/>
      <point x="248" y="-1" smooth="yes"/>
      <point x="302" y="-14" smooth="yes"/>
      <point x="352" y="-14" type="curve" smooth="yes"/>
      <point x="497" y="-14" smooth="yes"/>
      <point x="579" y="94" smooth="yes"/>
      <point x="579" y="286" type="curve" smooth="yes"/>
      <point x="579" y="466" smooth="yes"/>
      <point x="498" y="586" smooth="yes"/>
      <point x="376" y="586" type="curve" smooth="yes"/>
      <point x="303" y="586"/>
      <point x="243" y="552"/>
      <point x="189" y="479" type="curve" name="hr01"/>
      <point x="189" y="740" type="line" smooth="yes"/>
      <point x="189" y="760" smooth="yes"/>
      <point x="179" y="770" smooth="yes"/>
      <point x="158" y="770" type="curve" smooth="yes"/>
      <point x="52" y="770" type="line"/>
      <point x="52" y="718" type="line"/>
      <point x="122" y="710" type="line"/>
    </contour>
    <contour>
      <point x="339" y="47" type="curve"/>
      <point x="287" y="47"/>
      <point x="244" y="58"/>
      <point x="201" y="81" type="curve"/>
      <point x="201" y="434" type="line"/>
      <point x="247" y="496" smooth="yes"/>
      <point x="295" y="526" smooth="yes"/>
      <point x="348" y="526" type="curve" smooth="yes"/>
      <point x="445" y="526" smooth="yes"/>
      <point x="500" y="440" smooth="yes"/>
      <point x="500" y="286" type="curve" smooth="yes"/>
      <point x="500" y="129" smooth="yes"/>
      <point x="445" y="47" smooth="yes"/>
    </contour>
  </outline>
</glyph>
<glyph name="dotlessi" format="1">
  <advance width="337"/>
  <unicode hex="0131"/>
  <outline>
    <contour>
      <point x="200" y="541" type="line" name="hr00"/>
      <point x="201" y="561" smooth="yes"/>
      <point x="190" y="572" smooth="yes"/>
      <point x="170" y="572" type="curve" smooth="yes"/>
      <point x="62" y="572" type="line"/>
      <point x="62" y="520" type="line"/>
      <point x="122" y="512" type="line"/>
      <point x="122" y="99" type="line" smooth="yes"/>
      <point x="122" y="21" smooth="yes"/>
      <point x="152" y="-14" smooth="yes"/>
      <point x="218" y="-14" type="curve" smooth="yes"/>
      <point x="248" y="-14"/>
      <point x="273" y="-8"/>
      <point x="295" y="-1" type="curve"/>
      <point x="285" y="59" type="line"/>
      <point x="277" y="57" smooth="yes"/>
      <point x="262" y="53" smooth="yes"/>
      <point x="244" y="53" type="curve" smooth="yes"/>
      <point x="218" y="53" smooth="yes"/>
      <point x="200" y="71" smooth="yes"/>
      <point x="200" y="108" type="curve" smooth="yes"/>
    </contour>
  </outline>
</glyph>
<glyph name="kgreenlandic" format="1">
  <advance width="603"/>
  <unicode hex="0138"/>
  <outline>
    <contour>
      <point x="522" y="-14" type="curve"/>
      <point x="483" y="-14" smooth="yes"/>
      <point x="452" y="3" smooth="yes"/>
      <point x="432" y="35" type="curve" smooth="yes"/>
      <point x="274" y="281" type="line"/>
      <point x="206" y="281" type="line"/>
      <point x="206" y="59" type="line"/>
      <point x="286" y="52" type="line"/>
      <point x="286" y="0" type="line"/>
      <point x="57" y="0" type="line"/>
      <point x="57" y="52" type="line"/>
      <point x="127" y="59" type="line"/>
      <point x="127" y="513" type="line"/>
      <point x="57" y="521" type="line"/>
      <point x="57" y="573" type="line"/>
      <point x="175" y="573" type="line" smooth="yes"/>
      <point x="195" y="573" smooth="yes"/>
      <point x="206" y="562" smooth="yes"/>
      <point x="206" y="542" type="curve" smooth="yes" name="hr01"/>
      <point x="206" y="335" type="line"/>
      <point x="285" y="335" type="line"/>
      <point x="436" y="552" type="line" smooth="yes"/>
      <point x="447" y="567" smooth="yes"/>
      <point x="453" y="572" smooth="yes"/>
      <point x="473" y="572" type="curve" smooth="yes"/>
      <point x="554" y="572" type="line"/>
      <point x="554" y="520" type="line"/>
      <point x="491" y="512" type="line"/>
      <point x="343" y="303" type="line"/>
      <point x="491" y="75" type="line" smooth="yes"/>
      <point x="502" y="57" smooth="yes"/>
      <point x="518" y="49" smooth="yes"/>
      <point x="540" y="49" type="curve" smooth="yes"/>
      <point x="551" y="49"/>
      <point x="564" y="51"/>
      <point x="575" y="55" type="curve"/>
      <point x="584" y="-1" type="line"/>
      <point x="562" y="-10" smooth="yes"/>
      <point x="543" y="-14" smooth="yes"/>
    </contour>
  </outline>
</glyph>
<glyph name="Eng" format="1">
  <advance width="793"/>
  <unicode hex="014A"/>
  <outline>
    <contour>
      <point x="498" y="-241" type="curve" name="hr00"/>
      <point x="617" y="-241" smooth="yes"/>
      <point x="668" y="-181" smooth="yes"/>
      <point x="668" y="-39" type="curve" smooth="yes"/>
      <point x="668" y="670" type="line"/>
      <point x="730" y="678" type="line"/>
      <point x="730" y="730" type="line"/>
      <point x="618" y="730" type="line" smooth="yes"/>
      <point x="599" y="730" smooth="yes"/>
      <point x="588" y="719" smooth="yes"/>
      <point x="588" y="699" type="curve" smooth="yes"/>
      <point x="588" y="146" type="line"/>
      <point x="238" y="710" type="line" smooth="yes"/>
      <point x="230" y="723" smooth="yes"/>
      <point x="217" y="730" smooth="yes"/>
      <point x="201" y="730" type="curve" smooth="yes"/>
      <point x="73" y="730" type="line"/>
      <point x="73" y="678" type="line"/>
      <point x="135" y="670" type="line"/>
      <point x="135" y="59" type="line"/>
      <point x="73" y="52" type="line"/>
      <point x="73" y="0" type="line"/>
      <point x="184" y="0" type="line" smooth="yes"/>
      <point x="204" y="0" smooth="yes"/>
      <point x="215" y="10" smooth="yes"/>
      <point x="215" y="31" type="curve" smooth="yes"/>
      <point x="215" y="603" type="line"/>
      <point x="589" y="-1" type="line"/>
      <point x="589" y="-37" type="line" smooth="yes"/>
      <point x="589" y="-140" smooth="yes"/>
      <point x="560" y="-180" smooth="yes"/>
      <point x="487" y="-180" type="curve" smooth="yes"/>
      <point x="463" y="-180"/>
      <point x="434" y="-173"/>
      <point x="412" y="-162" type="curve"/>
      <point x="392" y="-220" type="line"/>
      <point x="419" y="-233" smooth="yes"/>
      <point x="462" y="-241" smooth="yes"/>
    </contour>
  </outline>
</glyph>
<glyph name="eng" format="1">
  <advance width="683"/>
  <unicode hex="014B"/>
  <outline>
    <contour>
      <point x="410" y="-241" type="curve"/>
      <point x="529" y="-241" smooth="yes"/>
      <point x="579" y="-181" smooth="yes"/>
      <point x="579" y="-39" type="curve" smooth="yes"/>
      <point x="579" y="407" type="line" smooth="yes"/>
      <point x="579" y="531" smooth="yes"/>
      <point x="528" y="586" smooth="yes"/>
      <point x="415" y="586" type="curve" smooth="yes"/>
      <point x="347" y="586"/>
      <point x="268" y="555"/>
      <point x="203" y="503" type="curve"/>
      <point x="203" y="542" type="line" smooth="yes"/>
      <point x="203" y="562" smooth="yes"/>
      <point x="193" y="572" smooth="yes"/>
      <point x="172" y="572" type="curve" smooth="yes" name="hr01"/>
      <point x="66" y="572" type="line"/>
      <point x="66" y="520" type="line"/>
      <point x="136" y="512" type="line"/>
      <point x="136" y="59" type="line"/>
      <point x="66" y="52" type="line"/>
      <point x="66" y="0" type="line"/>
      <point x="285" y="0" type="line"/>
      <point x="285" y="52" type="line"/>
      <point x="215" y="59" type="line"/>
      <point x="215" y="451" type="line"/>
      <point x="274" y="500" smooth="yes"/>
      <point x="338" y="525" smooth="yes"/>
      <point x="400" y="525" type="curve" smooth="yes" name="hr02"/>
      <point x="472" y="525" smooth="yes"/>
      <point x="500" y="492" smooth="yes"/>
      <point x="500" y="407" type="curve" smooth="yes"/>
      <point x="500" y="-37" type="line" smooth="yes"/>
      <point x="500" y="-140" smooth="yes"/>
      <point x="472" y="-180" smooth="yes"/>
      <point x="399" y="-180" type="curve" smooth="yes"/>
      <point x="374" y="-180"/>
      <point x="347" y="-174"/>
      <point x="323" y="-162" type="curve"/>
      <point x="304" y="-220" type="line"/>
      <point x="333" y="-233" smooth="yes"/>
      <point x="376" y="-241" smooth="yes"/>
    </contour>
  </outline>
</glyph>
<glyph name="OE" format="1">
  <advance width="964"/>
  <unicode hex="0152"/>
  <outline>
    <contour>
      <point x="353" y="-14" type="curve"/>
      <point x="385" y="-14"/>
      <point x="416" y="-9"/>
      <point x="447" y="0" type="curve" name="hr01"/>
      <point x="860" y="0" type="line" smooth="yes"/>
      <point x="880" y="0" smooth="yes"/>
      <point x="891" y="10" smooth="yes"/>
      <point x="891" y="31" type="curve" smooth="yes"/>
      <point x="891" y="160" type="line"/>
      <point x="839" y="160" type="line"/>
      <point x="831" y="54" type="line"/>
      <point x="541" y="54" type="line"/>
      <point x="606" y="116"/>
      <point x="642" y="215"/>
      <point x="646" y="343" type="curve"/>
      <point x="835" y="343" type="line"/>
      <point x="835" y="398" type="line"/>
      <point x="645" y="398" type="line"/>
      <point x="638" y="522"/>
      <point x="603" y="616"/>
      <point x="541" y="675" type="curve"/>
      <point x="821" y="675" type="line"/>
      <point x="829" y="566" type="line"/>
      <point x="881" y="566" type="line"/>
      <point x="881" y="699" type="line" smooth="yes"/>
      <point x="881" y="719" smooth="yes"/>
      <point x="870" y="730" smooth="yes"/>
      <point x="850" y="730" type="curve" smooth="yes"/>
      <point x="447" y="730" type="line"/>
      <point x="416" y="739" smooth="yes"/>
      <point x="385" y="744" smooth="yes"/>
      <point x="353" y="744" type="curve" smooth="yes" name="hr02"/>
      <point x="169" y="744" smooth="yes"/>
      <point x="62" y="605" smooth="yes"/>
      <point x="62" y="365" type="curve" smooth="yes"/>
      <point x="62" y="125" smooth="yes"/>
      <point x="169" y="-14" smooth="yes"/>
    </contour>
    <contour>
      <point x="353" y="683" type="curve" smooth="yes"/>
      <point x="487" y="683" smooth="yes"/>
      <point x="566" y="566" smooth="yes"/>
      <point x="566" y="365" type="curve" smooth="yes"/>
      <point x="566" y="171" smooth="yes"/>
      <point x="483" y="47" smooth="yes"/>
      <point x="353" y="47" type="curve" smooth="yes"/>
      <point x="219" y="47" smooth="yes"/>
      <point x="141" y="164" smooth="yes"/>
      <point x="141" y="365" type="curve" smooth="yes"/>
      <point x="141" y="565" smooth="yes"/>
      <point x="219" y="683" smooth="yes"/>
    </contour>
  </outline>
</glyph>
<glyph name="florin" format="1">
  <advance width="478"/>
  <unicode hex="0192"/>
  <outline>
    <contour>
      <point x="150" y="-233" type="line" name="hr00"/>
      <point x="230" y="-227" type="line"/>
      <point x="230" y="319" type="line"/>
      <point x="409" y="319" type="line"/>
      <point x="409" y="365" type="line"/>
      <point x="230" y="365" type="line"/>
      <point x="230" y="504" type="line" smooth="yes"/>
      <point x="230" y="627" smooth="yes"/>
      <point x="270" y="683" smooth="yes"/>
      <point x="357" y="683" type="curve" smooth="yes"/>
      <point x="388" y="683"/>
      <point x="425" y="673"/>
      <point x="447" y="659" type="curve"/>
      <point x="468" y="718" type="line"/>
      <point x="437" y="735" smooth="yes"/>
      <point x="397" y="744" smooth="yes"/>
      <point x="353" y="744" type="curve" smooth="yes"/>
      <point x="215" y="744" smooth="yes"/>
      <point x="150" y="668" smooth="yes"/>
      <point x="150" y="504" type="curve" smooth="yes"/>
      <point x="150" y="365" type="line"/>
      <point x="38" y="365" type="line"/>
      <point x="38" y="319" type="line"/>
      <point x="150" y="319" type="line"/>
    </contour>
  </outline>
</glyph>
<glyph name="dotlessj" format="1">
  <advance width="305"/>
  <unicode hex="0237"/>
  <outline>
    <contour>
      <point x="31" y="-241" type="curve" smooth="yes" name="hr00"/>
      <point x="150" y="-241" smooth="yes"/>
      <point x="200" y="-181" smooth="yes"/>
      <point x="200" y="-39" type="curve" smooth="yes"/>
      <point x="200" y="541" type="line" smooth="yes"/>
      <point x="200" y="561" smooth="yes"/>
      <point x="191" y="572" smooth="yes"/>
      <point x="170" y="572" type="curve" smooth="yes"/>
      <point x="62" y="572" type="line"/>
      <point x="62" y="520" type="line"/>
      <point x="122" y="512" type="line"/>
      <point x="122" y="-37" type="line" smooth="yes"/>
      <point x="122" y="-140" smooth="yes"/>
      <point x="93" y="-180" smooth="yes"/>
      <point x="20" y="-180" type="curve" smooth="yes"/>
      <point x="-5" y="-180"/>
      <point x="-32" y="-174"/>
      <point x="-56" y="-162" type="curve"/>
      <point x="-75" y="-220" type="line"/>
      <point x="-46" y="-233" smooth="yes"/>
      <point x="-3" y="-241" smooth="yes"/>
    </contour>
  </outline>
</glyph>
<glyph name="circumflex" format="1">
  <advance width="401"/>
  <unicode hex="02C6"/>
  <outline>
    <contour>
      <point x="344" y="667" type="line" name="hr00"/>
      <point x="221" y="810" type="line"/>
      <point x="179" y="810" type="line"/>
      <point x="57" y="667" type="line"/>
      <point x="89" y="634" type="line"/>
      <point x="200" y="732" type="line"/>
      <point x="312" y="634" type="line"/>
    </contour>
  </outline>
</glyph>
<glyph name="breve" format="1">
  <advance width="425"/>
  <unicode hex="02D8"/>
  <outline>
    <contour>
      <point x="282" y="780" type="line" name="hr00"/>
      <point x="282" y="732" smooth="yes"/>
      <point x="257" y="706" smooth="yes"/>
      <point x="212" y="706" type="curve" smooth="yes"/>
      <point x="170" y="706"/>
      <point x="142" y="736"/>
      <point x="142" y="780" type="curve"/>
      <point x="86" y="780" type="line"/>
      <point x="86" y="698" smooth="yes"/>
      <point x="136" y="643" smooth="yes"/>
      <point x="212" y="643" type="curve" smooth="yes"/>
      <point x="295" y="643"/>
      <point x="339" y="691"/>
      <point x="339" y="780" type="curve"/>
    </contour>
  </outline>
</glyph>
<glyph name="dotaccent" format="1">
  <advance width="292"/>
  <unicode hex="02D9"/>
  <outline>
    <contour>
      <point x="95" y="716" type="curve" smooth="yes" name="hr00"/>
      <point x="95" y="688" smooth="yes"/>
      <point x="118" y="665" smooth="yes"/>
      <point x="146" y="665" type="curve" smooth="yes"/>
      <point x="173" y="665" smooth="yes"/>
      <point x="197" y="688" smooth="yes"/>
      <point x="197" y="716" type="curve" smooth="yes"/>
      <point x="197" y="743" smooth="yes"/>
      <point x="173" y="767" smooth="yes"/>
      <point x="146" y="767" type="curve" smooth="yes"/>
      <point x="118" y="767" smooth="yes"/>
      <point x="95" y="743" smooth="yes"/>
    </contour>
  </outline>
</glyph>
<glyph name="ring" format="1">
  <advance width="382"/>
  <unicode hex="02DA"/>
  <outline>
    <contour>
      <point x="190" y="833" type="curve" smooth="yes" name="hr00"/>
      <point x="118" y="833" smooth="yes"/>
      <point x="80" y="788" smooth="yes"/>
      <point x="80" y="725" type="curve" smooth="yes"/>
      <point x="80" y="667" smooth="yes"/>
      <point x="123" y="618" smooth="yes"/>
      <point x="190" y="618" type="curve" smooth="yes"/>
      <point x="263" y="618" smooth="yes"/>
      <point x="303" y="661" smooth="yes"/>
      <point x="303" y="725" type="curve" smooth="yes"/>
      <point x="303" y="783" smooth="yes"/>
      <point x="258" y="833" smooth="yes"/>
    </contour>
    <contour>
      <point x="190" y="787" type="curve" smooth="yes"/>
      <point x="222" y="787" smooth="yes"/>
      <point x="243" y="758" smooth="yes"/>
      <point x="243" y="725" type="curve" smooth="yes"/>
      <point x="243" y="690" smooth="yes"/>
      <point x="226" y="663" smooth="yes"/>
      <point x="190" y="663" type="curve" smooth="yes"/>
      <point x="158" y="663" smooth="yes"/>
      <point x="138" y="693" smooth="yes"/>
      <point x="138" y="725" type="curve" smooth="yes"/>
      <point x="138" y="761" smooth="yes"/>
      <point x="156" y="787" smooth="yes"/>
    </contour>
  </outline>
</glyph>
<glyph name="ogonek" format="1">
  <advance width="332"/>
  <unicode hex="02DB"/>
  <outline>
    <contour>
      <point x="246" y="30" type="line" name="hr00"/>
      <point x="179" y="30" type="line"/>
      <point x="143" y="8" type="line" smooth="yes"/>
      <point x="81" y="-30" smooth="yes"/>
      <point x="46" y="-63" smooth="yes"/>
      <point x="46" y="-120" type="curve" smooth="yes"/>
      <point x="46" y="-178" smooth="yes"/>
      <point x="80" y="-215" smooth="yes"/>
      <point x="150" y="-215" type="curve" smooth="yes"/>
      <point x="206" y="-215"/>
      <point x="254" y="-171"/>
      <point x="279" y="-122" type="curve"/>
      <point x="241" y="-98" type="line"/>
      <point x="225" y="-127" smooth="yes"/>
      <point x="197" y="-161" smooth="yes"/>
      <point x="155" y="-161" type="curve" smooth="yes"/>
      <point x="119" y="-161" smooth="yes"/>
      <point x="98" y="-140" smooth="yes"/>
      <point x="98" y="-109" type="curve" smooth="yes"/>
      <point x="98" y="-80" smooth="yes"/>
      <point x="108" y="-56" smooth="yes"/>
      <point x="154" y="-27" type="curve" smooth="yes"/>
    </contour>
  </outline>
</glyph>
<glyph name="tilde" format="1">
  <advance width="418"/>
  <unicode hex="02DC"/>
  <outline>
    <contour>
      <point x="319" y="786" type="line"/>
      <point x="311" y="758" smooth="yes"/>
      <point x="297" y="742" smooth="yes"/>
      <point x="273" y="742" type="curve" smooth="yes"/>
      <point x="242" y="742" smooth="yes"/>
      <point x="183" y="778" smooth="yes"/>
      <point x="138" y="778" type="curve" smooth="yes" name="hr01"/>
      <point x="99" y="778"/>
      <point x="70" y="750"/>
      <point x="52" y="683" type="curve"/>
      <point x="99" y="669" type="line"/>
      <point x="107" y="697" smooth="yes"/>
      <point x="122" y="712" smooth="yes"/>
      <point x="146" y="712" type="curve" smooth="yes"/>
      <point x="177" y="712" smooth="yes"/>
      <point x="234" y="676" smooth="yes"/>
      <point x="280" y="676" type="curve" smooth="yes" name="hr02"/>
      <point x="319" y="676"/>
      <point x="349" y="705"/>
      <point x="366" y="771" type="curve"/>
    </contour>
  </outline>
</glyph>
<glyph name="hungarumlaut" format="1">
  <advance width="491"/>
  <unicode hex="02DD"/>
  <outline>
    <contour>
      <point x="208" y="783" type="line" name="hr00"/>
      <point x="148" y="832" type="line"/>
      <point x="11" y="648" type="line"/>
      <point x="54" y="615" type="line"/>
    </contour>
    <contour>
      <point x="393" y="783" type="line"/>
      <point x="333" y="832" type="line"/>
      <point x="196" y="648" type="line"/>
      <point x="239" y="615" type="line"/>
    </contour>
  </outline>
</glyph>
<glyph name="pi" format="1">
  <advance width="615"/>
  <unicode hex="03C0"/>
  <outline>
    <contour>
      <point x="563" y="520" type="line" name="hr00"/>
      <point x="563" y="572" type="line"/>
      <point x="52" y="572" type="line"/>
      <point x="52" y="520" type="line"/>
      <point x="112" y="512" type="line"/>
      <point x="112" y="0" type="line"/>
      <point x="191" y="0" type="line"/>
      <point x="191" y="517" type="line"/>
      <point x="423" y="517" type="line"/>
      <point x="423" y="0" type="line"/>
      <point x="503" y="0" type="line"/>
      <point x="503" y="512" type="line"/>
    </contour>
  </outline>
</glyph>
<glyph name="endash" format="1">
  <advance width="573"/>
  <unicode hex="2013"/>
  <outline>
    <contour>
      <point x="506" y="290" type="line" name="hr00"/>
      <point x="506" y="345" type="line"/>
      <point x="66" y="345" type="line"/>
      <point x="66" y="290" type="line"/>
    </contour>
  </outline>
</glyph>
<glyph name="emdash" format="1">
  <advance width="906"/>
  <unicode hex="2014"/>
  <outline>
    <contour>
      <point x="839" y="290" type="line" name="hr00"/>
      <point x="839" y="345" type="line"/>
      <point x="66" y="345" type="line"/>
      <point x="66" y="290" type="line"/>
    </contour>
  </outline>
</glyph>
<glyph name="quoteleft" format="1">
  <advance width="233"/>
  <unicode hex="2018"/>
  <outline>
    <contour>
      <point x="149" y="760" type="line" name="hr00"/>
      <point x="112" y="730" smooth="yes"/>
      <point x="51" y="667" smooth="yes"/>
      <point x="51" y="580" type="curve" smooth="yes"/>
      <point x="51" y="554" smooth="yes"/>
      <point x="68" y="534" smooth="yes"/>
      <point x="97" y="534" type="curve" smooth="yes"/>
      <point x="126" y="534" smooth="yes"/>
      <point x="144" y="555" smooth="yes"/>
      <point x="144" y="580" type="curve" smooth="yes"/>
      <point x="144" y="609" smooth="yes"/>
      <point x="131" y="627" smooth="yes"/>
      <point x="131" y="654" type="curve" smooth="yes"/>
      <point x="131" y="688"/>
      <point x="146" y="710"/>
      <point x="171" y="734" type="curve"/>
    </contour>
  </outline>
</glyph>
<glyph name="quoteright" format="1">
  <advance width="233"/>
  <unicode hex="2019"/>
  <outline>
    <contour>
      <point x="84" y="533" type="line" name="hr00"/>
      <point x="121" y="562" smooth="yes"/>
      <point x="182" y="626" smooth="yes"/>
      <point x="182" y="712" type="curve" smooth="yes"/>
      <point x="182" y="738" smooth="yes"/>
      <point x="165" y="759" smooth="yes"/>
      <point x="136" y="759" type="curve" smooth="yes"/>
      <point x="107" y="759" smooth="yes"/>
      <point x="89" y="738" smooth="yes"/>
      <point x="89" y="712" type="curve" smooth="yes"/>
      <point x="89" y="684" smooth="yes"/>
      <point x="102" y="666" smooth="yes"/>
      <point x="102" y="639" type="curve" smooth="yes"/>
      <point x="102" y="605"/>
      <point x="87" y="582"/>
      <point x="62" y="559" type="curve"/>
    </contour>
  </outline>
</glyph>
<glyph name="quotedblleft" format="1">
  <advance width="396"/>
  <unicode hex="201C"/>
  <outline>
    <contour>
      <point x="149" y="760" type="line" name="hr00"/>
      <point x="112" y="730" smooth="yes"/>
      <point x="51" y="667" smooth="yes"/>
      <point x="51" y="580" type="curve" smooth="yes"/>
      <point x="51" y="554" smooth="yes"/>
      <point x="68" y="534" smooth="yes"/>
      <point x="97" y="534" type="curve" smooth="yes"/>
      <point x="126" y="534" smooth="yes"/>
      <point x="144" y="555" smooth="yes"/>
      <point x="144" y="580" type="curve" smooth="yes"/>
      <point x="144" y="609" smooth="yes"/>
      <point x="131" y="627" smooth="yes"/>
      <point x="131" y="654" type="curve" smooth="yes"/>
      <point x="131" y="688"/>
      <point x="146" y="710"/>
      <point x="171" y="734" type="curve"/>
    </contour>
    <contour>
      <point x="311" y="760" type="line"/>
      <point x="274" y="730" smooth="yes"/>
      <point x="213" y="667" smooth="yes"/>
      <point x="213" y="580" type="curve" smooth="yes"/>
      <point x="213" y="554" smooth="yes"/>
      <point x="231" y="534" smooth="yes"/>
      <point x="260" y="534" type="curve" smooth="yes"/>
      <point x="289" y="534" smooth="yes"/>
      <point x="306" y="555" smooth="yes"/>
      <point x="306" y="580" type="curve" smooth="yes"/>
      <point x="306" y="609" smooth="yes"/>
      <point x="294" y="627" smooth="yes"/>
      <point x="294" y="654" type="curve" smooth="yes"/>
      <point x="294" y="688"/>
      <point x="308" y="710"/>
      <point x="334" y="734" type="curve"/>
    </contour>
  </outline>
</glyph>
<glyph name="quotedblright" format="1">
  <advance width="396"/>
  <unicode hex="201D"/>
  <outline>
    <contour>
      <point x="84" y="533" type="line" name="hr00"/>
      <point x="121" y="562" smooth="yes"/>
      <point x="182" y="626" smooth="yes"/>
      <point x="182" y="712" type="curve" smooth="yes"/>
      <point x="182" y="738" smooth="yes"/>
      <point x="165" y="759" smooth="yes"/>
      <point x="136" y="759" type="curve" smooth="yes"/>
      <point x="107" y="759" smooth="yes"/>
      <point x="89" y="738" smooth="yes"/>
      <point x="89" y="712" type="curve" smooth="yes"/>
      <point x="89" y="684" smooth="yes"/>
      <point x="102" y="666" smooth="yes"/>
      <point x="102" y="639" type="curve" smooth="yes"/>
      <point x="102" y="605"/>
      <point x="87" y="582"/>
      <point x="62" y="559" type="curve"/>
    </contour>
    <contour>
      <point x="247" y="533" type="line"/>
      <point x="284" y="562" smooth="yes"/>
      <point x="345" y="626" smooth="yes"/>
      <point x="345" y="712" type="curve" smooth="yes"/>
      <point x="345" y="738" smooth="yes"/>
      <point x="327" y="759" smooth="yes"/>
      <point x="298" y="759" type="curve" smooth="yes"/>
      <point x="269" y="759" smooth="yes"/>
      <point x="252" y="738" smooth="yes"/>
      <point x="252" y="712" type="curve" smooth="yes"/>
      <point x="252" y="684" smooth="yes"/>
      <point x="264" y="666" smooth="yes"/>
      <point x="264" y="639" type="curve" smooth="yes"/>
      <point x="264" y="605"/>
      <point x="250" y="582"/>
      <point x="224" y="559" type="curve"/>
    </contour>
  </outline>
</glyph>
<glyph name="quotedblbase" format="1">
  <advance width="425"/>
  <unicode hex="201E"/>
  <outline>
    <contour>
      <point x="79" y="-124" type="line" name="hr00"/>
      <point x="116" y="-95" smooth="yes"/>
      <point x="177" y="-31" smooth="yes"/>
      <point x="177" y="55" type="curve" smooth="yes"/>
      <point x="177" y="81" smooth="yes"/>
      <point x="160" y="102" smooth="yes"/>
      <point x="131" y="102" type="curve" smooth="yes"/>
      <point x="102" y="102" smooth="yes"/>
      <point x="84" y="81" smooth="yes"/>
      <point x="84" y="55" type="curve" smooth="yes"/>
      <point x="84" y="27" smooth="yes"/>
      <point x="97" y="9" smooth="yes"/>
      <point x="97" y="-18" type="curve" smooth="yes"/>
      <point x="97" y="-52"/>
      <point x="82" y="-75"/>
      <point x="57" y="-98" type="curve"/>
    </contour>
    <contour>
      <point x="243" y="-124" type="line"/>
      <point x="280" y="-95" smooth="yes"/>
      <point x="340" y="-31" smooth="yes"/>
      <point x="340" y="55" type="curve" smooth="yes"/>
      <point x="340" y="81" smooth="yes"/>
      <point x="323" y="102" smooth="yes"/>
      <point x="294" y="102" type="curve" smooth="yes"/>
      <point x="265" y="102" smooth="yes"/>
      <point x="248" y="81" smooth="yes"/>
      <point x="248" y="55" type="curve" smooth="yes"/>
      <point x="248" y="27" smooth="yes"/>
      <point x="260" y="9" smooth="yes"/>
      <point x="260" y="-18" type="curve" smooth="yes"/>
      <point x="260" y="-52"/>
      <point x="245" y="-75"/>
      <point x="220" y="-98" type="curve"/>
    </contour>
  </outline>
</glyph>
<glyph name="dagger" format="1">
  <advance width="442"/>
  <unicode hex="2020"/>
  <outline>
    <contour>
      <point x="183" y="505" type="line" name="hr00"/>
      <point x="183" y="0" type="line"/>
      <point x="259" y="0" type="line"/>
      <point x="259" y="505" type="line"/>
      <point x="423" y="505" type="line"/>
      <point x="423" y="557" type="line"/>
      <point x="259" y="572" type="line"/>
      <point x="259" y="730" type="line"/>
      <point x="183" y="730" type="line"/>
      <point x="183" y="572" type="line"/>
      <point x="19" y="572" type="line"/>
      <point x="19" y="520" type="line"/>
    </contour>
  </outline>
</glyph>
<glyph name="daggerdbl" format="1">
  <advance width="442"/>
  <unicode hex="2021"/>
  <outline>
    <contour>
      <point x="259" y="505" type="line" name="hr00"/>
      <point x="423" y="505" type="line"/>
      <point x="423" y="557" type="line"/>
      <point x="259" y="572" type="line"/>
      <point x="259" y="730" type="line"/>
      <point x="183" y="730" type="line"/>
      <point x="183" y="572" type="line"/>
      <point x="19" y="572" type="line"/>
      <point x="19" y="520" type="line"/>
      <point x="183" y="505" type="line"/>
      <point x="183" y="225" type="line"/>
      <point x="19" y="225" type="line"/>
      <point x="19" y="173" type="line"/>
      <point x="183" y="158" type="line"/>
      <point x="183" y="0" type="line"/>
      <point x="259" y="0" type="line"/>
      <point x="259" y="158" type="line"/>
      <point x="423" y="158" type="line"/>
      <point x="423" y="210" type="line"/>
      <point x="259" y="225" type="line"/>
    </contour>
  </outline>
</glyph>
<glyph name="bullet" format="1">
  <advance width="257"/>
  <unicode hex="2022"/>
  <outline>
    <contour>
      <point x="47" y="333" type="curve" smooth="yes" name="hr00"/>
      <point x="47" y="289" smooth="yes"/>
      <point x="85" y="251" smooth="yes"/>
      <point x="129" y="251" type="curve" smooth="yes"/>
      <point x="172" y="251" smooth="yes"/>
      <point x="209" y="289" smooth="yes"/>
      <point x="209" y="333" type="curve" smooth="yes"/>
      <point x="209" y="376" smooth="yes"/>
      <point x="172" y="413" smooth="yes"/>
      <point x="129" y="413" type="curve" smooth="yes"/>
      <point x="85" y="413" smooth="yes"/>
      <point x="47" y="376" smooth="yes"/>
    </contour>
  </outline>
</glyph>
<glyph name="ellipsis" format="1">
  <advance width="786"/>
  <unicode hex="2026"/>
  <outline>
    <contour>
      <point x="76" y="47" type="curve" smooth="yes" name="hr00"/>
      <point x="76" y="17" smooth="yes"/>
      <point x="101" y="-8" smooth="yes"/>
      <point x="131" y="-8" type="curve" smooth="yes"/>
      <point x="160" y="-8" smooth="yes"/>
      <point x="186" y="17" smooth="yes"/>
      <point x="186" y="47" type="curve" smooth="yes"/>
      <point x="186" y="76" smooth="yes"/>
      <point x="160" y="102" smooth="yes"/>
      <point x="131" y="102" type="curve" smooth="yes"/>
      <point x="101" y="102" smooth="yes"/>
      <point x="76" y="76" smooth="yes"/>
    </contour>
    <contour>
      <point x="338" y="47" type="curve" smooth="yes"/>
      <point x="338" y="17" smooth="yes"/>
      <point x="363" y="-8" smooth="yes"/>
      <point x="393" y="-8" type="curve" smooth="yes"/>
      <point x="422" y="-8" smooth="yes"/>
      <point x="448" y="17" smooth="yes"/>
      <point x="448" y="47" type="curve" smooth="yes"/>
      <point x="448" y="76" smooth="yes"/>
      <point x="422" y="102" smooth="yes"/>
      <point x="393" y="102" type="curve" smooth="yes"/>
      <point x="363" y="102" smooth="yes"/>
      <point x="338" y="76" smooth="yes"/>
    </contour>
    <contour>
      <point x="600" y="47" type="curve" smooth="yes"/>
      <point x="600" y="17" smooth="yes"/>
      <point x="625" y="-8" smooth="yes"/>
      <point x="655" y="-8" type="curve" smooth="yes"/>
      <point x="684" y="-8" smooth="yes"/>
      <point x="710" y="17" smooth="yes"/>
      <point x="710" y="47" type="curve" smooth="yes"/>
      <point x="710" y="76" smooth="yes"/>
      <point x="684" y="102" smooth="yes"/>
      <point x="655" y="102" type="curve" smooth="yes"/>
      <point x="625" y="102" smooth="yes"/>
      <point x="600" y="76" smooth="yes"/>
    </contour>
  </outline>
</glyph>
<glyph name="guilsinglleft" format="1">
  <advance width="268"/>
  <unicode hex="2039"/>
  <outline>
    <contour>
      <point x="179" y="497" type="line" name="hr00"/>
      <point x="47" y="344" type="line"/>
      <point x="47" y="298" type="line"/>
      <point x="179" y="147" type="line"/>
      <point x="211" y="168" type="line"/>
      <point x="118" y="321" type="line"/>
      <point x="211" y="474" type="line"/>
    </contour>
  </outline>
</glyph>
<glyph name="guilsinglright" format="1">
  <advance width="268"/>
  <unicode hex="203A"/>
  <outline>
    <contour>
      <point x="80" y="497" type="line" name="hr00"/>
      <point x="211" y="344" type="line"/>
      <point x="211" y="298" type="line"/>
      <point x="80" y="147" type="line"/>
      <point x="47" y="168" type="line"/>
      <point x="141" y="321" type="line"/>
      <point x="47" y="474" type="line"/>
    </contour>
  </outline>
</glyph>
<glyph name="fraction" format="1">
  <advance width="302"/>
  <unicode hex="2044"/>
  <outline>
    <contour>
      <point x="62" y="-66" type="line" name="hr00"/>
      <point x="302" y="795" type="line"/>
      <point x="240" y="795" type="line"/>
      <point x="0" y="-66" type="line"/>
    </contour>
  </outline>
</glyph>
<glyph name="zeroinferior" format="1">
  <advance width="418"/>
  <unicode hex="2080"/>
  <outline>
    <contour>
      <point x="209" y="394" type="curve" smooth="yes" name="hr00"/>
      <point x="113" y="394" smooth="yes"/>
      <point x="60" y="324" smooth="yes"/>
      <point x="60" y="193" type="curve" smooth="yes"/>
      <point x="60" y="73" smooth="yes"/>
      <point x="120" y="-8" smooth="yes"/>
      <point x="209" y="-8" type="curve" smooth="yes"/>
      <point x="307" y="-8" smooth="yes"/>
      <point x="358" y="63" smooth="yes"/>
      <point x="358" y="193" type="curve" smooth="yes"/>
      <point x="358" y="314" smooth="yes"/>
      <point x="299" y="394" smooth="yes"/>
    </contour>
    <contour>
      <point x="209" y="345" type="curve" smooth="yes"/>
      <point x="259" y="345" smooth="yes"/>
      <point x="293" y="284" smooth="yes"/>
      <point x="293" y="193" type="curve" smooth="yes"/>
      <point x="293" y="94" smooth="yes"/>
      <point x="264" y="41" smooth="yes"/>
      <point x="209" y="41" type="curve" smooth="yes"/>
      <point x="158" y="41" smooth="yes"/>
      <point x="124" y="102" smooth="yes"/>
      <point x="124" y="193" type="curve" smooth="yes"/>
      <point x="124" y="291" smooth="yes"/>
      <point x="154" y="345" smooth="yes"/>
    </contour>
  </outline>
</glyph>
<glyph name="oneinferior" format="1">
  <advance width="322"/>
  <unicode hex="2081"/>
  <outline>
    <contour>
      <point x="202" y="0" type="line" name="hr00"/>
      <point x="202" y="387" type="line"/>
      <point x="151" y="387" type="line"/>
      <point x="43" y="355" type="line"/>
      <point x="48" y="309" type="line"/>
      <point x="137" y="328" type="line"/>
      <point x="137" y="0" type="line"/>
    </contour>
  </outline>
</glyph>
<glyph name="twoinferior" format="1">
  <advance width="382"/>
  <unicode hex="2082"/>
  <outline>
    <contour>
      <point x="121" y="272" type="line" name="hr00"/>
      <point x="121" y="319" smooth="yes"/>
      <point x="148" y="345" smooth="yes"/>
      <point x="192" y="345" type="curve" smooth="yes"/>
      <point x="235" y="345" smooth="yes"/>
      <point x="257" y="319" smooth="yes"/>
      <point x="257" y="285" type="curve" smooth="yes"/>
      <point x="257" y="250" smooth="yes"/>
      <point x="235" y="225" smooth="yes"/>
      <point x="194" y="184" type="curve" smooth="yes"/>
      <point x="55" y="45" type="line"/>
      <point x="55" y="0" type="line"/>
      <point x="327" y="0" type="line"/>
      <point x="327" y="48" type="line"/>
      <point x="139" y="48" type="line"/>
      <point x="238" y="148" type="line" smooth="yes"/>
      <point x="280" y="191" smooth="yes"/>
      <point x="321" y="233" smooth="yes"/>
      <point x="321" y="285" type="curve" smooth="yes"/>
      <point x="321" y="357" smooth="yes"/>
      <point x="270" y="394" smooth="yes"/>
      <point x="192" y="394" type="curve" smooth="yes"/>
      <point x="108" y="394"/>
      <point x="60" y="351"/>
      <point x="60" y="272" type="curve"/>
    </contour>
  </outline>
</glyph>
<glyph name="threeinferior" format="1">
  <advance width="396"/>
  <unicode hex="2083"/>
  <outline>
    <contour>
      <point x="138" y="177" type="line" name="hr00"/>
      <point x="168" y="177" type="line" smooth="yes"/>
      <point x="223" y="177" smooth="yes"/>
      <point x="269" y="161" smooth="yes"/>
      <point x="269" y="106" type="curve" smooth="yes"/>
      <point x="269" y="66" smooth="yes"/>
      <point x="242" y="41" smooth="yes"/>
      <point x="190" y="41" type="curve" smooth="yes"/>
      <point x="142" y="41"/>
      <point x="117" y="72"/>
      <point x="117" y="116" type="curve"/>
      <point x="58" y="116" type="line"/>
      <point x="58" y="42" smooth="yes"/>
      <point x="108" y="-7" smooth="yes"/>
      <point x="190" y="-7" type="curve" smooth="yes"/>
      <point x="282" y="-7" smooth="yes"/>
      <point x="333" y="33" smooth="yes"/>
      <point x="333" y="107" type="curve" smooth="yes"/>
      <point x="333" y="144"/>
      <point x="310" y="183"/>
      <point x="261" y="197" type="curve"/>
      <point x="304" y="213" smooth="yes"/>
      <point x="324" y="248" smooth="yes"/>
      <point x="324" y="285" type="curve" smooth="yes"/>
      <point x="324" y="355" smooth="yes"/>
      <point x="276" y="395" smooth="yes"/>
      <point x="190" y="395" type="curve" smooth="yes"/>
      <point x="112" y="395"/>
      <point x="63" y="345"/>
      <point x="63" y="272" type="curve"/>
      <point x="121" y="272" type="line"/>
      <point x="121" y="316" smooth="yes"/>
      <point x="146" y="346" smooth="yes"/>
      <point x="190" y="346" type="curve" smooth="yes"/>
      <point x="235" y="346" smooth="yes"/>
      <point x="260" y="321" smooth="yes"/>
      <point x="260" y="284" type="curve" smooth="yes"/>
      <point x="260" y="234" smooth="yes"/>
      <point x="219" y="214" smooth="yes"/>
      <point x="166" y="214" type="curve" smooth="yes"/>
      <point x="136" y="214" type="line"/>
    </contour>
  </outline>
</glyph>
<glyph name="fourinferior" format="1">
  <advance width="393"/>
  <unicode hex="2084"/>
  <outline>
    <contour>
      <point x="295" y="126" type="line" name="hr00"/>
      <point x="295" y="387" type="line"/>
      <point x="198" y="387" type="line"/>
      <point x="34" y="122" type="line"/>
      <point x="34" y="84" type="line"/>
      <point x="230" y="84" type="line"/>
      <point x="230" y="0" type="line"/>
      <point x="295" y="0" type="line"/>
      <point x="295" y="84" type="line"/>
      <point x="340" y="84" type="line"/>
      <point x="340" y="126" type="line"/>
    </contour>
    <contour>
      <point x="103" y="126" type="line"/>
      <point x="230" y="326" type="line"/>
      <point x="230" y="126" type="line"/>
    </contour>
  </outline>
</glyph>
<glyph name="fiveinferior" format="1">
  <advance width="389"/>
  <unicode hex="2085"/>
  <outline>
    <contour>
      <point x="90" y="181" type="line" name="hr00"/>
      <point x="118" y="189" smooth="yes"/>
      <point x="145" y="194" smooth="yes"/>
      <point x="171" y="194" type="curve" smooth="yes"/>
      <point x="229" y="194" smooth="yes"/>
      <point x="271" y="171" smooth="yes"/>
      <point x="271" y="114" type="curve" smooth="yes"/>
      <point x="271" y="68" smooth="yes"/>
      <point x="244" y="41" smooth="yes"/>
      <point x="193" y="41" type="curve" smooth="yes"/>
      <point x="147" y="41"/>
      <point x="122" y="73"/>
      <point x="122" y="121" type="curve"/>
      <point x="64" y="121" type="line"/>
      <point x="64" y="44" smooth="yes"/>
      <point x="112" y="-8" smooth="yes"/>
      <point x="192" y="-8" type="curve" smooth="yes"/>
      <point x="285" y="-8" smooth="yes"/>
      <point x="336" y="36" smooth="yes"/>
      <point x="336" y="116" type="curve" smooth="yes"/>
      <point x="336" y="181" smooth="yes"/>
      <point x="289" y="235" smooth="yes"/>
      <point x="197" y="235" type="curve" smooth="yes"/>
      <point x="178" y="235"/>
      <point x="158" y="232"/>
      <point x="136" y="227" type="curve"/>
      <point x="147" y="338" type="line"/>
      <point x="310" y="338" type="line"/>
      <point x="314" y="387" type="line"/>
      <point x="95" y="387" type="line"/>
      <point x="76" y="192" type="line"/>
    </contour>
  </outline>
</glyph>
<glyph name="sixinferior" format="1">
  <advance width="399"/>
  <unicode hex="2086"/>
  <outline>
    <contour>
      <point x="338" y="292" type="line" name="hr00"/>
      <point x="331" y="357" smooth="yes"/>
      <point x="287" y="395" smooth="yes"/>
      <point x="210" y="395" type="curve" smooth="yes"/>
      <point x="113" y="395" smooth="yes"/>
      <point x="61" y="312" smooth="yes"/>
      <point x="61" y="181" type="curve" smooth="yes"/>
      <point x="61" y="60" smooth="yes"/>
      <point x="116" y="-7" smooth="yes"/>
      <point x="203" y="-7" type="curve" smooth="yes"/>
      <point x="292" y="-7" smooth="yes"/>
      <point x="343" y="36" smooth="yes"/>
      <point x="343" y="113" type="curve" smooth="yes"/>
      <point x="343" y="192" smooth="yes"/>
      <point x="284" y="231" smooth="yes"/>
      <point x="219" y="231" type="curve" smooth="yes"/>
      <point x="187" y="231"/>
      <point x="154" y="222"/>
      <point x="125" y="203" type="curve"/>
      <point x="125" y="293" smooth="yes"/>
      <point x="154" y="346" smooth="yes"/>
      <point x="209" y="346" type="curve" smooth="yes"/>
      <point x="253" y="346"/>
      <point x="273" y="319"/>
      <point x="276" y="279" type="curve"/>
    </contour>
    <contour>
      <point x="201" y="41" type="curve" smooth="yes"/>
      <point x="159" y="41"/>
      <point x="128" y="81"/>
      <point x="124" y="154" type="curve"/>
      <point x="151" y="172" smooth="yes"/>
      <point x="182" y="182" smooth="yes"/>
      <point x="209" y="182" type="curve" smooth="yes"/>
      <point x="248" y="182" smooth="yes"/>
      <point x="280" y="161" smooth="yes"/>
      <point x="280" y="114" type="curve" smooth="yes"/>
      <point x="280" y="66" smooth="yes"/>
      <point x="253" y="41" smooth="yes"/>
    </contour>
  </outline>
</glyph>
<glyph name="seveninferior" format="1">
  <advance width="343"/>
  <unicode hex="2087"/>
  <outline>
    <contour>
      <point x="295" y="343" type="line" name="hr00"/>
      <point x="295" y="387" type="line"/>
      <point x="40" y="387" type="line"/>
      <point x="44" y="338" type="line"/>
      <point x="230" y="338" type="line"/>
      <point x="70" y="0" type="line"/>
      <point x="135" y="0" type="line"/>
    </contour>
  </outline>
</glyph>
<glyph name="eightinferior" format="1">
  <advance width="411"/>
  <unicode hex="2088"/>
  <outline>
    <contour>
      <point x="342" y="290" type="curve" smooth="yes" name="hr00"/>
      <point x="342" y="355" smooth="yes"/>
      <point x="286" y="394" smooth="yes"/>
      <point x="206" y="394" type="curve" smooth="yes"/>
      <point x="126" y="394" smooth="yes"/>
      <point x="71" y="355" smooth="yes"/>
      <point x="71" y="290" type="curve" smooth="yes"/>
      <point x="71" y="244"/>
      <point x="100" y="218"/>
      <point x="136" y="199" type="curve"/>
      <point x="84" y="176" smooth="yes"/>
      <point x="63" y="142" smooth="yes"/>
      <point x="63" y="98" type="curve" smooth="yes"/>
      <point x="63" y="25" smooth="yes"/>
      <point x="127" y="-8" smooth="yes"/>
      <point x="206" y="-8" type="curve" smooth="yes"/>
      <point x="285" y="-8" smooth="yes"/>
      <point x="348" y="25" smooth="yes"/>
      <point x="348" y="98" type="curve" smooth="yes"/>
      <point x="348" y="150"/>
      <point x="312" y="174"/>
      <point x="270" y="192" type="curve"/>
      <point x="319" y="213" smooth="yes"/>
      <point x="342" y="250" smooth="yes"/>
    </contour>
    <contour>
      <point x="284" y="103" type="curve" smooth="yes"/>
      <point x="284" y="60" smooth="yes"/>
      <point x="255" y="37" smooth="yes"/>
      <point x="205" y="37" type="curve" smooth="yes"/>
      <point x="156" y="37" smooth="yes"/>
      <point x="127" y="60" smooth="yes"/>
      <point x="127" y="103" type="curve" smooth="yes"/>
      <point x="127" y="138"/>
      <point x="145" y="165"/>
      <point x="183" y="178" type="curve"/>
      <point x="235" y="160" smooth="yes"/>
      <point x="284" y="144" smooth="yes"/>
    </contour>
    <contour>
      <point x="135" y="286" type="curve" smooth="yes"/>
      <point x="135" y="323" smooth="yes"/>
      <point x="158" y="349" smooth="yes"/>
      <point x="206" y="349" type="curve" smooth="yes"/>
      <point x="255" y="349" smooth="yes"/>
      <point x="277" y="320" smooth="yes"/>
      <point x="277" y="286" type="curve" smooth="yes"/>
      <point x="277" y="252"/>
      <point x="251" y="225"/>
      <point x="214" y="213" type="curve"/>
      <point x="172" y="228" smooth="yes"/>
      <point x="135" y="245" smooth="yes"/>
    </contour>
  </outline>
</glyph>
<glyph name="nineinferior" format="1">
  <advance width="396"/>
  <unicode hex="2089"/>
  <outline>
    <contour>
      <point x="184" y="-7" type="curve" smooth="yes" name="hr00"/>
      <point x="283" y="-7" smooth="yes"/>
      <point x="336" y="72" smooth="yes"/>
      <point x="336" y="211" type="curve" smooth="yes"/>
      <point x="336" y="329" smooth="yes"/>
      <point x="282" y="395" smooth="yes"/>
      <point x="194" y="395" type="curve" smooth="yes"/>
      <point x="107" y="395" smooth="yes"/>
      <point x="56" y="350" smooth="yes"/>
      <point x="56" y="272" type="curve" smooth="yes"/>
      <point x="56" y="193" smooth="yes"/>
      <point x="114" y="155" smooth="yes"/>
      <point x="179" y="155" type="curve" smooth="yes"/>
      <point x="211" y="155"/>
      <point x="245" y="165"/>
      <point x="275" y="184" type="curve"/>
      <point x="273" y="88" smooth="yes"/>
      <point x="240" y="41" smooth="yes"/>
      <point x="187" y="41" type="curve" smooth="yes"/>
      <point x="139" y="41"/>
      <point x="115" y="71"/>
      <point x="115" y="114" type="curve"/>
      <point x="56" y="114" type="line"/>
      <point x="56" y="41" smooth="yes"/>
      <point x="103" y="-7" smooth="yes"/>
    </contour>
    <contour>
      <point x="195" y="346" type="curve" smooth="yes"/>
      <point x="241" y="346"/>
      <point x="274" y="310"/>
      <point x="274" y="233" type="curve"/>
      <point x="246" y="214" smooth="yes"/>
      <point x="215" y="204" smooth="yes"/>
      <point x="188" y="204" type="curve" smooth="yes"/>
      <point x="149" y="204" smooth="yes"/>
      <point x="119" y="226" smooth="yes"/>
      <point x="119" y="272" type="curve" smooth="yes"/>
      <point x="119" y="320" smooth="yes"/>
      <point x="145" y="346" smooth="yes"/>
    </contour>
  </outline>
</glyph>
<glyph name="Euro" format="1">
  <advance width="621"/>
  <unicode hex="20AC"/>
  <outline>
    <contour>
      <point x="339" y="-15" type="curve" name="hr00"/>
      <point x="453" y="-15"/>
      <point x="531" y="47"/>
      <point x="573" y="173" type="curve"/>
      <point x="506" y="191" type="line"/>
      <point x="475" y="94" smooth="yes"/>
      <point x="421" y="46" smooth="yes"/>
      <point x="340" y="46" type="curve" smooth="yes"/>
      <point x="239" y="46"/>
      <point x="171" y="125"/>
      <point x="149" y="269" type="curve"/>
      <point x="422" y="269" type="line"/>
      <point x="434" y="315" type="line"/>
      <point x="143" y="315" type="line"/>
      <point x="142" y="331" smooth="yes"/>
      <point x="141" y="347" smooth="yes"/>
      <point x="141" y="377" type="curve" smooth="yes"/>
      <point x="141" y="395"/>
      <point x="141" y="406"/>
      <point x="142" y="416" type="curve"/>
      <point x="434" y="416" type="line"/>
      <point x="447" y="462" type="line"/>
      <point x="146" y="462" type="line"/>
      <point x="164" y="604" smooth="yes"/>
      <point x="233" y="683" smooth="yes"/>
      <point x="340" y="683" type="curve" smooth="yes"/>
      <point x="401" y="683"/>
      <point x="471" y="663"/>
      <point x="537" y="627" type="curve"/>
      <point x="563" y="687" type="line"/>
      <point x="487" y="725" smooth="yes"/>
      <point x="413" y="744" smooth="yes"/>
      <point x="340" y="744" type="curve" smooth="yes"/>
      <point x="190" y="744"/>
      <point x="91" y="642"/>
      <point x="67" y="462" type="curve"/>
      <point x="24" y="462" type="line"/>
      <point x="11" y="416" type="line"/>
      <point x="62" y="416" type="line"/>
      <point x="61" y="405" smooth="yes"/>
      <point x="61" y="394" smooth="yes"/>
      <point x="61" y="374" type="curve" smooth="yes"/>
      <point x="61" y="345"/>
      <point x="62" y="330"/>
      <point x="63" y="315" type="curve"/>
      <point x="11" y="315" type="line"/>
      <point x="-1" y="269" type="line"/>
      <point x="68" y="269" type="line"/>
      <point x="95" y="87" smooth="yes"/>
      <point x="192" y="-15" smooth="yes"/>
    </contour>
  </outline>
</glyph>
<glyph name="uni2113" format="1">
  <advance width="328"/>
  <unicode hex="2113"/>
  <outline>
    <contour>
      <point x="212" y="-14" type="curve" name="hr00"/>
      <point x="243" y="-14"/>
      <point x="274" y="-8"/>
      <point x="308" y="4" type="curve"/>
      <point x="299" y="65" type="line"/>
      <point x="282" y="58" smooth="yes"/>
      <point x="259" y="54" smooth="yes"/>
      <point x="240" y="54" type="curve" smooth="yes"/>
      <point x="207" y="54" smooth="yes"/>
      <point x="191" y="72" smooth="yes"/>
      <point x="191" y="108" type="curve" smooth="yes"/>
      <point x="191" y="735" type="line"/>
      <point x="112" y="730" type="line"/>
      <point x="112" y="101" type="line" smooth="yes"/>
      <point x="112" y="22" smooth="yes"/>
      <point x="143" y="-14" smooth="yes"/>
    </contour>
  </outline>
</glyph>
<glyph name="trademark" format="1">
  <advance width="871"/>
  <unicode hex="2122"/>
  <outline>
    <contour>
      <point x="361" y="340" type="line" name="hr00"/>
      <point x="423" y="340" type="line"/>
      <point x="444" y="697" type="line"/>
      <point x="547" y="411" type="line"/>
      <point x="603" y="411" type="line"/>
      <point x="711" y="697" type="line"/>
      <point x="733" y="340" type="line"/>
      <point x="795" y="340" type="line"/>
      <point x="769" y="778" type="line"/>
      <point x="704" y="778" type="line" smooth="yes"/>
      <point x="691" y="778" smooth="yes"/>
      <point x="683" y="772" smooth="yes"/>
      <point x="679" y="760" type="curve" smooth="yes"/>
      <point x="575" y="475" type="line"/>
      <point x="475" y="759" type="line" smooth="yes"/>
      <point x="472" y="771" smooth="yes"/>
      <point x="463" y="778" smooth="yes"/>
      <point x="451" y="778" type="curve" smooth="yes"/>
      <point x="385" y="778" type="line"/>
    </contour>
    <contour>
      <point x="135" y="340" type="line"/>
      <point x="135" y="736" type="line"/>
      <point x="28" y="736" type="line"/>
      <point x="28" y="778" type="line"/>
      <point x="304" y="778" type="line"/>
      <point x="304" y="736" type="line"/>
      <point x="197" y="736" type="line"/>
      <point x="197" y="340" type="line"/>
    </contour>
  </outline>
</glyph>
<glyph name="Omega" format="1">
  <advance width="808"/>
  <unicode hex="2126"/>
  <outline>
    <contour>
      <point x="86" y="0" type="line" name="hr00"/>
      <point x="86" y="52" type="line"/>
      <point x="234" y="60" type="line"/>
      <point x="234" y="141" type="line"/>
      <point x="133" y="197" smooth="yes"/>
      <point x="69" y="308" smooth="yes"/>
      <point x="69" y="426" type="curve" smooth="yes"/>
      <point x="69" y="627" smooth="yes"/>
      <point x="192" y="744" smooth="yes"/>
      <point x="403" y="744" type="curve" smooth="yes"/>
      <point x="613" y="744" smooth="yes"/>
      <point x="737" y="626" smooth="yes"/>
      <point x="737" y="426" type="curve" smooth="yes"/>
      <point x="737" y="308"/>
      <point x="673" y="198"/>
      <point x="571" y="141" type="curve"/>
      <point x="571" y="60" type="line"/>
      <point x="720" y="52" type="line"/>
      <point x="720" y="0" type="line"/>
      <point x="506" y="0" type="line"/>
      <point x="506" y="175" type="line"/>
      <point x="594" y="213" smooth="yes"/>
      <point x="656" y="314" smooth="yes"/>
      <point x="656" y="419" type="curve" smooth="yes"/>
      <point x="656" y="590" smooth="yes"/>
      <point x="567" y="682" smooth="yes"/>
      <point x="403" y="682" type="curve" smooth="yes"/>
      <point x="238" y="682" smooth="yes"/>
      <point x="149" y="590" smooth="yes"/>
      <point x="149" y="419" type="curve" smooth="yes"/>
      <point x="149" y="314"/>
      <point x="211" y="213"/>
      <point x="299" y="175" type="curve"/>
      <point x="299" y="0" type="line"/>
    </contour>
  </outline>
</glyph>
<glyph name="partialdiff" format="1">
  <advance width="619"/>
  <unicode hex="2202"/>
  <outline>
    <contour>
      <point x="268" y="-14" type="curve" name="hr00"/>
      <point x="458" y="-14" smooth="yes"/>
      <point x="563" y="123" smooth="yes"/>
      <point x="563" y="370" type="curve" smooth="yes"/>
      <point x="563" y="543"/>
      <point x="503" y="713"/>
      <point x="400" y="835" type="curve"/>
      <point x="348" y="788" type="line"/>
      <point x="424" y="691"/>
      <point x="457" y="616"/>
      <point x="486" y="477" type="curve"/>
      <point x="481" y="477" type="line"/>
      <point x="447" y="540" smooth="yes"/>
      <point x="394" y="572" smooth="yes"/>
      <point x="323" y="572" type="curve" smooth="yes"/>
      <point x="159" y="572" smooth="yes"/>
      <point x="60" y="445" smooth="yes"/>
      <point x="60" y="235" type="curve" smooth="yes"/>
      <point x="60" y="83" smooth="yes"/>
      <point x="141" y="-14" smooth="yes"/>
    </contour>
    <contour>
      <point x="336" y="507" type="curve" smooth="yes"/>
      <point x="424" y="507" smooth="yes"/>
      <point x="477" y="439" smooth="yes"/>
      <point x="477" y="327" type="curve" smooth="yes"/>
      <point x="477" y="155" smooth="yes"/>
      <point x="401" y="50" smooth="yes"/>
      <point x="277" y="50" type="curve" smooth="yes"/>
      <point x="195" y="50" smooth="yes"/>
      <point x="143" y="123" smooth="yes"/>
      <point x="143" y="239" type="curve" smooth="yes"/>
      <point x="143" y="406" smooth="yes"/>
      <point x="216" y="507" smooth="yes"/>
    </contour>
  </outline>
</glyph>
<glyph name="Delta" format="1">
  <advance width="643"/>
  <unicode hex="2206"/>
  <outline>
    <contour>
      <point x="27" y="0" type="line" name="hr00"/>
      <point x="614" y="0" type="line"/>
      <point x="374" y="730" type="line"/>
      <point x="268" y="730" type="line"/>
    </contour>
    <contour>
      <point x="319" y="655" type="line"/>
      <point x="324" y="655" type="line"/>
      <point x="517" y="62" type="line"/>
      <point x="124" y="62" type="line"/>
    </contour>
  </outline>
</glyph>
<glyph name="product" format="1">
  <advance width="696"/>
  <unicode hex="220F"/>
  <outline>
    <contour>
      <point x="629" y="618" type="line" name="hr00"/>
      <point x="629" y="670" type="line"/>
      <point x="66" y="670" type="line"/>
      <point x="66" y="618" type="line"/>
      <point x="126" y="610" type="line"/>
      <point x="126" y="-170" type="line"/>
      <point x="206" y="-170" type="line"/>
      <point x="206" y="615" type="line"/>
      <point x="489" y="615" type="line"/>
      <point x="489" y="-170" type="line"/>
      <point x="569" y="-170" type="line"/>
      <point x="569" y="610" type="line"/>
    </contour>
  </outline>
</glyph>
<glyph name="summation" format="1">
  <advance width="555"/>
  <unicode hex="2211"/>
  <outline>
    <contour>
      <point x="44" y="-170" type="line" name="hr00"/>
      <point x="44" y="-119" type="line"/>
      <point x="264" y="250" type="line"/>
      <point x="54" y="619" type="line"/>
      <point x="54" y="670" type="line"/>
      <point x="485" y="670" type="line" smooth="yes"/>
      <point x="505" y="670" smooth="yes"/>
      <point x="516" y="659" smooth="yes"/>
      <point x="516" y="639" type="curve" smooth="yes"/>
      <point x="516" y="486" type="line"/>
      <point x="464" y="486" type="line"/>
      <point x="456" y="615" type="line"/>
      <point x="146" y="615" type="line"/>
      <point x="350" y="250" type="line"/>
      <point x="136" y="-115" type="line"/>
      <point x="466" y="-115" type="line"/>
      <point x="474" y="14" type="line"/>
      <point x="526" y="14" type="line"/>
      <point x="526" y="-139" type="line" smooth="yes"/>
      <point x="526" y="-160" smooth="yes"/>
      <point x="515" y="-170" smooth="yes"/>
      <point x="495" y="-170" type="curve" smooth="yes"/>
    </contour>
  </outline>
</glyph>
<glyph name="minus" format="1">
  <advance width="584"/>
  <unicode hex="2212"/>
  <outline>
    <contour>
      <point x="489" y="333" type="line" name="hr00"/>
      <point x="489" y="397" type="line"/>
      <point x="95" y="397" type="line"/>
      <point x="95" y="333" type="line"/>
    </contour>
  </outline>
</glyph>
<glyph name="radical" format="1">
  <advance width="551"/>
  <unicode hex="221A"/>
  <outline>
    <contour>
      <point x="619" y="770" type="line" name="hr00"/>
      <point x="619" y="821" type="line"/>
      <point x="416" y="821" type="line"/>
      <point x="207" y="91" type="line"/>
      <point x="83" y="437" type="line"/>
      <point x="-1" y="437" type="line"/>
      <point x="162" y="0" type="line"/>
      <point x="252" y="0" type="line"/>
      <point x="484" y="770" type="line"/>
    </contour>
  </outline>
</glyph>
